<svg width="500" height="500" viewBox="0 0 500 500" fill="none" xmlns="http://www.w3.org/2000/svg">
<path d="M488.67 234.08C495.11 177.5 476 120.67 435.82 80.3C416.07 60.45 389.06 41.74 353.17 32.7C252.54 7.36 187.31 30.58 154.71 92.24C122.11 153.9 28.54 143.24 13.71 249.6C-1.12004 355.96 71.12 472.87 193.71 479.25C316.3 485.63 300.55 424.59 367.63 398.4C418.91 378.38 479.07 318.52 488.67 234.08Z" fill="#006FCB"/>
<path opacity="0.7" d="M488.67 234.08C495.11 177.5 476 120.67 435.82 80.3C416.07 60.45 389.06 41.74 353.17 32.7C252.54 7.36 187.31 30.58 154.71 92.24C122.11 153.9 28.54 143.24 13.71 249.6C-1.12004 355.96 71.12 472.87 193.71 479.25C316.3 485.63 300.55 424.59 367.63 398.4C418.91 378.38 479.07 318.52 488.67 234.08Z" fill="white"/>
<path d="M347.5 29.76C340.554 34.89 335.184 41.8636 332 49.89C332 49.89 328 41.28 312.45 45.58C296.9 49.88 293.79 60.35 293.79 60.35C293.79 60.35 289.42 54.2 280.53 57.27C271.64 60.34 270.28 70.19 270.28 70.19H397.66" stroke="#263238" stroke-linecap="round" stroke-linejoin="round"/>
<path d="M406.55 70.19H449.27C449.27 70.19 446.39 55.43 437.71 49.28C429.03 43.13 413 48.66 413 48.66C413 48.66 410 26.51 376.31 22.82C368.63 21.814 360.821 22.9563 353.75 26.12" stroke="#263238" stroke-linecap="round" stroke-linejoin="round"/>
<path d="M98.89 68.72C96.3437 71.4023 94.3433 74.5541 93 78C93 78 90.5 72.66 80.89 75.33C71.28 78 69.3 84.44 69.3 84.44C69.3 84.44 66.59 80.62 61.08 82.53C55.57 84.44 54.73 90.53 54.73 90.53H109.49" stroke="#263238" stroke-linecap="round" stroke-linejoin="round"/>
<path d="M119.12 90.53H165.62C165.62 90.53 163.84 81.39 158.46 77.53C153.08 73.67 143.18 77.15 143.18 77.15C143.18 77.15 141.27 63.43 120.44 61.15C116.01 60.5797 111.507 61.1511 107.36 62.81" stroke="#263238" stroke-linecap="round" stroke-linejoin="round"/>
<path d="M286.56 22.92C275.27 21.68 271.68 32 271.68 32C271.68 32 270.32 29.12 265.12 30.56C259.92 32 258.86 35.51 258.86 35.51C258.326 34.8842 257.604 34.4485 256.802 34.2681C255.999 34.0878 255.16 34.1727 254.41 34.51C253.522 34.8788 252.742 35.4682 252.146 36.2224C251.549 36.9767 251.155 37.8708 251 38.82H311C311 38.82 310 33.82 307.12 31.82C304.24 29.82 298.85 31.61 298.85 31.61C298.575 30.177 297.938 28.838 297 27.72" stroke="#263238" stroke-linecap="round" stroke-linejoin="round"/>
<path opacity="0.12" d="M31.62 397.23C34.9431 398.198 38.3524 398.841 41.8 399.15L48.89 404.43C47.0231 404.519 45.217 405.121 43.67 406.17C40.27 408.53 38.59 418.65 38.52 419.08C38.504 419.149 38.5077 419.221 38.5307 419.289C38.5536 419.356 38.595 419.415 38.65 419.46C38.7036 419.504 38.7667 419.535 38.8344 419.551C38.9021 419.566 38.9724 419.566 39.04 419.55C39.31 419.47 45.59 417.67 49.28 414.08C50.6432 412.75 51.4871 410.977 51.66 409.08C51.7681 408.203 51.7681 407.317 51.66 406.44L56.66 410.18L67.32 437.75C66.7683 437.447 66.2008 437.173 65.62 436.93C60.7 434.93 53.62 435.93 53.35 435.93C53.2822 435.94 53.2177 435.966 53.1621 436.006C53.1064 436.046 53.0611 436.099 53.03 436.16C52.9976 436.22 52.9806 436.287 52.9806 436.355C52.9806 436.423 52.9976 436.49 53.03 436.55C53.26 436.94 58.66 446.02 63.74 448.41C68.82 450.8 77.63 450 78 449.94C78.0705 449.93 78.1376 449.904 78.1952 449.862C78.2528 449.82 78.2991 449.764 78.33 449.7C78.3356 449.657 78.3356 449.613 78.33 449.57C78.3394 449.47 78.3109 449.37 78.25 449.29L74.48 444C73.0588 442.274 71.4374 440.723 69.65 439.38L68.34 435.98C70.0875 434.772 71.718 433.403 73.21 431.89C73.21 435.4 73.53 439.89 75.03 442.65C77.69 447.58 85.3 452.15 85.62 452.34C85.6838 452.377 85.7562 452.396 85.83 452.396C85.9037 452.396 85.9761 452.377 86.04 452.34C86.0952 452.308 86.1421 452.263 86.1768 452.209C86.2115 452.155 86.2332 452.094 86.24 452.03V452.03L86.33 445.46C86.2158 443.23 85.8365 441.021 85.2 438.88L86.2 435.36C87.99 435.41 92.07 435.36 94.83 434.36C97.59 433.36 102.83 427.11 105.29 424.13C107.29 425.51 108.69 426.38 108.85 426.47C108.934 426.521 109.031 426.548 109.13 426.548C109.229 426.548 109.326 426.521 109.41 426.47C109.489 426.426 109.556 426.365 109.607 426.29C109.657 426.215 109.689 426.13 109.7 426.04V425.99V422.83L146.54 435.77L138.35 437.18C138.263 437.145 138.167 437.145 138.08 437.18C138.009 437.2 137.943 437.238 137.89 437.29L127.28 439C125.5 437.61 117.14 431.34 112 432.23C106.38 433.23 96.68 444.81 96.27 445.31C96.2164 445.377 96.1787 445.455 96.1597 445.539C96.1406 445.623 96.1407 445.71 96.16 445.793C96.1792 445.877 96.217 445.955 96.2707 446.022C96.3244 446.089 96.3925 446.143 96.47 446.18C97 446.43 109.56 452.28 114.57 449.79C118.14 448 123.4 443.72 126.02 441.5L137.29 439.56C137.223 439.86 137.153 440.193 137.08 440.56C135.87 442.265 135.069 444.225 134.74 446.29C134.624 448.304 135.023 450.314 135.9 452.13C135.946 453.24 136.152 454.338 136.51 455.39H150.58C150.41 454.7 150.22 454.02 150 453.39C149.436 451.891 148.701 450.461 147.81 449.13C147.81 448.82 147.81 448.51 147.81 448.2C147.761 445.624 146.809 443.146 145.12 441.2C144.339 440.282 143.445 439.465 142.46 438.77L150.86 437.32L179.45 449C179.001 450.663 178.703 452.363 178.56 454.08C175.806 451.308 172.735 448.872 169.41 446.82C169.349 446.791 169.282 446.776 169.215 446.776C169.147 446.776 169.081 446.791 169.02 446.82C168.96 446.85 168.908 446.894 168.868 446.948C168.828 447.002 168.801 447.064 168.79 447.13C168.35 449.868 168.129 452.637 168.13 455.41H216.26C216.1 453.01 215.82 450.65 215.61 449.06C217.96 448.6 219.61 448.15 219.76 448.06C219.852 448.036 219.937 447.989 220.006 447.923C220.074 447.857 220.125 447.774 220.153 447.683C220.181 447.592 220.186 447.495 220.166 447.402C220.146 447.309 220.103 447.222 220.04 447.15C220.04 447.15 220.04 447.15 220.04 447.15L213.64 440.89C213.56 440.83 212.97 440.31 212 439.57C213.15 434.84 210.5 426.99 209.47 424.24C209.899 423.559 210.276 422.847 210.6 422.11C212.66 417.35 210.03 400.17 209.92 399.44C209.904 399.336 209.859 399.239 209.79 399.16C209.736 399.099 209.672 399.049 209.6 399.01C209.519 398.965 209.428 398.942 209.335 398.942C209.242 398.942 209.151 398.965 209.07 399.01C208.64 399.28 198.52 405.57 197.39 411.83C196.82 414.96 197.89 420.02 199.1 424.31L193.1 414.36L196.24 399.67C198.308 398.781 200.161 397.457 201.673 395.789C203.184 394.12 204.319 392.146 205 390C207.64 382.49 201.56 367.44 201.3 366.81C201.28 366.752 201.249 366.697 201.21 366.65C201.13 366.557 201.02 366.494 200.9 366.47C200.81 366.45 200.717 366.453 200.628 366.477C200.539 366.502 200.457 366.547 200.39 366.61C200 366.99 190.76 375.97 188.62 383.12C186.89 388.87 191.81 395.51 194.17 398.26L191.35 411.47L190.47 410.02C190.536 405.68 190.352 401.339 189.92 397.02C189.912 396.935 189.877 396.854 189.82 396.79C189.782 396.74 189.729 396.702 189.67 396.68C189.601 396.652 189.526 396.643 189.452 396.653C189.378 396.664 189.308 396.694 189.25 396.74C189.05 396.9 187.11 398.5 184.85 400.69L183.32 398.17L166.33 373.3C167.65 371.58 172.51 364.97 174.67 358.3C177.12 350.65 175.21 332.05 175.12 331.3C175.109 331.189 175.063 331.084 174.99 331C174.944 330.943 174.888 330.895 174.823 330.86C174.759 330.825 174.688 330.804 174.615 330.798C174.542 330.791 174.468 330.799 174.399 330.822C174.329 330.845 174.265 330.882 174.21 330.93C173.55 331.46 158.21 344.09 157.95 351.14C157.8 355.33 160.32 362.47 162.4 367.6L157.5 360.39C157.04 354.86 155.6 341.24 152.24 336.06C152.051 335.758 151.841 335.471 151.61 335.2C149.765 333.257 147.534 331.721 145.06 330.69C152.32 325.89 162.35 314.21 162.81 313.69C162.886 313.604 162.931 313.495 162.94 313.38C162.96 313.295 162.96 313.206 162.94 313.12C162.904 313.025 162.843 312.942 162.764 312.879C162.685 312.816 162.59 312.775 162.49 312.76C161.65 312.66 141.92 310.21 136.63 314.88C133.49 317.66 130.05 324.4 127.76 329.44L129.62 320.92C133.31 316.78 142.2 306.36 143.62 300.36C143.701 300.014 143.761 299.663 143.8 299.31C144.66 291.63 136.54 279.15 136.18 278.6C136.12 278.512 136.037 278.442 135.94 278.398C135.843 278.354 135.736 278.337 135.63 278.35C135.18 278.42 131.11 279.35 126.44 292.24C121.95 304.65 126.44 320.32 126.99 322.24L118.54 360.99L112.87 342.27C113.8 340.73 117.36 334.54 117.87 329.57C118.022 328.467 117.95 327.345 117.66 326.27C116.01 320.82 103.3 312.62 102.76 312.27C102.689 312.222 102.607 312.191 102.522 312.181C102.437 312.17 102.351 312.18 102.27 312.21C102.189 312.239 102.116 312.285 102.056 312.346C101.995 312.406 101.949 312.479 101.92 312.56C101.74 313.12 97.47 326.31 100.56 330.97C102.77 334.3 107.66 338.97 110.19 341.32L113.68 352.86C112.354 351.993 110.895 351.351 109.36 350.96C108.3 348.532 107.049 346.191 105.62 343.96C105.576 343.896 105.516 343.845 105.445 343.814C105.375 343.782 105.297 343.77 105.22 343.78C104.89 343.78 101.92 344.52 98.51 353.91C97.51 354.56 96.62 355.25 95.75 355.91C95.919 350.572 95.4659 345.233 94.4 340C94.3795 339.911 94.3379 339.828 94.2788 339.759C94.2196 339.689 94.1445 339.635 94.06 339.6C93.9739 339.566 93.8811 339.553 93.789 339.562C93.6969 339.571 93.6082 339.601 93.53 339.65C93.08 339.96 82.42 347.19 79.06 353.85C76.62 358.68 79.37 365.15 81.29 368.67L81.22 368.62C81.1663 368.586 81.1058 368.565 81.0429 368.559C80.9801 368.552 80.9165 368.559 80.8568 368.58C80.7972 368.601 80.7432 368.636 80.6987 368.681C80.6542 368.726 80.6205 368.78 80.6 368.84C79.7319 371.56 79.1422 374.361 78.84 377.2L76.84 382.25L71.27 367.82L58.87 340.27C60.47 338.81 66.41 333.15 69.7 326.91C72.19 322.2 73.63 312.41 74.33 306.12C74.69 302.93 74.86 300.64 74.88 300.37C74.8844 300.27 74.8628 300.17 74.8173 300.081C74.7717 299.991 74.7037 299.915 74.62 299.86C74.5321 299.808 74.432 299.781 74.33 299.781C74.2279 299.781 74.1278 299.808 74.04 299.86C73.3 300.25 56 310 54.5 316.9C53.61 321 54.85 328.46 56.01 333.9L52.45 325.96C52.96 320.44 53.92 306.77 51.52 301.09C48.52 293.94 33.26 288.24 32.61 288C32.5097 287.962 32.4004 287.954 32.2955 287.977C32.1907 288 32.0949 288.053 32.02 288.13C31.7 288.44 29.02 291.62 32.88 304.76C36.64 317.41 49.53 327.37 51.16 328.59L67.38 364.78L60.72 359.78C60.6912 359.692 60.6352 359.615 60.56 359.56C60.4934 359.521 60.4174 359.5 60.34 359.5L51.7 353.06C51.49 350.8 50.28 340.43 46.09 337.31C41.52 333.91 26.43 334.86 25.79 334.91C25.7047 334.915 25.6218 334.94 25.5475 334.982C25.4732 335.024 25.4095 335.082 25.3612 335.153C25.313 335.223 25.2815 335.304 25.2691 335.388C25.2568 335.473 25.2639 335.559 25.29 335.64C25.48 336.2 29.88 349.35 35.13 351.26C38.89 352.63 45.61 353.49 49.03 353.87L58.19 360.7L57.35 361.22C55.2783 361.507 53.3023 362.274 51.58 363.46C50.0414 364.761 48.8607 366.434 48.15 368.32C47.0673 369.348 46.2653 370.635 45.82 372.06C45.5947 373.33 45.5342 374.624 45.64 375.91C45.25 377.45 44.97 378.8 44.79 379.74L44.31 378.67C44.69 374.62 45.39 364.61 43.63 360.44C41.42 355.21 30.25 351.03 29.77 350.85C29.697 350.824 29.6182 350.818 29.5423 350.834C29.4664 350.85 29.3963 350.887 29.34 350.94C29.1 351.18 27.11 353.51 29.97 363.13C32.72 372.4 42.17 379.7 43.36 380.6L55.25 407.12L43.77 398.55C43.61 396.9 42.77 389.3 39.65 387.01C36.3 384.52 25.24 385.22 24.77 385.25C24.7079 385.254 24.6475 385.272 24.5937 385.303C24.5399 385.335 24.4941 385.378 24.46 385.43C24.4252 385.482 24.4027 385.542 24.394 385.604C24.3854 385.667 24.3908 385.73 24.41 385.79C24.55 386.2 27.77 395.83 31.62 397.23ZM45.62 381.6L46.31 381.38C46.5 382.47 46.71 383.52 46.92 384.49L45.62 381.6ZM66.46 420.9C65.65 423.09 65.77 426.9 66.1 430.14L63.02 422.14L67.17 412C67.5391 411.927 67.9032 411.83 68.26 411.71C69.0883 412.638 70.0061 413.482 71 414.23C71.34 414.63 71.67 415.04 72 415.43C69.7 416.81 67.27 418.71 66.46 420.9V420.9ZM87.8 429.26L89.42 423.32C90.32 423.37 91.19 423.4 92.01 423.41C90.4047 425.206 88.9936 427.167 87.8 429.26V429.26ZM89.13 403.26C89.5353 402.755 89.8967 402.217 90.21 401.65L90.94 404.07C90.4528 403.8 89.9484 403.563 89.43 403.36L89.13 403.26ZM91.18 399.17C91.4066 398.95 91.6366 398.72 91.87 398.48C91.87 399.48 91.87 400.57 91.94 401.67L91.18 399.17ZM108.81 390.3C106.74 387.84 105.19 386.15 105.01 385.95C104.943 385.874 104.856 385.817 104.759 385.787C104.662 385.757 104.558 385.755 104.46 385.78C104.361 385.805 104.271 385.857 104.199 385.929C104.127 386.001 104.075 386.091 104.05 386.19C103.129 389.925 102.415 393.707 101.91 397.52C100.325 396.017 98.6234 394.642 96.82 393.41L98.39 386.21C102.594 385.785 106.708 384.719 110.59 383.05C111.493 382.592 112.354 382.053 113.16 381.44L110.26 392.04L108.81 390.3ZM109.74 420.38V418.38C111.92 419.96 114.25 421.47 116.29 422.72L109.74 420.38ZM151.42 435L122.98 425C122.98 422.84 122.98 414.63 120.74 407.95C120.164 406.37 119.43 404.853 118.55 403.42C118.74 403.05 118.91 402.71 119.04 402.42C119.829 402.264 120.605 402.047 121.36 401.77C126.23 399.99 136.89 386.26 137.36 385.67C137.42 385.599 137.46 385.514 137.476 385.422C137.492 385.331 137.483 385.237 137.45 385.15C137.422 385.061 137.372 384.981 137.303 384.918C137.235 384.854 137.151 384.81 137.06 384.79C136.58 384.66 125.06 381.64 119.73 385.13C117.21 386.79 114.44 390.69 112.21 394.36L112.06 394.18L114.92 383.75L127.74 375.91C129.718 376.805 131.87 377.249 134.04 377.21C136.36 380.98 140.94 387.57 144.94 388.27C148.94 388.97 155.65 388.64 159.07 388.41L169.85 393.82C168.308 394.187 166.836 394.802 165.49 395.64C163.001 394.748 160.447 394.049 157.85 393.55C157.772 393.533 157.692 393.541 157.618 393.571C157.545 393.601 157.483 393.653 157.44 393.72C157.25 393.99 155.71 396.62 160.17 405.56C159.98 406.69 159.84 407.84 159.74 408.94C155.962 405.145 151.75 401.808 147.19 399C147.109 398.955 147.018 398.932 146.925 398.932C146.832 398.932 146.741 398.955 146.66 399C146.575 399.037 146.501 399.095 146.445 399.168C146.389 399.242 146.353 399.328 146.34 399.42C146.25 399.95 144.15 412.67 146.67 419.69C148.5 424.78 155.09 427.24 158.96 428.27H158.88C158.819 428.286 158.762 428.315 158.713 428.355C158.665 428.396 158.626 428.447 158.6 428.505C158.574 428.562 158.562 428.625 158.563 428.689C158.565 428.752 158.581 428.814 158.61 428.87C159.989 431.362 161.617 433.707 163.47 435.87L165.71 440.87L151.42 435ZM168.75 442.14L167.23 438.78C167.386 438.834 167.547 438.874 167.71 438.9C169.034 439.1 170.371 439.2 171.71 439.2C173.982 441.968 176.589 444.443 179.47 446.57L168.75 442.14ZM187.85 441.14C188.59 441.84 189.38 442.57 190.21 443.29L187.88 442.12C187.88 441.75 187.87 441.42 187.85 441.1V441.14ZM191.93 451.7L189.05 450.52C189.707 448.574 189.707 446.466 189.05 444.52L194.63 447.32L196.97 451.19C195.281 451.234 193.598 451.391 191.93 451.66V451.7ZM204.69 450C206.67 450.064 208.653 449.977 210.62 449.74C209.753 450.491 208.947 451.31 208.21 452.19L204.33 451.65L204.69 450ZM203.02 449.89L202.69 451.42L201.07 451.2C200.97 451.2 200.15 451.13 198.88 451.11L197.04 448.11C198.058 448.665 199.134 449.105 200.25 449.42C201.153 449.656 202.072 449.823 203 449.92L203.02 449.89ZM189.54 416.89C189.835 415.911 190.04 414.907 190.15 413.89L201.15 432.02C200.85 432.54 200.58 433.07 200.34 433.59L200 433.51C195.88 432.63 191 433.27 187.61 433.99L183.47 427.89C186.044 424.559 188.092 420.853 189.54 416.9V416.89ZM185.85 434.4H185.74C184.442 432.44 183.023 430.563 181.49 428.78C177.8 424.4 173.72 420.34 173.42 420.04C173.354 419.975 173.273 419.927 173.184 419.901C173.095 419.874 173.001 419.871 172.91 419.89C172.82 419.911 172.736 419.952 172.664 420.011C172.593 420.07 172.537 420.145 172.5 420.23C171.679 422.346 171.011 424.518 170.5 426.73C168.021 426.706 165.546 426.924 163.11 427.38C164.912 423.657 165.202 419.382 163.92 415.45C163.817 415.134 163.697 414.823 163.56 414.52C164.27 414.09 165.04 413.58 165.85 413.01C169.001 415.941 172.533 418.433 176.35 420.42L185.85 434.4ZM183.17 402.4C180.26 405.4 177.39 409.03 177.29 411.62C177.18 414.7 179.03 419.93 180.56 423.68L177 418.4C176.73 415.07 176 407.74 174.33 403.12C174.89 400.728 174.769 398.227 173.98 395.9L181.59 399.73L183.17 402.4ZM153 361C154.85 362.12 156.22 362.84 156.7 363.08L179 395.92L161.53 387.15C161.05 385.41 159.01 378.57 155.79 374.75C155.092 373.88 154.229 373.156 153.25 372.62C151.54 371.76 148.72 371.62 145.73 371.77C148.561 368.473 151.001 364.859 153 361V361ZM125.27 369.17C125.244 369.101 125.199 369.04 125.141 368.995C125.083 368.949 125.013 368.92 124.94 368.91C124.69 368.91 122.19 368.57 119.05 368.43L119.83 365.59L126.25 336.13C127.13 336.04 129.04 335.81 131.4 335.36C132.263 337.917 133.313 340.407 134.54 342.81C137.32 348.36 141.99 352.97 146.34 356.39C142.34 356.7 137.64 357.39 134.42 359.04C129.06 361.75 127.63 369.89 127.26 373.49L115.73 380.54L116.18 378.9C119.357 375.97 122.362 372.858 125.18 369.58C125.233 369.517 125.268 369.441 125.28 369.36C125.282 369.309 125.276 369.258 125.26 369.21L125.27 369.17ZM100.85 374.89C103.08 372.39 107.85 366.79 110.1 362.43C112.223 361.193 113.956 359.384 115.1 357.21L117.57 365.36L116.75 368.36C112.56 368.36 107.96 368.73 106.01 370.45C103.71 372.45 101.19 377.45 99.51 381.12L100.85 374.89ZM94 363.48C94.16 363.2 94.29 362.88 94.43 362.58C95.23 362.79 96.14 363 97.1 363.2C97.1417 367.501 97.7674 371.777 98.96 375.91L95.36 392.39L95.27 392.33C95.7934 390.042 96.1774 387.725 96.42 385.39C97.05 379.69 97.19 373.93 97.2 373.52C97.2 373.427 97.1783 373.335 97.1366 373.252C97.095 373.168 97.0345 373.096 96.96 373.04C96.884 372.986 96.7954 372.952 96.7027 372.941C96.61 372.931 96.5161 372.944 96.43 372.98C94.334 373.826 92.3049 374.829 90.36 375.98C88.6674 374.163 86.802 372.515 84.79 371.06C88.7222 369.815 92.0218 367.099 94 363.48V363.48ZM87.77 423.19L84.23 436.11C83.9725 435.538 83.6786 434.984 83.35 434.45C81.42 431.29 77.8 428.68 75.7 427.33C76.0859 425.653 76.3665 423.953 76.54 422.24C76.63 421.43 76.71 420.61 76.77 419.82C77.4588 420.322 78.1918 420.761 78.96 421.13C81.7556 422.299 84.7261 422.995 87.75 423.19H87.77ZM79.39 381.89C79.458 382.04 79.5383 382.184 79.63 382.32C80.4078 383.432 81.2668 384.485 82.2 385.47C81.7492 389.019 81.7492 392.611 82.2 396.16L78 385.3L79.39 381.89ZM49 389.18C52.1532 386.346 54.8514 383.045 57 379.39C57.6953 377.951 58.2254 376.438 58.58 374.88L59.27 374.25C61.1194 372.441 62.2675 370.035 62.51 367.46C62.6389 366.259 62.6187 365.046 62.45 363.85L69.28 368.95L80.42 397.76C78.9049 398.584 77.466 399.542 76.12 400.62C76.2467 396.714 75.9111 392.807 75.12 388.98C75.1093 388.914 75.0815 388.851 75.0395 388.798C74.9974 388.746 74.9425 388.705 74.88 388.68C74.8193 388.65 74.7526 388.634 74.685 388.634C74.6173 388.634 74.5506 388.65 74.49 388.68C74.16 388.9 66.34 394.2 63.88 399.08C61.88 403.02 64.61 408.44 65.95 410.72L62.22 419.89L58.14 409.33L49 389.18Z" fill="black"/>
<path opacity="0.12" d="M472.57 397.23C469.247 398.198 465.837 398.841 462.39 399.15L455.31 404.43C457.173 404.521 458.976 405.123 460.52 406.17C463.92 408.53 465.6 418.65 465.67 419.08C465.688 419.149 465.686 419.222 465.663 419.29C465.64 419.358 465.597 419.417 465.54 419.46C465.486 419.504 465.423 419.535 465.355 419.551C465.288 419.566 465.217 419.566 465.15 419.55C464.89 419.47 458.6 417.67 454.91 414.08C453.555 412.745 452.716 410.974 452.54 409.08C452.432 408.203 452.432 407.317 452.54 406.44L447.54 410.18L436.89 437.75C437.437 437.445 438.001 437.171 438.58 436.93C443.5 434.93 450.58 435.93 450.86 435.93C450.926 435.942 450.988 435.968 451.042 436.008C451.096 436.048 451.14 436.1 451.17 436.16C451.202 436.22 451.219 436.287 451.219 436.355C451.219 436.423 451.202 436.49 451.17 436.55C450.95 436.94 445.55 446.02 440.46 448.41C435.37 450.8 426.55 449.94 426.18 449.91C426.108 449.902 426.038 449.876 425.979 449.834C425.92 449.792 425.872 449.736 425.84 449.67C425.83 449.627 425.83 449.583 425.84 449.54C425.828 449.441 425.853 449.341 425.91 449.26L429.73 443.92C431.149 442.196 432.767 440.645 434.55 439.3L435.87 435.9C434.122 434.692 432.492 433.323 431 431.81C431 435.32 430.67 439.81 429.18 442.57C426.51 447.5 418.9 452.07 418.58 452.26C418.518 452.297 418.447 452.317 418.375 452.317C418.303 452.317 418.232 452.297 418.17 452.26C418.126 452.23 418.088 452.192 418.059 452.147C418.029 452.103 418.01 452.052 418 452V452L417.9 445.43C418.02 443.2 418.403 440.991 419.04 438.85L418.04 435.33C416.25 435.38 412.17 435.33 409.42 434.33C406.67 433.33 401.35 427 398.94 424C396.99 425.38 395.54 426.25 395.39 426.34C395.309 426.39 395.217 426.418 395.123 426.422C395.028 426.426 394.934 426.407 394.849 426.365C394.764 426.323 394.691 426.26 394.637 426.182C394.583 426.104 394.55 426.014 394.54 425.92V425.87L394.49 422.71L357.64 435.65L365.84 437.06C365.923 437.026 366.017 437.026 366.1 437.06C366.172 437.078 366.238 437.116 366.29 437.17L376.91 439C378.7 437.61 387.05 431.34 392.2 432.23C397.81 433.23 407.51 444.81 407.92 445.31C407.974 445.377 408.012 445.454 408.033 445.537C408.053 445.62 408.056 445.706 408.04 445.79C408.019 445.873 407.98 445.951 407.927 446.018C407.873 446.085 407.806 446.14 407.73 446.18C407.19 446.43 394.63 452.28 389.63 449.79C386.05 448 380.79 443.72 378.17 441.5L366.91 439.56C366.97 439.86 367.04 440.18 367.11 440.56C368.324 442.264 369.128 444.225 369.46 446.29C369.567 448.304 369.165 450.313 368.29 452.13C368.249 453.241 368.043 454.339 367.68 455.39H353.61C353.78 454.7 353.97 454.02 354.2 453.39C354.764 451.893 355.495 450.464 356.38 449.13C356.38 448.82 356.38 448.51 356.38 448.2C356.427 445.621 357.383 443.142 359.08 441.2C359.859 440.28 360.753 439.463 361.74 438.77L353.33 437.32L324.75 449C325.19 450.665 325.487 452.365 325.64 454.08C328.394 451.308 331.465 448.872 334.79 446.82C334.849 446.79 334.914 446.775 334.98 446.775C335.046 446.775 335.111 446.79 335.17 446.82C335.232 446.848 335.287 446.891 335.328 446.945C335.37 446.999 335.398 447.063 335.41 447.13C335.838 449.869 336.059 452.637 336.07 455.41H287.93C288.1 453.01 288.37 450.65 288.58 449.06C286.23 448.6 284.58 448.15 284.43 448.06C284.335 448.031 284.25 447.978 284.182 447.906C284.113 447.834 284.065 447.746 284.04 447.65C284.018 447.564 284.017 447.474 284.036 447.387C284.055 447.3 284.094 447.219 284.15 447.15L290.56 440.89C290.64 440.83 291.23 440.31 292.2 439.57C291.05 434.84 293.71 426.99 294.73 424.24C294.305 423.557 293.928 422.845 293.6 422.11C291.6 417.35 294.17 400.17 294.29 399.44C294.303 399.337 294.344 399.24 294.41 399.16C294.466 399.097 294.534 399.046 294.61 399.01C294.691 398.965 294.782 398.942 294.875 398.942C294.968 398.942 295.059 398.965 295.14 399.01C295.57 399.28 305.69 405.57 306.81 411.83C307.38 414.96 306.32 420.02 305.11 424.31L311.11 414.36L308 399.61C305.932 398.735 304.076 397.426 302.558 395.771C301.04 394.117 299.895 392.155 299.2 390.02C296.56 382.51 302.63 367.46 302.89 366.83C302.91 366.772 302.941 366.717 302.98 366.67C303.06 366.577 303.169 366.514 303.29 366.49C303.38 366.469 303.474 366.47 303.563 366.495C303.652 366.519 303.734 366.566 303.8 366.63C304.19 367.01 313.43 375.99 315.58 383.14C317.3 388.89 312.38 395.53 310.02 398.28L312.85 411.49L313.73 410.04C313.653 405.7 313.837 401.358 314.28 397.04C314.284 396.956 314.316 396.875 314.37 396.81C314.412 396.759 314.468 396.721 314.53 396.7C314.599 396.672 314.674 396.663 314.748 396.673C314.822 396.684 314.892 396.714 314.95 396.76C315.14 396.92 317.08 398.52 319.35 400.71L320.87 398.19L337.82 373.25C336.5 371.53 331.64 364.92 329.49 358.25C327.03 350.6 328.95 332 329.03 331.25C329.041 331.139 329.087 331.034 329.16 330.95C329.22 330.881 329.295 330.826 329.38 330.79C329.474 330.752 329.577 330.74 329.677 330.756C329.778 330.772 329.872 330.815 329.95 330.88C330.6 331.41 345.95 344.04 346.21 351.09C346.36 355.28 343.84 362.42 341.75 367.55L346.65 360.34C347.11 354.81 348.55 341.19 351.91 336.01C352.102 335.711 352.312 335.423 352.54 335.15C354.389 333.207 356.623 331.671 359.1 330.64C351.83 325.84 341.81 314.16 341.34 313.64C341.268 313.551 341.223 313.443 341.21 313.33C341.193 313.183 341.235 313.035 341.327 312.919C341.419 312.803 341.553 312.728 341.7 312.71C342.54 312.61 362.26 310.16 367.55 314.83C370.7 317.61 374.14 324.35 376.43 329.39L374.57 320.87C370.87 316.73 361.99 306.31 360.57 300.31C360.481 299.965 360.417 299.614 360.38 299.26C359.53 291.58 367.64 279.1 368 278.55C368.061 278.46 368.145 278.389 368.244 278.345C368.343 278.301 368.453 278.285 368.56 278.3C369 278.37 373.07 279.3 377.74 292.19C382.23 304.6 377.74 320.27 377.2 322.19L385.65 360.94L391.31 342.22C390.38 340.68 386.82 334.49 386.31 329.52C386.15 328.418 386.218 327.295 386.51 326.22C388.17 320.77 400.87 312.57 401.41 312.22C401.482 312.171 401.566 312.14 401.653 312.129C401.74 312.119 401.828 312.129 401.91 312.16C401.989 312.189 402.061 312.235 402.12 312.296C402.179 312.357 402.223 312.43 402.25 312.51C402.44 313.07 406.7 326.26 403.61 330.92C401.4 334.25 396.51 338.92 393.99 341.27L390.49 352.81C391.817 351.945 393.276 351.303 394.81 350.91C395.875 348.484 397.125 346.144 398.55 343.91C398.595 343.845 398.657 343.794 398.73 343.762C398.802 343.731 398.882 343.719 398.96 343.73C399.28 343.73 402.26 344.47 405.67 353.86C406.62 354.51 407.55 355.2 408.42 355.86C408.257 350.538 408.721 345.214 409.8 340C409.817 339.91 409.857 339.825 409.917 339.755C409.977 339.685 410.053 339.631 410.14 339.6C410.224 339.565 410.316 339.552 410.406 339.561C410.497 339.569 410.584 339.6 410.66 339.65C411.11 339.96 421.78 347.19 425.14 353.85C427.57 358.68 424.82 365.15 422.91 368.67L422.98 368.62C423.036 368.593 423.098 368.578 423.16 368.578C423.222 368.578 423.284 368.593 423.34 368.62C423.399 368.641 423.452 368.675 423.496 368.72C423.539 368.765 423.572 368.82 423.59 368.88C424.463 371.599 425.053 374.4 425.35 377.24L427.35 382.29L433 367.81L445.33 340.3C443.74 338.84 437.79 333.18 434.5 326.94C432.01 322.23 430.57 312.44 429.87 306.15C429.51 302.96 429.35 300.67 429.33 300.4C429.321 300.299 429.341 300.198 429.387 300.108C429.433 300.018 429.503 299.942 429.59 299.89C429.676 299.839 429.775 299.812 429.875 299.812C429.975 299.812 430.074 299.839 430.16 299.89C430.9 300.3 448.22 310.06 449.7 316.95C450.59 321.05 449.36 328.51 448.2 333.95L451.76 326.01C451.25 320.49 450.29 306.82 452.68 301.14C455.68 293.99 470.94 288.29 471.59 288.05C471.69 288.01 471.8 288.002 471.905 288.025C472.01 288.048 472.106 288.102 472.18 288.18C472.51 288.49 475.18 291.67 471.32 304.81C467.57 317.46 454.68 327.42 453.05 328.64L436.82 364.83L443.49 359.83C443.519 359.742 443.575 359.665 443.65 359.61C443.713 359.57 443.786 359.55 443.86 359.55L452.5 353.11C452.71 350.85 453.92 340.48 458.11 337.36C462.68 333.96 477.78 334.91 478.41 334.96C478.497 334.965 478.581 334.989 478.657 335.03C478.733 335.072 478.799 335.13 478.85 335.2C478.896 335.272 478.925 335.353 478.936 335.438C478.946 335.523 478.937 335.609 478.91 335.69C478.73 336.25 474.33 349.4 469.07 351.31C465.32 352.68 458.59 353.54 455.18 353.92L446 360.7L446.83 361.22C448.905 361.506 450.884 362.273 452.61 363.46C454.146 364.764 455.326 366.436 456.04 368.32C457.123 369.348 457.925 370.635 458.37 372.06C458.59 373.331 458.651 374.624 458.55 375.91C458.93 377.45 459.21 378.8 459.4 379.74L459.87 378.67C459.5 374.62 458.8 364.61 460.55 360.44C462.76 355.21 473.94 351.03 474.41 350.85C474.483 350.824 474.562 350.818 474.638 350.834C474.714 350.85 474.784 350.887 474.84 350.94C475.08 351.18 477.07 353.51 474.21 363.13C471.46 372.4 462.01 379.7 460.82 380.6L448.93 407.12L460.42 398.55C460.58 396.9 461.42 389.3 464.53 387.01C467.88 384.52 478.94 385.22 479.41 385.25C479.472 385.254 479.533 385.273 479.587 385.304C479.642 385.336 479.688 385.379 479.723 385.432C479.757 385.484 479.78 385.543 479.788 385.605C479.796 385.667 479.79 385.731 479.77 385.79C479.65 386.2 476.42 395.83 472.57 397.23ZM458.57 381.6L457.88 381.38C457.69 382.47 457.48 383.52 457.28 384.49L458.57 381.6ZM437.73 420.9C438.54 423.09 438.42 426.9 438.1 430.14L441.17 422.14L437 412C436.63 411.928 436.266 411.831 435.91 411.71C435.092 412.64 434.188 413.49 433.21 414.25C432.87 414.65 432.54 415.06 432.21 415.45C434.49 416.81 436.92 418.71 437.73 420.9V420.9ZM416.4 429.26L414.77 423.32C413.88 423.37 413.01 423.4 412.18 423.41C413.788 425.206 415.203 427.167 416.4 429.26ZM415.06 403.26C414.657 402.755 414.299 402.217 413.99 401.65L413.25 404.07C413.738 403.802 414.242 403.565 414.76 403.36L415.06 403.26ZM413 399.14C412.77 398.92 412.54 398.69 412.32 398.45C412.32 399.45 412.32 400.54 412.25 401.64L413 399.14ZM395.37 390.27C397.45 387.81 398.99 386.12 399.17 385.92C399.236 385.832 399.325 385.766 399.428 385.729C399.531 385.692 399.643 385.686 399.749 385.711C399.855 385.737 399.952 385.793 400.027 385.873C400.101 385.952 400.151 386.052 400.17 386.16C401.096 389.893 401.811 393.676 402.31 397.49C403.9 395.989 405.605 394.614 407.41 393.38L405.84 386.18C401.636 385.757 397.521 384.691 393.64 383.02C392.733 382.562 391.87 382.023 391.06 381.41L393.96 392.01L395.37 390.27ZM394.44 420.35V418.35C392.27 419.93 389.93 421.44 387.89 422.69L394.44 420.35ZM352.78 435L381.23 425C381.23 422.84 381.23 414.63 383.46 407.95C384.039 406.37 384.776 404.852 385.66 403.42L385.16 402.42C384.371 402.263 383.595 402.046 382.84 401.77C377.97 399.99 367.31 386.26 366.84 385.67C366.779 385.588 366.741 385.492 366.73 385.39C366.715 385.311 366.715 385.229 366.73 385.15C366.758 385.062 366.809 384.982 366.878 384.919C366.946 384.856 367.029 384.811 367.12 384.79C367.61 384.66 379.12 381.64 384.45 385.13C386.98 386.79 389.75 390.69 391.97 394.36L392.12 394.18L389.27 383.75L376.45 375.91C374.472 376.805 372.32 377.249 370.15 377.21C367.82 380.98 363.24 387.57 359.25 388.27C355.26 388.97 348.54 388.64 345.11 388.41L334.34 393.82C335.879 394.186 337.349 394.801 338.69 395.64C341.179 394.748 343.733 394.049 346.33 393.55C346.407 393.533 346.488 393.541 346.561 393.571C346.635 393.601 346.697 393.653 346.74 393.72C346.93 393.99 348.48 396.62 344.01 405.56C344.2 406.69 344.34 407.84 344.45 408.94C348.226 405.142 352.438 401.805 357 399C357.079 398.955 357.169 398.932 357.26 398.932C357.351 398.932 357.441 398.955 357.52 399C357.605 399.037 357.679 399.095 357.735 399.168C357.791 399.242 357.827 399.328 357.84 399.42C357.93 399.95 360.03 412.67 357.51 419.69C355.68 424.78 349.09 427.24 345.23 428.27H345.31C345.369 428.286 345.424 428.314 345.471 428.354C345.518 428.394 345.555 428.444 345.58 428.5C345.61 428.557 345.625 428.621 345.625 428.685C345.625 428.749 345.61 428.813 345.58 428.87C344.21 431.365 342.585 433.711 340.73 435.87L338.48 440.87L352.78 435ZM335.44 442.14L336.96 438.78C336.804 438.834 336.643 438.874 336.48 438.9C335.14 439.103 333.786 439.204 332.43 439.2C330.158 441.968 327.551 444.443 324.67 446.57L335.44 442.14ZM316.34 441.14C315.61 441.84 314.81 442.57 313.98 443.29L316.31 442.12C316.32 441.75 316.32 441.42 316.34 441.1V441.14ZM312.26 451.7L315.14 450.52C314.483 448.574 314.483 446.466 315.14 444.52L309.56 447.32L307.22 451.19C308.909 451.233 310.592 451.39 312.26 451.66V451.7ZM299.51 450C297.526 450.064 295.54 449.977 293.57 449.74C294.441 450.491 295.25 451.31 295.99 452.19L299.86 451.65L299.51 450ZM301.17 449.89L301.5 451.42L303.13 451.2C303.24 451.2 304.06 451.13 305.33 451.11L307.16 448.11C306.147 448.667 305.073 449.106 303.96 449.42C303.044 449.656 302.111 449.823 301.17 449.92V449.89ZM314.65 416.89C314.358 415.911 314.157 414.906 314.05 413.89L303.05 432.02C303.347 432.529 303.618 433.053 303.86 433.59L304.2 433.51C308.33 432.63 313.2 433.27 316.59 433.99L320.74 427.89C318.157 424.561 316.103 420.854 314.65 416.9V416.89ZM318.34 434.4H318.45C319.748 432.44 321.167 430.563 322.7 428.78C326.4 424.4 330.48 420.34 330.77 420.04C330.837 419.976 330.918 419.929 331.007 419.904C331.096 419.878 331.189 419.874 331.28 419.893C331.37 419.912 331.455 419.952 331.527 420.011C331.598 420.07 331.654 420.145 331.69 420.23C332.516 422.344 333.185 424.517 333.69 426.73C336.172 426.706 338.65 426.924 341.09 427.38C339.285 423.659 338.991 419.383 340.27 415.45C340.37 415.14 340.51 414.83 340.64 414.52C339.93 414.09 339.15 413.58 338.34 413.01C335.191 415.943 331.659 418.436 327.84 420.42L318.34 434.4ZM321.02 402.4C323.93 405.4 326.81 409.03 326.9 411.62C327.01 414.7 325.16 419.93 323.64 423.68L327.23 418.4C327.51 415.07 328.23 407.74 329.9 403.12C329.343 400.727 329.467 398.226 330.26 395.9L322.64 399.73L321.02 402.4ZM351.21 361C349.35 362.12 347.99 362.84 347.51 363.08L325.21 395.88L342.68 387.11C343.17 385.37 345.2 378.53 348.43 374.71C349.122 373.838 349.983 373.114 350.96 372.58C352.68 371.72 355.49 371.58 358.49 371.73C355.651 368.451 353.208 364.85 351.21 361ZM378.93 369.17C378.958 369.1 379.005 369.039 379.064 368.993C379.124 368.948 379.195 368.919 379.27 368.91C379.51 368.91 382.01 368.57 385.16 368.43L384.38 365.59L378 336.17C377.11 336.08 375.21 335.85 372.84 335.4C371.981 337.958 370.932 340.449 369.7 342.85C366.92 348.4 362.26 353.01 357.91 356.43C361.91 356.74 366.6 357.43 369.82 359.08C375.19 361.79 376.61 369.93 376.98 373.53L388.51 380.58L388.06 378.94C384.882 376.01 381.877 372.898 379.06 369.62C379.01 369.557 378.979 369.48 378.97 369.4C378.942 369.341 378.928 369.276 378.93 369.21V369.17ZM403.35 374.89C401.13 372.39 396.35 366.79 394.11 362.43C391.985 361.195 390.252 359.386 389.11 357.21L386.64 365.36L387.46 368.36C391.65 368.36 396.26 368.73 398.2 370.45C400.51 372.45 403.03 377.45 404.7 381.12L403.35 374.89ZM410.21 363.44C410.054 363.148 409.914 362.847 409.79 362.54C408.98 362.75 408.08 362.96 407.11 363.16C407.069 367.461 406.447 371.736 405.26 375.87L408.85 392.35L408.95 392.29C408.417 390.004 408.033 387.686 407.8 385.35C407.16 379.65 407.02 373.89 407.01 373.48C407.01 373.387 407.032 373.295 407.073 373.212C407.115 373.128 407.175 373.056 407.25 373C407.326 372.947 407.415 372.913 407.507 372.903C407.6 372.892 407.694 372.905 407.78 372.94C409.879 373.787 411.911 374.79 413.86 375.94C415.549 374.123 417.411 372.475 419.42 371.02C415.495 369.785 412.196 367.084 410.21 363.48V363.44ZM416.45 423.15L420 436.11C420.257 435.538 420.551 434.984 420.88 434.45C422.81 431.29 426.43 428.68 428.54 427.33C428.149 425.653 427.869 423.953 427.7 422.24C427.6 421.43 427.53 420.61 427.46 419.82C426.771 420.322 426.038 420.761 425.27 421.13C422.465 422.303 419.484 422.999 416.45 423.19V423.15ZM424.83 381.85C424.758 381.998 424.678 382.141 424.59 382.28C423.812 383.392 422.953 384.445 422.02 385.43C422.466 388.979 422.466 392.571 422.02 396.12L426.22 385.26L424.83 381.85ZM455.18 389.14C452.045 386.305 449.367 383.003 447.24 379.35C446.541 377.912 446.007 376.399 445.65 374.84L444.97 374.21C443.122 372.399 441.971 369.995 441.72 367.42C441.594 366.218 441.617 365.006 441.79 363.81L435 369L423.86 397.81C425.378 398.63 426.817 399.587 428.16 400.67C428.039 396.764 428.374 392.858 429.16 389.03C429.173 388.963 429.202 388.9 429.246 388.847C429.29 388.795 429.346 388.754 429.41 388.73C429.469 388.7 429.534 388.685 429.6 388.685C429.666 388.685 429.731 388.7 429.79 388.73C430.12 388.95 437.94 394.25 440.4 399.13C442.4 403.07 439.68 408.49 438.33 410.77L442.06 419.94L446.15 409.38L455.18 389.14Z" fill="black"/>
<path d="M182.61 371.29L157.06 364.86C157.06 364.86 143 343.4 141 340.65C139 337.9 125.11 330.77 120.22 328.83C115.33 326.89 98.6599 325.34 96.3099 328.67C93.9599 332 98.1699 333.02 99.7899 333.56L103.04 334.64C103.04 334.64 96.0399 334.74 92.4199 338.14C88.7999 341.54 89.0899 346.31 92.2599 346.14C95.4299 345.97 100.42 344.06 101.69 343.98C102.96 343.9 111.87 349.1 111.87 349.1L114.28 352.15C114.28 352.15 105.1 353.01 102.63 354.44C100.16 355.87 91.8399 360.5 94.8199 362.23C97.7999 363.96 105.53 360.32 105.53 360.32L116.8 362.19C116.8 362.19 124.5 373.84 127.45 375.25C130.4 376.66 141.07 379.25 142.7 379.76C144.33 380.27 190.63 414.16 190.63 414.16L200.51 376.93L182.61 371.29Z" fill="white" stroke="#263238" stroke-linecap="round" stroke-linejoin="round"/>
<path d="M196.17 375.1L181.66 406.87L187.75 411.87L196.17 375.1Z" fill="#263238" stroke="#263238" stroke-linecap="round" stroke-linejoin="round"/>
<path d="M144.49 346.49L134.92 341C134.92 341 128.44 339.16 126.16 338.34C123.88 337.52 123.16 340.75 124.24 343.55C125.32 346.35 128.36 348.4 130.99 349.84C132.955 350.82 135.034 351.553 137.18 352.02C137.18 352.02 137.02 365.41 138.76 367.85C140.5 370.29 145.67 371.58 145.67 371.58" stroke="#263238" stroke-linecap="round" stroke-linejoin="round"/>
<path d="M112.46 327.7C112.46 327.7 108.46 329.22 109.55 332.34C110.64 335.46 114.88 336.16 116.79 336.04C118.7 335.92 123.68 339.46 123.68 339.46" stroke="#263238" stroke-linecap="round" stroke-linejoin="round"/>
<path d="M103 334.64L112.77 338.2L120.9 346.31" stroke="#263238" stroke-linecap="round" stroke-linejoin="round"/>
<path d="M116.91 348.78L124.24 343.56" stroke="#263238" stroke-linecap="round" stroke-linejoin="round"/>
<path d="M186.68 348.75L179.04 370.23L205.05 378.87L186.67 343.33L186.68 348.75Z" fill="#006FCB" stroke="#263238" stroke-linecap="round" stroke-linejoin="round"/>
<path d="M196.17 375.1C196.25 376.48 184.36 431.19 179.05 455.58H317.38L300.88 379.49C300.88 379.49 323.71 296.16 324.59 286.05C325.47 275.94 319.4 263.58 313.79 258.88C308.18 254.18 277.17 250.12 256.23 251.38C235.29 252.64 214.79 255.93 207.78 262.56C200.77 269.19 197.78 283.28 197.78 283.28C197.78 283.28 177.24 330.67 183.69 344.48C190.14 358.29 196.07 373.33 196.17 375.1Z" fill="#006FCB" stroke="#263238" stroke-linecap="round" stroke-linejoin="round"/>
<path d="M213.4 168.43C213.4 168.43 201 168.87 195.4 164.18C189.8 159.49 191.3 145.18 192.76 139.78C194.22 134.38 197.36 127.67 205.76 125.09C214.16 122.51 226.52 120.89 232.71 115.49C238.9 110.09 246.55 104.6 259.71 106.18C272.87 107.76 308.65 123.08 313.02 151.52C317.39 179.96 314.02 183.42 316.72 188.58C319.42 193.74 342.84 214.83 344 229.26C345.16 243.69 336.64 249.53 331.43 251.61C326.22 253.69 310.95 255.5 310.11 256.14C309.27 256.78 295.94 246.93 276.01 245.14C256.08 243.35 244.93 244.92 235.66 248.14C226.39 251.36 217.58 260.47 213.08 254.53C208.58 248.59 202.18 231.21 211.95 212.87C216.23 204.82 213.95 197.07 214.02 188.19C214.09 179.31 213.4 168.43 213.4 168.43Z" fill="#263238" stroke="#263238" stroke-linecap="round" stroke-linejoin="round"/>
<path d="M298.62 206.46C298.62 206.46 306.57 215.07 298.29 221.77C290.01 228.47 285.68 232 285.68 232" stroke="#7D7D7D" stroke-linecap="round" stroke-linejoin="round"/>
<path d="M270.69 140.35C270.69 140.35 279.27 138.6 285.22 155.19C291.17 171.78 312.22 185.39 312.22 185.39" stroke="#7D7D7D" stroke-linecap="round" stroke-linejoin="round"/>
<path d="M286 175.8C286 175.8 322 203.8 328.36 213.8C334.72 223.8 333.25 240.37 319.23 247.8" stroke="#7D7D7D" stroke-linecap="round" stroke-linejoin="round"/>
<path d="M261.21 133.89C261.21 133.89 275.5 124 287 122" stroke="#7D7D7D" stroke-linecap="round" stroke-linejoin="round"/>
<path d="M252.37 131.12L230.37 135.12C222.395 136.524 214.824 139.657 208.19 144.3C204.11 147.2 200.57 150.63 199.97 154.07C198.43 162.85 205.45 162.84 205.45 162.84" stroke="#7D7D7D" stroke-linecap="round" stroke-linejoin="round"/>
<path d="M212.76 132.25C212.76 132.25 214 126 232.52 124C243.961 122.917 255.504 123.933 266.58 127" stroke="#7D7D7D" stroke-linecap="round" stroke-linejoin="round"/>
<path d="M220.09 255.61L218.52 278.78L232.92 267.27L220.09 255.61Z" fill="#263238" stroke="#263238" stroke-linecap="round" stroke-linejoin="round"/>
<path d="M242.5 283.86L220.09 255.61L232.57 246.58L242.5 283.86Z" fill="#006FCB" stroke="#263238" stroke-linecap="round" stroke-linejoin="round"/>
<path d="M233.54 232.57C233.54 232.57 232.62 260.48 234.22 267.48C235.82 274.48 240.8 285.14 242.49 283.86C244.18 282.58 279.93 236.94 279.93 236.94C279.93 236.94 278.37 225.79 277.93 219.01C277.49 212.23 277.1 205.15 277.1 205.15C277.1 205.15 273 215.46 265 220.37C257 225.28 238.91 234.37 236.87 234.78C234.83 235.19 233.54 232.57 233.54 232.57Z" fill="white" stroke="#263238" stroke-linecap="round" stroke-linejoin="round"/>
<path d="M211.29 157.9C211.29 157.9 211.55 182.15 209.64 189.66C207.73 197.17 207.73 207.23 211.92 212.9C216.11 218.57 230.54 242.26 235.33 243.16C240.12 244.06 246.67 239.82 250.1 237.84C253.53 235.86 272.51 226.73 275.44 221.23C278.37 215.73 280.73 205.82 280.73 205.82C280.73 205.82 282.64 208.08 286.96 206.04C288.219 205.465 289.326 204.604 290.194 203.526C291.062 202.448 291.667 201.183 291.96 199.83C291.96 199.83 274.66 177.78 267.52 162.23C260.38 146.68 258.98 138.23 258.98 138.23C258.98 138.23 251.63 143.99 243.08 144.5C234.53 145.01 230.14 140.84 221.63 146.97C213.12 153.1 211.29 157.9 211.29 157.9Z" fill="white" stroke="#263238" stroke-linecap="round" stroke-linejoin="round"/>
<path d="M232.2 166.12C233.453 170.532 234.412 175.021 235.07 179.56C235.7 185.14 227.95 195.29 229.07 197.08C231.71 201.52 236.74 201.65 238.16 200.68" stroke="#263238" stroke-linecap="round" stroke-linejoin="round"/>
<path d="M247.75 178.8C248.539 178.115 249.476 177.62 250.487 177.355C251.497 177.09 252.556 177.061 253.58 177.27C255.904 177.826 257.966 179.164 259.42 181.06" stroke="#263238" stroke-linecap="round" stroke-linejoin="round"/>
<path d="M228.84 179.34C228.84 179.34 222.35 174.7 217.97 180.58" stroke="#263238" stroke-linecap="round" stroke-linejoin="round"/>
<path d="M231.25 160.26C231.25 160.26 232.82 161.64 229.42 164.26C226.02 166.88 217.12 166.48 216.49 170.66" stroke="#263238" stroke-width="2" stroke-linecap="round" stroke-linejoin="round"/>
<path d="M242.53 160.77C242.53 160.77 243.35 164.56 245.15 165.05C246.95 165.54 254.36 165.68 258.02 167.53L261.68 169.38" stroke="#263238" stroke-width="2" stroke-linecap="round" stroke-linejoin="round"/>
<path d="M243.94 219C243.94 219 241 209.41 234.6 211.28C228.2 213.15 229.91 221.91 231.96 226.52C234.01 231.13 239.61 230.8 242.16 228.87C244.71 226.94 243.94 219 243.94 219Z" fill="#263238" stroke="#263238" stroke-linecap="round" stroke-linejoin="round"/>
<path d="M235.8 229.89C236.869 230.2 237.992 230.271 239.091 230.098C240.19 229.925 241.238 229.513 242.16 228.89C244.71 226.97 243.94 219.02 243.94 219.02C238.09 220.55 236.33 226.42 235.8 229.89Z" fill="white" stroke="#263238" stroke-linecap="round" stroke-linejoin="round"/>
<path d="M243.75 260.41L242.5 283.86L254.56 272.78L243.75 260.41Z" fill="#263238" stroke="#263238" stroke-linecap="round" stroke-linejoin="round"/>
<path d="M243.75 260.41L260.24 288.71L290.38 248.45L281.62 230.63L243.75 260.41Z" fill="#006FCB" stroke="#263238" stroke-linecap="round" stroke-linejoin="round"/>
<path d="M331.04 388.93L305.47 386.91L310.14 375.98L331.04 388.93Z" fill="#263238" stroke="#263238" stroke-linecap="round" stroke-linejoin="round"/>
<path d="M295.24 285.14L280.66 343.14C280.66 343.14 273.14 350.99 273.19 351.87C273.24 352.75 287.01 365.25 289.19 366.87C291.37 368.49 314.91 381.31 314.91 381.31L331 388.93C331 388.93 340.75 344.26 340.24 315.88C339.73 287.5 337.97 263.05 334.67 257.33C331.37 251.61 312.96 250.64 306.6 253.1C302.842 254.531 299.28 256.433 296 258.76" fill="#006FCB"/>
<path d="M295.24 285.14L280.66 343.14C280.66 343.14 273.14 350.99 273.19 351.87C273.24 352.75 287.01 365.25 289.19 366.87C291.37 368.49 314.91 381.31 314.91 381.31L331 388.93C331 388.93 340.75 344.26 340.24 315.88C339.73 287.5 337.97 263.05 334.67 257.33C331.37 251.61 312.96 250.64 306.6 253.1C302.842 254.531 299.28 256.433 296 258.76" stroke="#263238" stroke-linecap="round" stroke-linejoin="round"/>
<path d="M207.9 239.77C207.9 239.77 211.31 247.26 212.9 249.23C214.49 251.2 213.8 264.23 213.8 264.23L219.85 296.12L202.85 308.38L191.27 302.86C191.27 302.86 192.71 297.15 191.42 295.46C190.13 293.77 182.42 292.74 182.42 292.74L172 281.87L185.89 271.57C186.74 270.92 194.36 250.05 194.36 250.05L207.9 239.77Z" fill="white" stroke="#263238" stroke-linecap="round" stroke-linejoin="round"/>
<path d="M242.32 300.74C242.32 300.74 235.78 285.44 231.46 277.42C227.14 269.4 216.52 260.26 212.46 256.36C208.4 252.46 199 244.74 199 244.74L181.18 263C183.499 270.603 186.315 278.046 189.61 285.28C195.42 298.28 203.84 305.43 208.4 307.53C212.96 309.63 226.16 317.41 226.16 317.41C226.16 317.41 243 366.09 253.7 387.05C264.4 408.01 271.54 418.23 275.43 418.89C279.32 419.55 281.69 419.7 283.35 417.82C285.01 415.94 295.86 404.35 304.18 394.97C312.5 385.59 314.9 381.31 314.9 381.31L277.74 353.65C277.74 353.65 246.74 309.94 244.74 306.51C243.643 304.722 242.826 302.776 242.32 300.74V300.74Z" fill="white" stroke="#263238" stroke-linecap="round" stroke-linejoin="round"/>
<path d="M291.05 363.13L307.96 390.22L314.9 381.31L291.05 363.13Z" fill="#263238" stroke="#263238" stroke-linecap="round" stroke-linejoin="round"/>
<path d="M194.31 250.05L211.1 268.58" stroke="#263238" stroke-linecap="round" stroke-linejoin="round"/>
<path d="M188.11 255.16L202.94 275.57" stroke="#263238" stroke-linecap="round" stroke-linejoin="round"/>
<path d="M183.99 260.43L195.66 282.52" stroke="#263238" stroke-linecap="round" stroke-linejoin="round"/>
<path d="M207.9 239.77L169.18 280C169.18 280 160.3 250.35 158.86 246C157.42 241.65 157.03 240.19 161.03 237.88C165.03 235.57 185.98 224.55 190.18 225.48C194.38 226.41 198.58 232.38 198.93 233.25C199.28 234.12 203.93 233.54 203.93 233.54L207.9 239.77Z" fill="white" stroke="#263238" stroke-linecap="round" stroke-linejoin="round"/>
<path d="M173.14 240.79C170.28 241.08 168.05 241.27 168.05 241.27" stroke="#263238" stroke-linecap="round" stroke-linejoin="round"/>
<path d="M198.93 233.21C198.93 233.21 187.93 238 184.49 239.1C182.003 239.7 179.477 240.124 176.93 240.37" stroke="#263238" stroke-linecap="round" stroke-linejoin="round"/>
<path d="M302 208.32C302 208.32 304.34 218.5 297.64 225.11C290.94 231.72 278.25 244.02 280.64 254.83C283.03 265.64 290.12 269.94 296.07 270.47C302.02 271 309.72 266.11 309.72 266.11C309.72 266.11 303.34 258.32 306.58 253.11C309.82 247.9 325.04 248.72 328.31 234.03C331.58 219.34 323.31 210.86 318.99 208.45" fill="#263238"/>
<path d="M302 208.32C302 208.32 304.34 218.5 297.64 225.11C290.94 231.72 278.25 244.02 280.64 254.83C283.03 265.64 290.12 269.94 296.07 270.47C302.02 271 309.72 266.11 309.72 266.11C309.72 266.11 303.34 258.32 306.58 253.11C309.82 247.9 325.04 248.72 328.31 234.03C331.58 219.34 323.31 210.86 318.99 208.45" stroke="#263238" stroke-linecap="round" stroke-linejoin="round"/>
<path d="M39.22 455.58H467.43" stroke="#263238" stroke-linecap="round" stroke-linejoin="round"/>
<line x1="207.002" y1="230.087" x2="217.638" y2="225.98" stroke="#ADADAD"/>
<line x1="214.498" y1="243.138" x2="223.528" y2="236.177" stroke="#ADADAD"/>
<line x1="213.79" y1="234.339" x2="224.135" y2="229.546" stroke="#ADADAD"/>
</svg>
