<svg width="500" height="500" viewBox="0 0 500 500" fill="none" xmlns="http://www.w3.org/2000/svg">
<path d="M208.87 459.69C208.87 459.69 286.74 473.76 351.22 420.16C415.7 366.56 437.28 277.8 456.66 206.34C476.04 134.88 446.13 70.4 385.8 48.74C325.47 27.08 296.21 78.57 219.63 93.52C143.05 108.47 120.38 100.83 64.27 155.14C8.16 209.45 15 314.66 78.9 382.75C142.8 450.84 208.87 459.69 208.87 459.69Z" fill="#006FCB"/>
<path opacity="0.7" d="M208.87 459.69C208.87 459.69 286.74 473.76 351.22 420.16C415.7 366.56 437.28 277.8 456.66 206.34C476.04 134.88 446.13 70.4 385.8 48.74C325.47 27.08 296.21 78.57 219.63 93.52C143.05 108.47 120.38 100.83 64.27 155.14C8.16 209.45 15 314.66 78.9 382.75C142.8 450.84 208.87 459.69 208.87 459.69Z" fill="white"/>
<path d="M418.19 116.91C418.19 103.04 405.83 93.2 392.74 82.78C392.61 82.68 392.48 82.58 392.36 82.47C396.38 79.2717 400.232 75.8671 403.9 72.27C421.39 54.78 418 39.64 417.83 39C417.685 38.3941 417.306 37.8705 416.775 37.5442C416.245 37.2179 415.606 37.1157 415 37.26C414.391 37.4051 413.863 37.7847 413.532 38.3164C413.2 38.8481 413.092 39.4889 413.23 40.1C413.608 42.3464 413.584 44.6419 413.16 46.88H364C363.577 44.642 363.55 42.3473 363.92 40.1C364.063 39.4922 363.96 38.8525 363.633 38.3208C363.305 37.7892 362.78 37.4089 362.173 37.2634C361.566 37.1179 360.926 37.2189 360.393 37.5444C359.86 37.8699 359.478 38.3933 359.33 39C359.17 39.64 355.77 54.78 373.25 72.27C376.924 75.8648 380.779 79.2693 384.8 82.47L384.42 82.78C371.34 93.2 359 103 359 116.91C359 132.02 376.52 147.78 384.64 154.27C378.76 158.46 356.18 176.34 360.31 201.53C360.398 202.086 360.681 202.592 361.107 202.958C361.534 203.325 362.078 203.527 362.64 203.53C362.766 203.544 362.894 203.544 363.02 203.53C363.326 203.48 363.619 203.371 363.883 203.207C364.147 203.044 364.376 202.831 364.557 202.579C364.738 202.327 364.867 202.042 364.938 201.741C365.009 201.439 365.02 201.126 364.97 200.82C364.613 198.636 364.486 196.421 364.59 194.21H412.59C412.689 196.421 412.562 198.635 412.21 200.82C412.159 201.126 412.169 201.439 412.239 201.742C412.309 202.044 412.439 202.33 412.62 202.581C412.801 202.833 413.031 203.047 413.295 203.21C413.56 203.373 413.853 203.481 414.16 203.53C414.286 203.545 414.414 203.545 414.54 203.53C415.103 203.527 415.646 203.325 416.073 202.958C416.5 202.592 416.782 202.086 416.87 201.53C421.01 176.26 398.27 158.35 392.54 154.27C400.62 147.83 418.19 132.05 418.19 116.91ZM363.7 116.91C363.707 116.315 363.743 115.721 363.81 115.13H413.36C413.424 115.721 413.457 116.315 413.46 116.91C413.46 117.28 413.46 117.66 413.46 118.04H363.76C363.73 117.66 363.7 117.28 363.7 116.91ZM413.08 120.41C412.877 121.393 412.61 122.362 412.28 123.31H364.89C364.555 122.363 364.288 121.394 364.09 120.41H413.08ZM412.98 112.77H364.19C364.431 111.778 364.745 110.805 365.13 109.86H412C412.406 110.804 412.74 111.776 413 112.77H412.98ZM365.85 125.68H411.31C410.87 126.68 410.37 127.62 409.82 128.59H367.34C366.79 127.62 366.29 126.65 365.85 125.68V125.68ZM369.43 60.17H407.74C407.08 61.17 406.36 62.17 405.54 63.28H371.62C370.81 62.22 370.09 61.19 369.43 60.17V60.17ZM409.17 57.81H368C367.4 56.74 366.89 55.71 366.44 54.71H410.75C410.29 55.71 409.77 56.74 409.17 57.81V57.81ZM412.66 49.24C412.383 50.2907 412.05 51.3256 411.66 52.34H365.46C365.06 51.25 364.75 50.21 364.46 49.24H412.66ZM376.61 68.92C375.5 67.81 374.49 66.72 373.56 65.64H403.61C402.68 66.72 401.67 67.81 400.56 68.92C396.749 72.6394 392.743 76.1543 388.56 79.45C384.394 76.1532 380.405 72.6382 376.61 68.92V68.92ZM387.37 86.48L388.58 85.48L389.8 86.48C398.8 93.67 406.97 100.18 410.92 107.48H366.24C370.2 100.18 378.33 93.67 387.37 86.48ZM370.43 177.76H407.33C407.436 177.752 407.541 177.728 407.64 177.69C408.22 178.69 408.75 179.77 409.25 180.86H367.92C368.46 179.69 369.04 178.56 369.66 177.46C369.872 177.65 370.145 177.757 370.43 177.76ZM366.92 183.22H410.25C410.64 184.22 410.98 185.27 411.25 186.33H365.85C366.19 185.27 366.53 184.23 366.92 183.22ZM364.76 191.79C364.88 190.79 365.07 189.71 365.29 188.69H411.88C412.1 189.69 412.28 190.74 412.41 191.79H364.76ZM406.26 175.39H370.91C375.6 168.292 381.596 162.149 388.58 157.29H388.63C395.599 162.153 401.582 168.295 406.26 175.39V175.39ZM388.59 151.39C384 147.8 374.59 139.87 368.79 130.97H408.37C402.51 139.86 393.12 147.81 388.59 151.37V151.39Z" stroke="#787878" stroke-miterlimit="10"/>
<path d="M31.4701 309.51C34.2201 310.71 40.9301 310.56 40.9401 310.56C40.9501 310.56 39.5001 306.16 39.3701 305.9C37.8901 302.81 33.2401 297.72 29.4401 298.24C28.8131 298.342 28.2146 298.575 27.6837 298.924C27.1528 299.273 26.7013 299.729 26.3588 300.264C26.0163 300.799 25.7904 301.4 25.6959 302.029C25.6013 302.657 25.6402 303.298 25.8101 303.91C26.4401 306.54 29.1301 308.49 31.4701 309.51Z" fill="#263238"/>
<path d="M33.7901 329C36.6401 329.42 42.6301 327.68 43.1101 327.54C44.096 330.97 45.3086 334.331 46.7401 337.6C47.5701 339.5 48.4601 341.4 49.3701 343.29C48.8301 342.49 48.3701 341.78 48.2501 341.69C46.0201 339.1 40.1801 335.43 36.6601 336.92C36.0833 337.185 35.5688 337.569 35.1499 338.046C34.7309 338.524 34.417 339.083 34.2284 339.69C34.0398 340.296 33.9808 340.935 34.0552 341.566C34.1295 342.196 34.3357 342.804 34.6601 343.35C35.9601 345.72 39.0801 346.89 41.6001 347.26C44.1201 347.63 49.3001 346.26 50.6601 345.87C51.0201 346.59 51.3701 347.32 51.7301 348.04C53.4601 351.49 55.2101 354.93 56.8201 358.36C57.3901 359.57 57.9001 360.78 58.4201 361.99C57.9401 361.27 57.5201 360.68 57.4201 360.6C55.1801 358.01 49.3501 354.33 45.8201 355.83C45.2422 356.094 44.7266 356.477 44.3067 356.954C43.8869 357.431 43.5724 357.991 43.3837 358.598C43.1949 359.205 43.1363 359.845 43.2115 360.476C43.2867 361.107 43.4941 361.715 43.8201 362.26C45.1201 364.63 48.2301 365.8 50.7601 366.17C53.2901 366.54 57.9601 365.29 59.5701 364.85C60.0701 366.1 60.5701 367.35 60.9901 368.59C61.2601 369.44 61.5801 370.24 61.8001 371.11C62.0201 371.98 62.2701 372.82 62.5101 373.66C62.9001 375.3 63.3201 376.98 63.6601 378.58C63.9001 379.7 64.1201 380.76 64.3401 381.84C63.7901 380.63 62.6601 378.29 62.5401 378.1C60.7201 375.21 55.5401 370.69 51.8001 371.63C51.1845 371.799 50.6117 372.097 50.1192 372.503C49.6267 372.91 49.2256 373.416 48.9424 373.988C48.6591 374.56 48.5 375.186 48.4755 375.824C48.4509 376.462 48.5616 377.098 48.8001 377.69C49.7201 380.22 52.6201 381.85 55.0601 382.6C57.7501 383.42 63.7001 382.67 64.4401 382.6C64.8001 384.38 65.1301 386.11 65.4401 387.75C66.4401 393.43 67.0601 398.2 67.4401 401.54C67.5101 402.13 67.5601 402.66 67.6201 403.16H56.1501L57.5501 430.4H82.7901L84.1801 403.16H73.4601C73.5401 403 73.6101 402.84 73.6901 402.67C75.1701 399.6 77.2101 395.2 79.4101 389.8C80.1101 388.1 80.8301 386.27 81.5401 384.38C82.2601 384.53 88.1501 385.73 90.9001 385.11C93.3801 384.54 96.4001 383.11 97.5101 380.67C97.7918 380.101 97.9503 379.479 97.9754 378.844C98.0005 378.209 97.8915 377.576 97.6556 376.987C97.4197 376.397 97.0622 375.864 96.6064 375.421C96.1506 374.979 95.6067 374.638 95.0101 374.42C91.3901 373.2 85.8501 377.32 83.8201 380.07C83.7001 380.23 82.6001 382.13 81.9301 383.35C82.2201 382.57 82.5001 381.83 82.7901 381.03C83.3701 379.45 83.9001 377.86 84.4801 376.15L85.2401 373.61C85.5101 372.77 85.6901 371.85 85.9201 370.96C86.4101 368.89 86.8101 366.77 87.1601 364.62C88.5501 365.13 93.4801 366.84 96.0401 366.62C98.6001 366.4 101.78 365.51 103.25 363.25C103.616 362.729 103.867 362.138 103.989 361.513C104.111 360.889 104.1 360.246 103.956 359.626C103.813 359.006 103.54 358.423 103.157 357.916C102.773 357.408 102.287 356.987 101.73 356.68C98.3301 354.93 92.2301 358.16 89.8101 360.57C89.6601 360.72 88.1201 362.65 87.2901 363.72C87.4901 362.43 87.7001 361.14 87.8701 359.83C88.3401 356.03 88.7001 352.18 89.0701 348.33C89.1901 347.16 89.3101 345.99 89.4401 344.81C89.9301 345 95.7501 347.16 98.6101 346.96C101.16 346.78 104.35 345.85 105.83 343.59C106.197 343.068 106.45 342.474 106.572 341.847C106.694 341.22 106.682 340.575 106.538 339.953C106.393 339.331 106.12 338.747 105.734 338.238C105.348 337.729 104.86 337.307 104.3 337C100.9 335.25 94.8101 338.48 92.3901 340.89C92.2001 341.07 89.9901 343.84 89.4601 344.58C89.7301 341.99 90.0301 339.42 90.4601 336.9C90.978 333.486 91.7162 330.109 92.6701 326.79C92.9001 326.88 98.9601 329.17 101.9 328.96C104.44 328.78 107.63 327.85 109.11 325.59C109.476 325.069 109.727 324.478 109.849 323.853C109.971 323.229 109.96 322.586 109.816 321.966C109.673 321.346 109.4 320.763 109.017 320.256C108.633 319.748 108.147 319.327 107.59 319.02C104.19 317.27 98.0901 320.5 95.6701 322.91C95.4801 323.1 93.1001 326.08 92.6701 326.66C92.7301 326.46 92.7701 326.26 92.8301 326.07C93.8766 322.771 95.2153 319.571 96.8301 316.51C97.7001 314.8 98.6301 313.23 99.5601 311.71C100.65 312.25 105.64 314.71 108.3 314.78C110.96 314.85 114.13 314.31 115.84 312.22C116.259 311.743 116.574 311.183 116.762 310.576C116.951 309.969 117.01 309.33 116.936 308.699C116.861 308.068 116.655 307.46 116.33 306.914C116.005 306.368 115.569 305.896 115.05 305.53C111.86 303.41 105.45 305.95 102.78 308.08C102.63 308.2 101.28 309.54 100.32 310.53C100.75 309.85 101.18 309.15 101.61 308.53C103.21 306.12 104.83 304.02 106.27 302.16C107.1 301.11 107.87 300.16 108.6 299.32C109.95 299.32 115.36 299.13 117.73 298.02C120.1 296.91 122.73 294.91 123.24 292.27C123.392 291.652 123.412 291.01 123.299 290.384C123.187 289.758 122.944 289.163 122.587 288.637C122.229 288.111 121.766 287.666 121.225 287.33C120.685 286.995 120.08 286.777 119.45 286.69C115.65 286.28 111.13 291.5 109.74 294.62C109.62 294.89 108.22 299.32 108.29 299.32H108.37C107.65 300.14 106.89 301.02 106.08 302C104.59 303.83 102.93 305.91 101.27 308.3C99.4463 310.844 97.7766 313.496 96.2701 316.24C94.5653 319.293 93.1363 322.493 92.0001 325.8C92.0001 325.8 92.0001 325.88 92.0001 325.92C92.0001 324.8 92.0001 321.66 91.9401 321.42C91.5001 318.03 88.6601 311.75 84.9401 311.05C84.312 310.951 83.67 310.985 83.0561 311.151C82.4423 311.317 81.8703 311.611 81.3776 312.013C80.885 312.415 80.4827 312.916 80.1971 313.485C79.9115 314.053 79.7489 314.675 79.7201 315.31C79.5001 318 81.4501 320.69 83.3501 322.39C85.5001 324.31 91.4601 326.17 91.9301 326.31C90.8629 329.718 90.0211 333.192 89.4101 336.71C89.0501 338.71 88.7401 340.83 88.4701 342.91C88.4701 341.91 88.4701 341.07 88.4201 340.91C87.9801 337.52 85.1401 331.24 81.4201 330.54C80.7922 330.443 80.1508 330.478 79.5376 330.645C78.9244 330.811 78.3531 331.105 77.8608 331.507C77.3685 331.908 76.9662 332.409 76.6801 332.977C76.394 333.544 76.2305 334.165 76.2001 334.8C75.9801 337.49 77.9301 340.18 79.8401 341.88C81.7501 343.58 86.8401 345.29 88.1601 345.72C88.0601 346.52 87.9501 347.32 87.8601 348.12C87.4001 351.96 86.9601 355.79 86.4101 359.54C86.2201 360.86 85.9801 362.15 85.7401 363.45C85.7401 362.59 85.7401 361.86 85.7401 361.75C85.3001 358.36 82.4601 352.08 78.7401 351.38C78.1117 351.283 77.4698 351.318 76.8561 351.485C76.2423 351.651 75.6703 351.945 75.1773 352.346C74.6842 352.748 74.281 353.249 73.9938 353.816C73.7066 354.383 73.5418 355.005 73.5101 355.64C73.2901 358.33 75.2501 361.02 77.1501 362.72C79.0501 364.42 83.4401 366 85.0001 366.52C84.7201 367.84 84.4401 369.16 84.1101 370.43C83.8701 371.29 83.6901 372.13 83.4001 372.98C83.1101 373.83 82.8501 374.67 82.5901 375.5C82.0101 377.08 81.4301 378.71 80.8301 380.24C80.4201 381.3 80.0101 382.31 79.6001 383.32C79.8101 382.01 80.1601 379.44 80.1601 379.22C80.1224 376.213 79.3132 373.265 77.8101 370.66C77.8217 370.325 77.7982 369.99 77.7401 369.66C77.6617 369.03 77.4514 368.423 77.1227 367.879C76.7941 367.336 76.3545 366.867 75.8327 366.505C75.3109 366.143 74.7186 365.894 74.0944 365.776C73.4702 365.658 72.8282 365.673 72.2101 365.82C68.5101 366.82 66.2101 373.3 65.9901 376.71C65.9901 376.91 66.1101 379.11 66.2201 380.49C66.0301 379.69 65.8601 378.9 65.6601 378.08C65.2701 376.44 64.8401 374.82 64.3701 373.08C64.1201 372.24 63.8701 371.4 63.6101 370.55C63.3501 369.7 63.0101 368.83 62.7201 367.96C61.9801 365.96 61.1501 363.96 60.2601 361.96C61.6901 361.62 66.7501 360.33 68.7901 358.77C70.8301 357.21 73.0001 354.7 73.0001 352C73.0162 351.365 72.8986 350.734 72.655 350.148C72.4114 349.561 72.0472 349.033 71.5861 348.596C71.125 348.16 70.5773 347.825 69.9785 347.614C69.3796 347.402 68.7431 347.319 68.1101 347.37C64.3001 347.78 61.0001 353.84 60.3101 357.19C60.3101 357.4 60.0401 359.85 59.9501 361.19C59.4001 360 58.8701 358.81 58.2801 357.63C56.5801 354.2 54.7501 350.79 52.9401 347.38L51.3001 344.24C51.8201 344.12 57.8701 342.72 60.1501 340.97C62.1501 339.42 64.3201 336.88 64.3001 334.18C64.3176 333.544 64.2011 332.912 63.9581 332.325C63.7151 331.737 63.3512 331.207 62.8899 330.769C62.4287 330.332 61.8804 329.996 61.2809 329.784C60.6814 329.572 60.044 329.489 59.4101 329.54C55.6001 329.95 52.3001 336.01 51.6101 339.36C51.6101 339.61 51.2401 343.15 51.2001 344.05C50.0101 341.74 48.8301 339.43 47.7701 337.11C46.3041 333.983 45.0447 330.762 44.0001 327.47C44.2301 327.41 50.5601 325.98 52.8901 324.19C54.8901 322.63 57.0601 320.09 57.0401 317.39C57.056 316.755 56.9384 316.123 56.6949 315.537C56.4514 314.95 56.0874 314.42 55.6265 313.983C55.1656 313.546 54.618 313.21 54.0192 312.998C53.4204 312.785 52.7836 312.701 52.1501 312.75C48.3501 313.17 45.0501 319.23 44.3601 322.57C44.3001 322.84 43.9601 326.64 43.9501 327.33C43.8901 327.14 43.8101 326.95 43.7501 326.76C42.8058 323.431 42.1599 320.024 41.8201 316.58C41.6001 314.68 41.5101 312.85 41.4501 311.07C42.6601 310.92 48.1601 310.19 50.4501 308.81C52.7401 307.43 55.0501 305.2 55.3301 302.51C55.4158 301.883 55.3689 301.244 55.1926 300.636C55.0162 300.028 54.7143 299.463 54.3063 298.979C53.8983 298.494 53.3932 298.101 52.8238 297.824C52.2543 297.547 51.633 297.392 51.0001 297.37C47.1701 297.37 43.2301 303.02 42.1701 306.27C42.1101 306.45 41.7301 308.27 41.4701 309.67C41.4701 308.86 41.4701 308.03 41.4701 307.26C41.4701 304.37 41.6601 301.72 41.8401 299.38C41.9601 298.04 42.0901 296.84 42.2201 295.72C43.3301 294.96 47.7501 291.83 49.1101 289.6C50.4701 287.37 51.5301 284.28 50.5301 281.76C50.3167 281.162 49.9798 280.615 49.5414 280.156C49.103 279.696 48.5728 279.334 47.9853 279.092C47.3979 278.851 46.7662 278.736 46.1313 278.754C45.4964 278.773 44.8725 278.925 44.3001 279.2C40.9001 280.96 40.0101 287.8 40.5701 291.2C40.5701 291.49 41.9001 295.96 41.9601 295.92H42.0301C41.8801 296.99 41.7301 298.15 41.6001 299.42C41.3601 301.77 41.1201 304.42 41.0501 307.32C40.9467 310.449 41.0235 313.58 41.2801 316.7C41.5256 320.176 42.0811 323.623 42.9401 327C42.9444 327.04 42.9444 327.08 42.9401 327.12C42.3401 326.17 40.5701 323.58 40.4101 323.4C38.1801 320.82 32.3401 317.14 28.8201 318.63C28.243 318.897 27.7283 319.281 27.3093 319.759C26.8903 320.237 26.5764 320.798 26.3879 321.405C26.1993 322.012 26.1404 322.652 26.2148 323.284C26.2893 323.915 26.4955 324.523 26.8201 325.07C28.1501 327.42 31.2701 328.59 33.7901 329ZM71.7301 379.1C73.7301 381.22 78.7301 383.7 79.3501 384.02C78.6701 385.7 77.9901 387.33 77.3501 388.85C75.0501 394.14 72.9401 398.46 71.4201 401.46C71.1101 402.06 70.8401 402.6 70.5801 403.09H70.3001C70.2201 402.51 70.1401 401.87 70.0401 401.15C69.5801 397.78 68.8501 392.98 67.7101 387.26C67.3601 385.46 66.9401 383.53 66.5001 381.56C68.2895 380.842 70.0358 380.02 71.7301 379.1V379.1Z" fill="#263238"/>
<path d="M99.4001 311C99.4601 311 100.62 306.53 100.66 306.24C101.13 302.86 100.05 296.04 96.6601 294.38C96.0805 294.118 95.4522 293.982 94.8162 293.98C94.1803 293.978 93.5511 294.11 92.9697 294.368C92.3883 294.625 91.8678 295.003 91.4423 295.475C91.0167 295.948 90.6957 296.505 90.5001 297.11C89.5701 299.65 90.7401 302.76 92.1301 304.9C93.7101 307.41 99.3901 311 99.4001 311Z" fill="#263238"/>
<path d="M127.19 298.5C126.561 298.606 125.917 298.586 125.295 298.442C124.674 298.298 124.087 298.032 123.568 297.661C123.05 297.289 122.61 296.818 122.274 296.276C121.938 295.733 121.712 295.13 121.61 294.5L114.18 250.19L123.72 248.58L131.15 292.9C131.262 293.528 131.248 294.172 131.109 294.795C130.97 295.418 130.709 296.006 130.34 296.527C129.972 297.048 129.504 297.491 128.963 297.83C128.422 298.168 127.82 298.396 127.19 298.5V298.5Z" fill="white" stroke="#263238" stroke-linecap="round" stroke-linejoin="round"/>
<path d="M127.07 268.61L117.17 268.04L121.61 294.53C121.694 295.175 121.907 295.797 122.236 296.359C122.566 296.92 123.005 297.409 123.528 297.797C124.051 298.184 124.646 298.462 125.279 298.614C125.912 298.766 126.569 298.789 127.211 298.682C127.852 298.574 128.466 298.338 129.015 297.988C129.563 297.638 130.035 297.18 130.403 296.643C130.771 296.106 131.027 295.501 131.155 294.863C131.283 294.225 131.282 293.567 131.15 292.93L127.07 268.61Z" fill="#006FCB" stroke="#263238" stroke-linecap="round" stroke-linejoin="round"/>
<path d="M125.173 246.925L112.263 249.093L113.771 258.077L126.681 255.91L125.173 246.925Z" fill="white" stroke="#263238" stroke-linecap="round" stroke-linejoin="round"/>
<path d="M143.77 347.37C143.77 347.37 112.34 314.02 106.77 308.86C101.2 303.7 99.4202 299.71 99.6202 297.38C99.8202 295.05 106.81 287.96 110.41 288.26C114.01 288.56 134.09 301.32 139.3 308C143.294 313.113 146.283 318.935 148.11 325.16C149.27 329.09 149.22 329.73 149.22 329.73L157.27 338.08L143.77 347.37Z" fill="#999999" stroke="#263238" stroke-linecap="round" stroke-linejoin="round"/>
<path d="M101.08 301.82C101.08 301.82 98.1401 296.9 99.6901 294.35C101.24 291.8 117.33 271.35 120.01 271.29C122.69 271.23 119.43 278.29 115.61 283.97C111.79 289.65 107.61 295.97 107.5 296.97C107.39 297.97 107.28 299.63 107.28 299.63" fill="#999999"/>
<path d="M101.08 301.82C101.08 301.82 98.1401 296.9 99.6901 294.35C101.24 291.8 117.33 271.35 120.01 271.29C122.69 271.23 119.43 278.29 115.61 283.97C111.79 289.65 107.61 295.97 107.5 296.97C107.39 297.97 107.28 299.63 107.28 299.63" stroke="#263238" stroke-linecap="round" stroke-linejoin="round"/>
<path d="M107.22 303.77C107.22 303.77 106.99 296.29 108.99 292.83C110.99 289.37 123.5 272.28 124.88 271.12C126.26 269.96 130.02 270.9 127.39 276.87C124.76 282.84 117.6 296.96 117.46 298.66C117.32 300.36 115.8 310.89 115.8 310.89" fill="#999999"/>
<path d="M107.22 303.77C107.22 303.77 106.99 296.29 108.99 292.83C110.99 289.37 123.5 272.28 124.88 271.12C126.26 269.96 130.02 270.9 127.39 276.87C124.76 282.84 117.6 296.96 117.46 298.66C117.32 300.36 115.8 310.89 115.8 310.89" stroke="#263238" stroke-linecap="round" stroke-linejoin="round"/>
<path d="M116 308.56C116 308.56 117.16 297.14 117.82 296.98C118.48 296.82 129.82 273.66 129.82 273.66C129.82 273.66 133.72 270.36 132.54 279.43C131.36 288.5 126 300.65 126 300.65L125.33 316.38" fill="#999999"/>
<path d="M116 308.56C116 308.56 117.16 297.14 117.82 296.98C118.48 296.82 129.82 273.66 129.82 273.66C129.82 273.66 133.72 270.36 132.54 279.43C131.36 288.5 126 300.65 126 300.65L125.33 316.38" stroke="#263238" stroke-linecap="round" stroke-linejoin="round"/>
<path d="M125.6 311.07C125.6 311.07 128.94 296.63 129.89 295.43C130.84 294.23 133.55 282.29 135.26 282.22C136.97 282.15 137.78 285.22 136.32 289.99C134.86 294.76 133.12 300.18 133.12 300.18L134.12 310.72" fill="#999999"/>
<path d="M125.6 311.07C125.6 311.07 128.94 296.63 129.89 295.43C130.84 294.23 133.55 282.29 135.26 282.22C136.97 282.15 137.78 285.22 136.32 289.99C134.86 294.76 133.12 300.18 133.12 300.18L134.12 310.72" stroke="#263238" stroke-linecap="round" stroke-linejoin="round"/>
<path d="M218.74 427.37C226.14 425.97 252.68 395.37 252.68 395.37L250.37 430.85H419.84C417.77 413.66 406.46 266.53 405.32 263.49C404.11 260.26 333.74 230.44 333.74 230.44L301.88 231.65C301.88 231.65 262 257.86 251.47 263.91C240.94 269.96 237.36 272.38 237.36 274.8C237.36 277.22 214.12 371.15 214.12 371.15L156.43 330.32L135.8 349.64L211.07 427.14C211.07 427.14 211.34 428.78 218.74 427.37Z" fill="#006FCB" stroke="#263238" stroke-linecap="round" stroke-linejoin="round"/>
<path d="M252.76 380.69L253.09 311.89" stroke="#263238" stroke-linecap="round" stroke-linejoin="round"/>
<path d="M252.68 395.37L252.73 386.78" stroke="#263238" stroke-linecap="round" stroke-linejoin="round"/>
<path d="M252.28 328.83L244.62 303.83" stroke="#263238" stroke-linecap="round" stroke-linejoin="round"/>
<path d="M214.12 371.15C217.179 376.743 218.958 382.946 219.33 389.31" stroke="#263238" stroke-linecap="round" stroke-linejoin="round"/>
<path d="M219.33 393.63C219.33 393.63 219.15 395.77 219.15 400.09" stroke="#263238" stroke-linecap="round" stroke-linejoin="round"/>
<path d="M293.73 246.29L284.06 281.29L296.4 289.29L283.4 305L300.4 376L342.4 302.67L329.73 288L348.4 283.33L344.06 240C340 228.21 334.37 226 328.4 228.33C321.84 230.85 298.06 230.63 293.73 246.29Z" fill="#006FCB" stroke="#263238" stroke-linecap="round" stroke-linejoin="round"/>
<path d="M296.73 250.63C296.73 250.63 304.06 299 304.06 317C304.06 335 303.73 338.67 303.73 338.67C303.73 338.67 323.4 287 329.06 261.67C332.401 245.915 332.059 229.601 328.06 214C328.06 214 313.4 245 296.73 250.63Z" fill="white" stroke="#263238" stroke-linecap="round" stroke-linejoin="round"/>
<path d="M328.06 214C328.06 214 313.4 245 296.73 250.67C296.73 250.67 297.11 253.16 297.73 257.2C301.97 256.79 312.08 255.58 318.32 253.08C323.92 250.84 327.96 233.08 329.91 222.38C329.455 219.553 328.837 216.755 328.06 214Z" fill="#263238" stroke="#263238" stroke-linecap="round" stroke-linejoin="round"/>
<path d="M325.72 274.39C314.99 278.93 306.01 277.61 300.21 275.58C302.1 290.23 304.06 307.65 304.06 316.96C304.06 334.96 303.73 338.63 303.73 338.63C303.73 338.63 318 301.16 325.72 274.39Z" fill="#263238" stroke="#263238" stroke-linecap="round" stroke-linejoin="round"/>
<path d="M254.49 188.55C254.49 188.55 246.49 192.98 241.49 178.31C236.49 163.64 252 136 268.05 130.15C284.1 124.3 303.76 124.06 318.71 136.51C333.66 148.96 332.55 179.42 332.55 179.42C332.55 179.42 346.95 178.59 355.25 196.3C363.55 214.01 348.05 228.97 337.53 228.69C327.01 228.41 321.53 218.69 320.37 210.15C319.21 201.61 299.89 180.25 290.2 177.76C280.51 175.27 273.59 184.12 265.84 185.76C258.09 187.4 254.49 188.55 254.49 188.55Z" fill="#263238"/>
<path d="M275.16 153C275.16 153 285.16 159.51 303.37 162.49C321.58 165.47 331.85 169.82 338.09 175.49" stroke="#616161" stroke-linecap="round" stroke-linejoin="round"/>
<path d="M279.23 142.46C279.23 142.46 294.96 150.6 312.86 149.79C330.76 148.98 342.16 162.79 342.16 162.79" stroke="#616161" stroke-linecap="round" stroke-linejoin="round"/>
<path d="M286.29 131.88C294.804 135.008 303.79 136.662 312.86 136.77C321.443 136.79 329.693 140.093 335.92 146" stroke="#616161" stroke-linecap="round" stroke-linejoin="round"/>
<path d="M264.59 155.21C264.59 155.21 261.66 157.6 251.59 167.96C241.52 178.32 244.59 186.67 244.59 186.67" stroke="#616161" stroke-linecap="round" stroke-linejoin="round"/>
<path d="M264.59 149C264.59 149 254.82 155 245.59 161.48C236.36 167.96 236.64 176.4 236.64 176.4" stroke="#616161" stroke-linecap="round" stroke-linejoin="round"/>
<path d="M268.38 137.31C262.388 139.505 256.868 142.817 252.11 147.07C243.7 154.4 239.11 159.28 239.11 159.28" stroke="#616161" stroke-linecap="round" stroke-linejoin="round"/>
<path d="M257.81 134.33C257.81 134.33 263.5 129.99 269.2 128.33C272.832 127.415 276.67 127.797 280.05 129.41C280.05 129.41 268.11 145.41 268.93 159.52" stroke="#616161" stroke-linecap="round" stroke-linejoin="round"/>
<path d="M254.49 188.55C254.49 188.55 246.49 192.98 241.49 178.31C236.49 163.64 252 136 268.05 130.15C284.1 124.3 303.76 124.06 318.71 136.51C333.66 148.96 332.55 179.42 332.55 179.42C332.55 179.42 346.95 178.59 355.25 196.3C363.55 214.01 348.05 228.97 337.53 228.69C327.01 228.41 321.53 218.69 320.37 210.15C319.21 201.61 299.89 180.25 290.2 177.76C280.51 175.27 273.59 184.12 265.84 185.76C258.09 187.4 254.49 188.55 254.49 188.55Z" stroke="#263238" stroke-linecap="round" stroke-linejoin="round"/>
<path d="M252.55 186.06C252.55 186.06 260.02 209.59 263.62 220.66C267.22 231.73 277.19 246.96 286.32 251.39C295.45 255.82 311.51 250.01 313.73 248.07C315.95 246.13 327.29 225.65 329.23 221.22C331.17 216.79 329.78 205.44 329.78 205.44C329.78 205.44 335.04 197.97 334.78 191.05C334.52 184.13 330.62 180.8 328.41 182.19C327.023 183.075 325.804 184.199 324.81 185.51C324.81 185.51 322.87 181.91 315.4 177.51C307.93 173.11 302.27 178.1 290.09 174.51C283.278 172.567 276.652 170.024 270.29 166.91C270.29 166.91 262.24 182.19 252.55 186.06Z" fill="white" stroke="#263238" stroke-linecap="round" stroke-linejoin="round"/>
<path d="M332.3 188.67C332.3 188.67 332.02 185.02 329.49 187.27C326.96 189.52 329.21 193.16 329.21 193.16C329.21 193.16 333.14 192.32 331.21 195.41" stroke="#263238" stroke-linecap="round" stroke-linejoin="round"/>
<path d="M264.12 204.06V209C265.846 209.643 267.701 209.865 269.53 209.65C271.359 209.434 273.111 208.786 274.64 207.76" stroke="#263238" stroke-linecap="round" stroke-linejoin="round"/>
<path d="M292 198.91L292.2 204.68C294.335 204.973 296.507 204.813 298.575 204.208C300.643 203.603 302.56 202.568 304.2 201.17" stroke="#263238" stroke-linecap="round" stroke-linejoin="round"/>
<path d="M261.65 198.7C261.65 198.7 265.98 195.61 276.08 198.29" stroke="#263238" stroke-width="2" stroke-linecap="round" stroke-linejoin="round"/>
<path d="M284.33 196.43C284.33 196.43 288.45 191.69 300.61 190.25" stroke="#263238" stroke-width="2" stroke-linecap="round" stroke-linejoin="round"/>
<path d="M288.81 213.74C281.62 212.08 282.17 211.81 277.19 215.96C272.21 220.11 263.35 219.56 263.35 219.56H263.28C263.4 219.92 263.51 220.28 263.62 220.62C267.22 231.7 277.19 246.92 286.32 251.35C295.45 255.78 311.51 249.97 313.73 248.03C315.213 246.236 316.525 244.308 317.65 242.27C317.857 241.712 318.027 241.14 318.16 240.56C318.99 236.68 320.65 228.1 323.97 222.29C327.29 216.48 329.78 205.4 329.78 205.4C329.78 205.4 321.78 226.4 318.43 225.61C315.08 224.82 314.83 218.41 314.83 214.81C314.83 211.21 322.31 202.91 325.08 194.6C327.85 186.29 324.8 185.47 324.8 185.47C323.14 201.52 315.11 210.94 315.11 210.94C303.76 217.07 296 215.41 288.81 213.74Z" fill="#999999" stroke="#263238" stroke-linecap="round" stroke-linejoin="round"/>
<path d="M249.23 196.3C247.07 196.18 255.87 212.36 258.36 214.85C260.85 217.34 270.27 218.45 274.97 216.24C279.67 214.03 277.74 206.55 281.62 206.24C285.5 205.93 287.71 212.88 291.31 214.24C294.91 215.6 307.08 212.85 313.45 210.09C319.82 207.33 320.09 200.09 320.09 200.09L317.6 185C317.6 185 287.43 198.52 249.23 196.3Z" stroke="#263238" stroke-linecap="round" stroke-linejoin="round"/>
<path d="M249.23 196.3C249.23 196.3 283.83 199.9 327.84 180.8" stroke="#263238" stroke-width="3" stroke-linecap="round" stroke-linejoin="round"/>
<path d="M309.85 188.83L313.45 204.89" stroke="#263238" stroke-linecap="round" stroke-linejoin="round"/>
<path d="M270.88 371.88L256.31 421.67L256.56 426.32L259.85 423.18L274.7 373C274.778 372.735 274.8 372.457 274.765 372.184C274.729 371.91 274.638 371.646 274.496 371.41C274.355 371.173 274.165 370.968 273.94 370.808C273.716 370.648 273.46 370.536 273.19 370.48C272.7 370.382 272.191 370.472 271.763 370.731C271.335 370.99 271.02 371.4 270.88 371.88V371.88Z" fill="white" stroke="#263238" stroke-linecap="round" stroke-linejoin="round"/>
<path d="M322.76 403.31C322.76 403.31 298.93 397.07 293.62 394.44C288.31 391.81 276.3 385.12 274.07 388.65C271.84 392.18 253.21 410 254.24 412.18C255.27 414.36 266.49 424.26 269 425C271.51 425.74 276.07 428.73 281.84 426.71C287.61 424.69 290.14 423.71 290.14 423.71C290.14 423.71 300.45 426.44 303.31 426.51C306.17 426.58 315.19 423.19 315.19 423.19L322 422.62L322.76 403.31Z" fill="#999999" stroke="#263238" stroke-linecap="round" stroke-linejoin="round"/>
<path d="M258.79 416.57L278.19 396.61" stroke="#263238" stroke-linecap="round" stroke-linejoin="round"/>
<path d="M263.33 421.68L280.89 404.18" stroke="#263238" stroke-linecap="round" stroke-linejoin="round"/>
<path d="M271.11 425.79L285.35 412.87" stroke="#263238" stroke-linecap="round" stroke-linejoin="round"/>
<path d="M383.19 278.42C383.19 278.42 365.77 299.82 365.61 307.48C365.45 315.14 380.41 386.05 380.41 386.05L316.85 397.16L318.6 427.45C318.6 427.45 419.45 426.84 423.49 426.53C427.53 426.22 435.97 427.61 436.84 424.4C437.71 421.19 408.26 268.73 407.5 266.7C406.683 264.922 405.303 263.462 403.573 262.548C401.843 261.633 399.86 261.314 397.93 261.64" fill="#006FCB"/>
<path d="M383.19 278.42C383.19 278.42 365.77 299.82 365.61 307.48C365.45 315.14 380.41 386.05 380.41 386.05L316.85 397.16L318.6 427.45C318.6 427.45 419.45 426.84 423.49 426.53C427.53 426.22 435.97 427.61 436.84 424.4C437.71 421.19 408.26 268.73 407.5 266.7C406.683 264.922 405.303 263.462 403.573 262.548C401.843 261.633 399.86 261.314 397.93 261.64" stroke="#263238" stroke-linecap="round" stroke-linejoin="round"/>
<path d="M380.41 386.05L404.29 382.55" stroke="#263238" stroke-linecap="round" stroke-linejoin="round"/>
<path d="M382.03 386.09L399.55 378.01" stroke="#263238" stroke-linecap="round" stroke-linejoin="round"/>
<path d="M408.16 382.84C408.16 382.84 415.33 381.76 418.92 382.12" stroke="#263238" stroke-linecap="round" stroke-linejoin="round"/>
<path d="M361.95 314.19H333.32V356.32H361.95V314.19Z" fill="white" stroke="#263238" stroke-linecap="round" stroke-linejoin="round"/>
<path d="M350.71 304.78H344.57V319.91H350.71V304.78Z" fill="#263238" stroke="#263238" stroke-linecap="round" stroke-linejoin="round"/>
<path d="M30.3301 430.76H465.67" stroke="#263238" stroke-linecap="round" stroke-linejoin="round"/>
<path d="M109.32 378.49H119V423.43C119 424.066 118.875 424.695 118.632 425.282C118.388 425.869 118.032 426.403 117.582 426.852C117.133 427.302 116.599 427.658 116.012 427.902C115.425 428.145 114.796 428.27 114.16 428.27C112.876 428.27 111.645 427.76 110.738 426.852C109.83 425.945 109.32 424.714 109.32 423.43V378.49Z" fill="white" stroke="#263238" stroke-linecap="round" stroke-linejoin="round"/>
<path d="M109.32 396.85V423.43C109.29 424.083 109.393 424.736 109.623 425.349C109.853 425.961 110.204 426.521 110.656 426.994C111.108 427.467 111.651 427.843 112.252 428.1C112.854 428.357 113.501 428.49 114.155 428.49C114.809 428.49 115.457 428.357 116.058 428.1C116.66 427.843 117.203 427.467 117.654 426.994C118.106 426.521 118.458 425.961 118.687 425.349C118.917 424.736 119.02 424.083 118.99 423.43V396.85H109.32Z" fill="#006FCB" stroke="#263238" stroke-linecap="round" stroke-linejoin="round"/>
<path d="M120.7 377.07H107.61V386.17H120.7V377.07Z" fill="white" stroke="#263238" stroke-linecap="round" stroke-linejoin="round"/>
<path d="M133 428.27C131.717 428.27 130.485 427.76 129.578 426.852C128.67 425.945 128.16 424.714 128.16 423.43V378.49H137.83V423.43C137.83 424.712 137.322 425.941 136.416 426.849C135.511 427.756 134.282 428.267 133 428.27V428.27Z" fill="white" stroke="#263238" stroke-linecap="round" stroke-linejoin="round"/>
<path d="M128.13 396.85V423.43C128.1 424.083 128.203 424.736 128.433 425.349C128.662 425.961 129.014 426.521 129.466 426.994C129.918 427.467 130.461 427.843 131.062 428.1C131.664 428.357 132.311 428.49 132.965 428.49C133.619 428.49 134.266 428.357 134.868 428.1C135.469 427.843 136.012 427.467 136.464 426.994C136.916 426.521 137.268 425.961 137.497 425.349C137.727 424.736 137.83 424.083 137.8 423.43V396.85H128.13Z" fill="#006FCB" stroke="#263238" stroke-linecap="round" stroke-linejoin="round"/>
<path d="M139.51 377.07H126.42V386.17H139.51V377.07Z" fill="white" stroke="#263238" stroke-linecap="round" stroke-linejoin="round"/>
<path d="M151.78 428.27C150.498 428.267 149.27 427.756 148.364 426.849C147.459 425.941 146.95 424.712 146.95 423.43V378.49H156.62V423.43C156.62 424.714 156.11 425.945 155.203 426.852C154.295 427.76 153.064 428.27 151.78 428.27Z" fill="white" stroke="#263238" stroke-linecap="round" stroke-linejoin="round"/>
<path d="M147 396.85V423.43C147 424.712 147.509 425.941 148.414 426.849C149.32 427.756 150.548 428.267 151.83 428.27C153.114 428.27 154.345 427.76 155.252 426.852C156.16 425.945 156.67 424.714 156.67 423.43V396.85H147Z" fill="#006FCB" stroke="#263238" stroke-linecap="round" stroke-linejoin="round"/>
<path d="M158.33 377.07H145.24V386.17H158.33V377.07Z" fill="white" stroke="#263238" stroke-linecap="round" stroke-linejoin="round"/>
<path d="M170.6 428.27C169.316 428.27 168.085 427.76 167.178 426.852C166.27 425.945 165.76 424.714 165.76 423.43V378.49H175.43V423.43C175.43 424.712 174.921 425.941 174.016 426.849C173.11 427.756 171.882 428.267 170.6 428.27V428.27Z" fill="white" stroke="#263238" stroke-linecap="round" stroke-linejoin="round"/>
<path d="M165.76 396.85V423.43C165.73 424.083 165.833 424.736 166.063 425.349C166.293 425.961 166.644 426.521 167.096 426.994C167.548 427.467 168.091 427.843 168.692 428.1C169.294 428.357 169.941 428.49 170.595 428.49C171.249 428.49 171.897 428.357 172.498 428.1C173.099 427.843 173.643 427.467 174.094 426.994C174.546 426.521 174.898 425.961 175.127 425.349C175.357 424.736 175.46 424.083 175.43 423.43V396.85H165.76Z" fill="#006FCB" stroke="#263238" stroke-linecap="round" stroke-linejoin="round"/>
<path d="M177.14 377.07H164.05V386.17H177.14V377.07Z" fill="white" stroke="#263238" stroke-linecap="round" stroke-linejoin="round"/>
<path d="M185.32 391.08H101.06V393.94H185.32V423.8H96.97V430.76H191.05V429.12V423.8V393.94V391.08H185.32Z" fill="white" stroke="#263238" stroke-linecap="round" stroke-linejoin="round"/>
<path d="M208.19 430.76H312.49V427.07C312.49 427.07 295.72 427.48 283.85 425.07C276.799 423.719 269.648 422.949 262.47 422.77C257.68 422.59 252.57 423.37 248.95 426.51C245.36 424.03 241.08 423.43 236.82 423.43C227.41 423.43 213.09 425.48 202.87 427.11C196.917 428.086 190.902 428.634 184.87 428.75V430.8L208.19 430.76Z" fill="#263238" stroke="#263238" stroke-linecap="round" stroke-linejoin="round"/>
<path d="M391.36 227.34L389.66 225.69C389.565 225.588 389.465 225.491 389.36 225.4V225.4C388.539 224.675 387.484 224.27 386.389 224.262C385.293 224.253 384.232 224.641 383.4 225.353C382.568 226.066 382.022 227.055 381.862 228.139C381.702 229.223 381.939 230.328 382.53 231.25V231.25C382.823 231.679 383.18 232.061 383.59 232.38L385.1 233.98L385.78 233.26C385.963 233.27 386.147 233.27 386.33 233.26C387.537 233.26 388.694 232.781 389.547 231.927C390.401 231.074 390.88 229.917 390.88 228.71C390.88 228.421 390.85 228.133 390.79 227.85L391.36 227.34Z" fill="#5E5E5E" stroke="#263238" stroke-linecap="round" stroke-linejoin="round"/>
<path d="M388.32 235.32C390.833 235.32 392.87 233.283 392.87 230.77C392.87 228.257 390.833 226.22 388.32 226.22C385.807 226.22 383.77 228.257 383.77 230.77C383.77 233.283 385.807 235.32 388.32 235.32Z" fill="#263238" stroke="#263238" stroke-linecap="round" stroke-linejoin="round"/>
<path d="M396.8 231.3L394.52 229.08L394.11 228.69C393.009 227.71 391.59 227.163 390.116 227.15C388.643 227.137 387.214 227.658 386.096 228.618C384.977 229.578 384.245 230.91 384.034 232.369C383.824 233.828 384.149 235.313 384.95 236.55V236.55L385 236.61C385.385 237.19 385.865 237.7 386.42 238.12L388.42 240.27L389.33 239.27C389.575 239.302 389.822 239.319 390.07 239.32C390.969 239.323 391.857 239.127 392.671 238.746C393.485 238.365 394.205 237.808 394.779 237.116C395.352 236.424 395.765 235.613 395.989 234.743C396.212 233.872 396.24 232.963 396.07 232.08L396.8 231.3Z" fill="#5E5E5E" stroke="#263238" stroke-linecap="round" stroke-linejoin="round"/>
<path d="M392.72 242C396.089 242 398.82 239.269 398.82 235.9C398.82 232.531 396.089 229.8 392.72 229.8C389.351 229.8 386.62 232.531 386.62 235.9C386.62 239.269 389.351 242 392.72 242Z" fill="#263238" stroke="#263238" stroke-linecap="round" stroke-linejoin="round"/>
<path d="M409.07 227.34L407.37 225.69C407.28 225.583 407.18 225.486 407.07 225.4C406.417 224.816 405.608 224.433 404.742 224.3C403.875 224.166 402.989 224.286 402.19 224.646C401.391 225.006 400.713 225.59 400.239 226.327C399.765 227.065 399.515 227.924 399.52 228.8C399.522 229.668 399.772 230.518 400.24 231.25V231.25C400.529 231.682 400.887 232.064 401.3 232.38L402.81 233.98L403.48 233.26C403.667 233.27 403.853 233.27 404.04 233.26C405.245 233.257 406.4 232.777 407.251 231.924C408.102 231.071 408.58 229.915 408.58 228.71C408.579 228.422 408.552 228.134 408.5 227.85L409.07 227.34Z" fill="#5E5E5E" stroke="#263238" stroke-linecap="round" stroke-linejoin="round"/>
<path d="M406.03 235.32C408.543 235.32 410.58 233.283 410.58 230.77C410.58 228.257 408.543 226.22 406.03 226.22C403.517 226.22 401.48 228.257 401.48 230.77C401.48 233.283 403.517 235.32 406.03 235.32Z" fill="#263238" stroke="#263238" stroke-linecap="round" stroke-linejoin="round"/>
<path d="M414.51 231.3L412.23 229.08L411.83 228.69C410.729 227.71 409.31 227.163 407.837 227.15C406.363 227.137 404.934 227.658 403.816 228.618C402.698 229.578 401.965 230.91 401.754 232.369C401.544 233.828 401.869 235.313 402.67 236.55V236.55L402.72 236.61C403.109 237.19 403.592 237.7 404.15 238.12L406.15 240.27L407.05 239.27C407.299 239.302 407.549 239.319 407.8 239.32C408.699 239.323 409.587 239.127 410.401 238.746C411.215 238.365 411.935 237.808 412.509 237.116C413.082 236.424 413.495 235.613 413.719 234.743C413.942 233.872 413.97 232.963 413.8 232.08L414.51 231.3Z" fill="#5E5E5E" stroke="#263238" stroke-linecap="round" stroke-linejoin="round"/>
<path d="M416.54 235.9C416.54 237.106 416.182 238.286 415.512 239.289C414.842 240.292 413.889 241.074 412.774 241.536C411.66 241.997 410.433 242.118 409.25 241.883C408.067 241.647 406.98 241.066 406.127 240.213C405.274 239.36 404.693 238.273 404.457 237.09C404.222 235.907 404.343 234.68 404.804 233.566C405.266 232.451 406.048 231.498 407.051 230.828C408.054 230.158 409.234 229.8 410.44 229.8C412.058 229.8 413.609 230.443 414.753 231.587C415.897 232.731 416.54 234.282 416.54 235.9V235.9Z" fill="#263238" stroke="#263238" stroke-linecap="round" stroke-linejoin="round"/>
<path d="M421.7 238C421.377 237.435 420.969 236.922 420.49 236.48L420.34 236.3C419.198 235.323 417.743 234.787 416.24 234.79H391.49C389.814 234.79 388.206 235.456 387.021 236.641C385.836 237.826 385.17 239.434 385.17 241.11V241.11C385.171 242.734 385.798 244.296 386.92 245.47H386.84L397.38 257.11L431.65 248.91L421.7 238Z" fill="#5E5E5E" stroke="#263238" stroke-linecap="round" stroke-linejoin="round"/>
<path d="M427.71 260.31H403C401.324 260.31 399.716 259.644 398.531 258.459C397.346 257.274 396.68 255.666 396.68 253.99V253.99C396.68 252.314 397.346 250.706 398.531 249.521C399.716 248.336 401.324 247.67 403 247.67H427.71C429.383 247.678 430.984 248.349 432.163 249.535C433.342 250.722 434.003 252.327 434 254V254C433.997 255.669 433.334 257.27 432.156 258.452C430.977 259.634 429.379 260.302 427.71 260.31V260.31Z" fill="#263238" stroke="#263238" stroke-linecap="round" stroke-linejoin="round"/>
<path d="M436.78 255.49H401.92L405.02 263.61L401.92 281H436.78C440.079 280.869 443.2 279.467 445.488 277.086C447.777 274.706 449.055 271.532 449.055 268.23C449.055 264.928 447.777 261.754 445.488 259.374C443.2 256.993 440.079 255.591 436.78 255.46V255.49Z" fill="#263238" stroke="#263238" stroke-linecap="round" stroke-linejoin="round"/>
<path d="M401.92 255.49V281C405.219 280.869 408.34 279.467 410.628 277.086C412.917 274.706 414.195 271.532 414.195 268.23C414.195 264.928 412.917 261.754 410.628 259.374C408.34 256.993 405.219 255.591 401.92 255.46V255.49Z" fill="#5E5E5E" stroke="#263238" stroke-linecap="round" stroke-linejoin="round"/>
<path d="M414.7 284C414.7 284 401.92 285.74 392.23 293.1C382.54 300.46 380.61 307.63 379.84 311.69C379.348 314.507 379.087 317.36 379.06 320.22V386.84H392.23V318.62C392.23 318.62 391.07 309.71 396.11 302.35C401.15 294.99 414.7 291.89 414.7 291.89V284Z" fill="#263238" stroke="#263238" stroke-linecap="round" stroke-linejoin="round"/>
<path d="M403.27 284C403.27 284 390.49 285.74 380.81 293.1C371.13 300.46 369.19 307.63 368.41 311.69C367.924 314.508 367.667 317.361 367.64 320.22V386.84H380.81V318.62C380.81 318.62 379.65 309.71 384.68 302.35C389.71 294.99 403.27 291.89 403.27 291.89V284Z" fill="white" stroke="#263238" stroke-linecap="round" stroke-linejoin="round"/>
<path d="M382.259 361.335C383.109 356.118 379.568 351.2 374.352 350.351C369.135 349.501 364.217 353.041 363.368 358.258C362.518 363.475 366.059 368.392 371.275 369.242C376.492 370.091 381.409 366.551 382.259 361.335Z" fill="#263238" stroke="#263238" stroke-linecap="round" stroke-linejoin="round"/>
<path d="M416.78 315.91H412.91V318.43H416.78V315.91Z" fill="#263238" stroke="#263238" stroke-linecap="round" stroke-linejoin="round"/>
<path d="M419.4 293.05H410.3V316.29H419.4V293.05Z" fill="#263238" stroke="#263238" stroke-linecap="round" stroke-linejoin="round"/>
<path d="M441.369 312.721L437.793 314.202L438.757 316.53L442.333 315.05L441.369 312.721Z" fill="#263238" stroke="#263238" stroke-linecap="round" stroke-linejoin="round"/>
<path d="M435.046 290.613L426.638 294.094L435.528 315.567L443.936 312.086L435.046 290.613Z" fill="#263238" stroke="#263238" stroke-linecap="round" stroke-linejoin="round"/>
<path d="M438.72 281.03H401.92V296.34H438.72V281.03Z" fill="#5E5E5E" stroke="#263238" stroke-linecap="round" stroke-linejoin="round"/>
<path d="M438.72 281.03H409.93V296.34H438.72V281.03Z" fill="#263238" stroke="#263238" stroke-linecap="round" stroke-linejoin="round"/>
<path d="M431.16 353.96H429.71V341.47H426.23V353.96H425.06V361.81H426.23V382.43H429.71V361.81H431.16V353.96Z" fill="#263238" stroke="#263238" stroke-linecap="round" stroke-linejoin="round"/>
<path d="M457.7 421.07H391.65V395.53C391.65 391.817 393.125 388.256 395.751 385.63C398.376 383.005 401.937 381.53 405.65 381.53H418.21C428.689 381.53 438.738 385.693 446.148 393.102C453.557 400.512 457.72 410.561 457.72 421.04L457.7 421.07Z" fill="#263238" stroke="#263238" stroke-linecap="round" stroke-linejoin="round"/>
<path d="M439.49 421.07H373.49V395.53C373.49 391.817 374.965 388.256 377.591 385.63C380.216 383.005 383.777 381.53 387.49 381.53H400C410.479 381.53 420.528 385.693 427.938 393.102C435.347 400.512 439.51 410.561 439.51 421.04L439.49 421.07Z" fill="#5E5E5E" stroke="#263238" stroke-linecap="round" stroke-linejoin="round"/>
<path d="M422.83 340.11H395.72V383.49H422.83V340.11Z" fill="#263238" stroke="#263238" stroke-linecap="round" stroke-linejoin="round"/>
<path d="M422.83 354.28H395.72V369.34H422.83V354.28Z" fill="#5E5E5E" stroke="#263238" stroke-linecap="round" stroke-linejoin="round"/>
<path d="M431.94 421.07H365.89V395.53C365.89 391.817 367.365 388.256 369.991 385.63C372.616 383.005 376.177 381.53 379.89 381.53H392.45C402.929 381.53 412.978 385.693 420.388 393.102C427.797 400.512 431.96 410.561 431.96 421.04L431.94 421.07Z" fill="#263238" stroke="#263238" stroke-linecap="round" stroke-linejoin="round"/>
<path d="M354.18 430.76C353.928 430.761 353.685 430.667 353.5 430.496C353.314 430.325 353.2 430.091 353.18 429.84L352.36 422.23H356L355.18 429.84C355.16 430.091 355.046 430.325 354.86 430.496C354.675 430.667 354.432 430.761 354.18 430.76Z" fill="#263238" stroke="#263238" stroke-linecap="round" stroke-linejoin="round"/>
<path d="M397 430.76C396.748 430.761 396.505 430.667 396.32 430.496C396.134 430.325 396.02 430.091 396 429.84L395.18 422.23H398.86L398.04 429.84C398.019 430.098 397.9 430.338 397.706 430.51C397.512 430.682 397.259 430.771 397 430.76Z" fill="#263238" stroke="#263238" stroke-linecap="round" stroke-linejoin="round"/>
<path d="M412.91 430.76C412.658 430.761 412.415 430.667 412.23 430.496C412.044 430.325 411.93 430.091 411.91 429.84L411.09 422.23H414.77L413.95 429.84C413.93 430.098 413.81 430.338 413.616 430.51C413.422 430.682 413.169 430.771 412.91 430.76V430.76Z" fill="#263238" stroke="#263238" stroke-linecap="round" stroke-linejoin="round"/>
<path d="M456.29 430.76C456.038 430.761 455.795 430.667 455.61 430.496C455.424 430.325 455.31 430.091 455.29 429.84L454.47 422.23H458.15L457.33 429.84C457.309 430.098 457.19 430.338 456.996 430.51C456.802 430.682 456.549 430.771 456.29 430.76V430.76Z" fill="#263238" stroke="#263238" stroke-linecap="round" stroke-linejoin="round"/>
<path d="M413.73 421.07H347.73V395.53C347.73 391.817 349.205 388.256 351.83 385.63C354.456 383.005 358.017 381.53 361.73 381.53H374.29C384.769 381.53 394.818 385.693 402.228 393.102C409.637 400.512 413.8 410.561 413.8 421.04L413.73 421.07Z" fill="#5E5E5E" stroke="#263238" stroke-linecap="round" stroke-linejoin="round"/>
<path d="M460.32 419.33H346.04C344.919 419.33 344.01 420.239 344.01 421.36V421.37C344.01 422.491 344.919 423.4 346.04 423.4H460.32C461.441 423.4 462.35 422.491 462.35 421.37V421.36C462.35 420.239 461.441 419.33 460.32 419.33Z" fill="white" stroke="#263238" stroke-linecap="round" stroke-linejoin="round"/>
<path d="M463.5 335.85H378.48V343.02H463.5V335.85Z" fill="white" stroke="#263238" stroke-linecap="round" stroke-linejoin="round"/>
<path d="M463.51 335.85H407.7V343.02H463.51V335.85Z" fill="#263238" stroke="#263238" stroke-linecap="round" stroke-linejoin="round"/>
<path d="M198.754 88.0212L178.485 113.407C174.739 118.099 175.506 124.938 180.197 128.684C186.173 133.456 195.078 130.727 197.355 123.426L198.219 120.656C198.732 119.014 199.545 117.481 200.619 116.137L207.312 107.754C208.354 106.449 209.648 105.368 211.117 104.576L212.126 104.032C218.842 100.41 219.678 91.1056 213.715 86.3446C209.12 82.6764 202.422 83.427 198.754 88.0212Z" stroke="#787878"/>
<path d="M200.829 90.7639L181.627 114.813C178.907 118.219 179.464 123.185 182.87 125.905C187.052 129.244 193.273 127.542 195.173 122.54L197.014 117.695C197.481 116.466 198.137 115.317 198.957 114.289L205.041 106.67C205.84 105.669 206.803 104.81 207.889 104.13L211.007 102.177C215.537 99.3391 215.907 92.8774 211.73 89.5422C208.382 86.8694 203.502 87.4164 200.829 90.7639Z" stroke="#787878"/>
<path d="M119.975 145.686L154.868 189.388C158.886 194.42 158.064 201.757 153.032 205.775C147.042 210.557 138.147 208.358 135.075 201.336L130.071 189.898C129.354 188.259 128.426 186.721 127.309 185.323L116.443 171.714C115.27 170.245 113.894 168.95 112.355 167.869L104.381 162.264C98.1088 157.856 97.8274 148.659 103.819 143.876C108.78 139.914 116.014 140.725 119.975 145.686Z" stroke="#787878"/>
<path d="M119.583 148.075L153.264 190.259C156.556 194.382 155.882 200.393 151.759 203.685C146.945 207.529 139.806 205.878 137.167 200.312L131.443 188.239C130.766 186.81 129.926 185.465 128.939 184.23L118.698 171.403C117.705 170.16 116.561 169.047 115.29 168.091L106.535 161.499C101.611 157.791 101.507 150.435 106.324 146.589C110.395 143.338 116.332 144.004 119.583 148.075Z" stroke="#787878"/>
<path d="M190.754 231.021L170.485 256.407C166.739 261.099 167.506 267.938 172.197 271.684C178.173 276.456 187.078 273.727 189.355 266.426L190.219 263.656C190.732 262.014 191.545 260.481 192.619 259.137L199.312 250.754C200.354 249.449 201.648 248.368 203.117 247.576L204.126 247.032C210.842 243.41 211.678 234.106 205.715 229.345C201.12 225.676 194.422 226.427 190.754 231.021Z" stroke="#787878"/>
<path d="M192.22 233.115L171.912 258.549C169.035 262.153 169.624 267.406 173.227 270.283C177.648 273.813 184.226 272.017 186.239 266.729L188.199 261.582C188.691 260.288 189.382 259.079 190.245 257.997L196.676 249.943C197.518 248.889 198.531 247.985 199.673 247.269L202.993 245.185C207.781 242.181 208.169 235.349 203.752 231.822C200.21 228.995 195.047 229.574 192.22 233.115Z" stroke="#787878"/>
</svg>
