<svg width="500" height="500" viewBox="0 0 500 500" fill="none" xmlns="http://www.w3.org/2000/svg">
<path d="M468.18 327.32C459 367.8 446.15 407.25 429 432.5C419.21 446.94 408 456.73 395.28 459.42C328.1 473.62 136.17 468.42 103.54 454.9C97.47 452.38 89.62 443.49 81.16 430.07C66.3 406.48 49.59 368.87 37.39 327.07C19.24 265 11.08 193.75 33.79 145.71C57.23 96.18 103.5 64.99 143.79 46.21C188.78 25.3013 239.481 20.0764 287.79 31.37C295.67 33.21 304.2 35.37 313.38 37.92C376.07 55.35 486.11 137.32 486.76 185.09C487.06 208 481.48 268.73 468.18 327.32Z" fill="#006FCB"/>
<path opacity="0.7" d="M468.18 327.32C459 367.8 446.15 407.25 429 432.5C419.21 446.94 408 456.73 395.28 459.42C328.1 473.62 136.17 468.42 103.54 454.9C97.47 452.38 89.62 443.49 81.16 430.07C66.3 406.48 49.59 368.87 37.39 327.07C19.24 265 11.08 193.75 33.79 145.71C57.23 96.18 103.5 64.99 143.79 46.21C188.78 25.3013 239.481 20.0764 287.79 31.37C295.67 33.21 304.2 35.37 313.38 37.92C376.07 55.35 486.11 137.32 486.76 185.09C487.06 208 481.48 268.73 468.18 327.32Z" fill="white"/>
<g opacity="0.15">
<path d="M430.1 392.8C431.619 393.157 433.183 393.289 434.74 393.19C434.74 393.19 433.98 391.06 433.91 390.94C433.15 389.45 430.81 387.02 428.97 387.32C428.665 387.378 428.375 387.5 428.12 387.677C427.865 387.855 427.65 388.084 427.49 388.35C427.33 388.616 427.227 388.913 427.189 389.222C427.151 389.53 427.179 389.843 427.27 390.14C427.518 390.764 427.9 391.325 428.389 391.785C428.878 392.245 429.462 392.591 430.1 392.8V392.8Z" fill="black"/>
<path d="M431.49 402.27C433.033 402.222 434.56 401.942 436.02 401.44C436.55 403.1 437.188 404.723 437.93 406.3C438.35 407.22 438.81 408.14 439.28 409.05C439.01 408.67 438.76 408.32 438.72 408.28C437.59 407.05 434.72 405.33 432.99 406.1C432.711 406.237 432.464 406.431 432.266 406.67C432.067 406.909 431.921 407.187 431.837 407.486C431.753 407.785 431.733 408.099 431.778 408.406C431.824 408.714 431.933 409.008 432.1 409.27C432.507 409.805 433.025 410.246 433.619 410.56C434.213 410.874 434.869 411.055 435.54 411.09C437.039 411.053 438.524 410.783 439.94 410.29C440.13 410.64 440.31 410.99 440.49 411.29C441.38 412.95 442.28 414.61 443.11 416.29C443.41 416.87 443.67 417.46 443.94 418.04C443.7 417.7 443.49 417.42 443.45 417.38C442.32 416.14 439.45 414.38 437.72 415.2C437.442 415.338 437.197 415.533 436.999 415.772C436.801 416.011 436.655 416.289 436.572 416.588C436.488 416.886 436.467 417.199 436.512 417.506C436.556 417.813 436.665 418.107 436.83 418.37C437.237 418.904 437.756 419.343 438.35 419.655C438.944 419.968 439.599 420.147 440.27 420.18C441.731 420.153 443.179 419.897 444.56 419.42C444.81 420.03 445.07 420.64 445.3 421.23C445.44 421.65 445.6 422.03 445.72 422.46C445.84 422.89 445.98 423.28 446.1 423.69C446.32 424.48 446.54 425.3 446.73 426.08C446.86 426.62 446.98 427.14 447.1 427.66C446.82 427.08 446.24 425.95 446.18 425.86C445.25 424.47 442.65 422.33 440.85 422.86C440.553 422.952 440.278 423.106 440.044 423.312C439.81 423.517 439.623 423.77 439.493 424.053C439.364 424.336 439.296 424.644 439.294 424.955C439.291 425.267 439.355 425.575 439.48 425.86C439.802 426.451 440.249 426.965 440.789 427.365C441.33 427.766 441.951 428.044 442.61 428.18C444.135 428.366 445.679 428.322 447.19 428.05C447.39 428.91 447.57 429.75 447.73 430.55C447.89 431.35 448 431.94 448.12 432.55H449.29C449.15 431.837 448.99 431.087 448.81 430.3C448.62 429.43 448.39 428.49 448.14 427.54C449.006 427.164 449.851 426.74 450.67 426.27C451.821 427.208 453.097 427.982 454.46 428.57C454.14 429.4 453.83 430.2 453.53 430.96C453.32 431.48 453.11 431.96 452.91 432.45H454.15C454.29 432.1 454.42 431.75 454.56 431.39C454.88 430.55 455.2 429.64 455.56 428.71C457.066 429.021 458.61 429.102 460.14 428.95C460.799 428.825 461.424 428.56 461.971 428.171C462.518 427.783 462.975 427.281 463.31 426.7C463.435 426.419 463.5 426.116 463.502 425.808C463.503 425.501 463.441 425.197 463.319 424.915C463.197 424.633 463.017 424.379 462.792 424.17C462.567 423.961 462.3 423.801 462.01 423.7C460.22 423.15 457.57 425.24 456.62 426.61C456.56 426.69 456.05 427.61 455.73 428.23C455.86 427.85 456 427.48 456.13 427.09C456.39 426.31 456.63 425.53 456.89 424.68L457.22 423.44C457.34 423.02 457.42 422.57 457.52 422.13C457.74 421.13 457.9 420.08 458.05 419.02C459.449 419.537 460.92 419.833 462.41 419.9C463.082 419.879 463.74 419.713 464.341 419.412C464.942 419.112 465.471 418.685 465.89 418.16C466.061 417.901 466.175 417.608 466.226 417.301C466.277 416.995 466.262 416.681 466.184 416.381C466.106 416.08 465.965 415.799 465.772 415.556C465.578 415.313 465.336 415.113 465.06 414.97C463.38 414.16 460.44 415.82 459.29 417.03C459.22 417.1 458.49 418.03 458.1 418.6C458.18 417.97 458.27 417.33 458.33 416.69C458.51 414.83 458.63 412.94 458.77 411.06C458.77 410.48 458.86 409.91 458.9 409.34C460.349 409.871 461.869 410.184 463.41 410.27C464.083 410.249 464.742 410.082 465.344 409.78C465.945 409.477 466.472 409.048 466.89 408.52C467.061 408.261 467.175 407.97 467.226 407.664C467.276 407.358 467.262 407.045 467.184 406.745C467.105 406.445 466.965 406.165 466.771 405.923C466.578 405.681 466.335 405.482 466.06 405.34C464.38 404.53 461.44 406.18 460.29 407.39C460.2 407.48 459.16 408.87 458.91 409.23C459.01 407.97 459.12 406.71 459.28 405.47C459.488 403.784 459.805 402.114 460.23 400.47C461.684 401.009 463.212 401.325 464.76 401.41C465.432 401.391 466.092 401.226 466.693 400.925C467.294 400.625 467.822 400.196 468.24 399.67C468.411 399.411 468.525 399.12 468.576 398.814C468.626 398.508 468.612 398.195 468.534 397.895C468.455 397.595 468.315 397.315 468.121 397.073C467.928 396.831 467.685 396.632 467.41 396.49C465.73 395.67 462.79 397.33 461.64 398.54C461.55 398.63 460.43 400.12 460.24 400.41C460.24 400.31 460.24 400.21 460.31 400.12C460.778 398.495 461.391 396.916 462.14 395.4C462.54 394.55 462.97 393.77 463.41 393.02C464.768 393.699 466.221 394.167 467.72 394.41C468.39 394.461 469.063 394.367 469.693 394.134C470.323 393.901 470.895 393.535 471.37 393.06C471.568 392.821 471.713 392.542 471.796 392.243C471.88 391.944 471.9 391.631 471.854 391.323C471.809 391.016 471.7 390.722 471.534 390.459C471.368 390.197 471.148 389.972 470.89 389.8C469.31 388.8 466.21 390.13 464.89 391.21C464.82 391.26 464.18 391.94 463.72 392.43C463.93 392.1 464.13 391.74 464.33 391.43C465.08 390.23 465.84 389.18 466.52 388.25C466.91 387.73 467.28 387.25 467.62 386.83C469.13 386.807 470.627 386.554 472.06 386.08C472.68 385.82 473.236 385.428 473.689 384.93C474.142 384.433 474.48 383.842 474.68 383.2C474.746 382.897 474.748 382.583 474.686 382.28C474.623 381.976 474.497 381.689 474.316 381.437C474.134 381.185 473.902 380.974 473.634 380.818C473.366 380.662 473.068 380.564 472.76 380.53C470.9 380.38 468.76 382.98 468.12 384.53C468.06 384.67 467.44 386.85 467.47 386.85C467.13 387.26 466.77 387.7 466.39 388.19C465.68 389.1 464.9 390.19 464.12 391.32C463.267 392.607 462.489 393.943 461.79 395.32C460.982 396.837 460.313 398.423 459.79 400.06V400.12C459.79 399.57 459.72 398.04 459.71 397.93C459.45 396.28 457.98 393.24 456.13 392.93C455.822 392.891 455.51 392.917 455.212 393.006C454.915 393.096 454.64 393.247 454.405 393.449C454.17 393.652 453.981 393.902 453.849 394.183C453.717 394.464 453.646 394.77 453.64 395.08C453.681 395.75 453.869 396.403 454.191 396.992C454.512 397.581 454.959 398.093 455.5 398.49C456.817 399.299 458.245 399.909 459.74 400.3C459.264 401.974 458.9 403.678 458.65 405.4C458.5 406.4 458.38 407.4 458.27 408.45C458.27 407.97 458.27 407.55 458.27 407.45C458.01 405.8 456.54 402.77 454.69 402.45C454.383 402.409 454.07 402.434 453.773 402.522C453.476 402.61 453.201 402.76 452.966 402.962C452.731 403.164 452.541 403.414 452.409 403.694C452.277 403.975 452.206 404.28 452.2 404.59C452.246 405.261 452.438 405.915 452.76 406.505C453.083 407.095 453.53 407.609 454.07 408.01C455.342 408.803 456.728 409.396 458.18 409.77L458.06 410.95C457.89 412.83 457.72 414.71 457.5 416.54C457.43 417.19 457.33 417.83 457.23 418.46C457.23 418.04 457.23 417.69 457.23 417.63C456.97 415.98 455.5 412.95 453.65 412.63C453.342 412.591 453.03 412.617 452.732 412.706C452.435 412.796 452.16 412.947 451.925 413.149C451.69 413.352 451.501 413.602 451.369 413.883C451.237 414.164 451.166 414.47 451.16 414.78C451.205 415.45 451.395 416.103 451.718 416.692C452.041 417.281 452.489 417.792 453.03 418.19C454.266 418.971 455.615 419.554 457.03 419.92C456.91 420.57 456.79 421.22 456.65 421.84C456.54 422.26 456.46 422.68 456.33 423.1L455.97 424.33C455.71 425.11 455.44 425.92 455.17 426.67C454.99 427.2 454.8 427.67 454.61 428.2C454.7 427.55 454.83 426.29 454.83 426.2C454.776 424.734 454.341 423.308 453.57 422.06C453.585 421.897 453.585 421.733 453.57 421.57C453.523 421.263 453.412 420.969 453.243 420.707C453.075 420.446 452.853 420.223 452.593 420.053C452.332 419.883 452.039 419.77 451.732 419.721C451.424 419.672 451.11 419.689 450.81 419.77C449.02 420.29 447.96 423.49 447.92 425.16C447.92 425.26 448.01 426.33 448.08 427.01L447.78 425.84C447.56 425.04 447.33 424.26 447.08 423.41C446.95 423.01 446.81 422.6 446.68 422.18C446.55 421.76 446.36 421.35 446.21 420.93C445.82 419.93 445.39 419 444.93 418.05C446.379 417.703 447.768 417.14 449.05 416.38C449.6 415.992 450.059 415.488 450.394 414.905C450.729 414.321 450.932 413.671 450.99 413C450.991 412.689 450.925 412.382 450.799 412.098C450.673 411.814 450.488 411.56 450.257 411.353C450.025 411.145 449.753 410.988 449.457 410.893C449.162 410.798 448.849 410.766 448.54 410.8C446.69 411.05 445.16 414.06 444.86 415.7C444.86 415.8 444.77 417 444.74 417.7C444.46 417.12 444.18 416.55 443.88 415.98C443 414.33 442.06 412.68 441.14 411.04C440.85 410.54 440.58 410.04 440.3 409.53C441.799 409.172 443.238 408.596 444.57 407.82C445.12 407.432 445.579 406.928 445.914 406.345C446.249 405.761 446.453 405.111 446.51 404.44C446.511 404.129 446.445 403.822 446.319 403.538C446.193 403.254 446.008 403 445.777 402.793C445.545 402.585 445.273 402.429 444.977 402.333C444.682 402.238 444.369 402.206 444.06 402.24C442.21 402.49 440.68 405.5 440.38 407.14C440.38 407.26 440.25 408.99 440.24 409.44C439.63 408.33 439.03 407.21 438.48 406.09C437.712 404.582 437.044 403.025 436.48 401.43C437.991 401.074 439.44 400.494 440.78 399.71C441.329 399.323 441.787 398.821 442.122 398.239C442.457 397.657 442.661 397.009 442.72 396.34C442.721 396.029 442.655 395.722 442.529 395.438C442.403 395.154 442.218 394.9 441.987 394.693C441.755 394.485 441.483 394.328 441.187 394.233C440.892 394.138 440.579 394.106 440.27 394.14C438.42 394.39 436.89 397.39 436.59 399.04C436.59 399.16 436.45 401.04 436.45 401.37C436.45 401.27 436.38 401.18 436.35 401.09C435.846 399.475 435.485 397.818 435.27 396.14C435.14 395.21 435.07 394.32 435.02 393.45C436.527 393.275 437.998 392.867 439.38 392.24C439.968 391.914 440.477 391.464 440.874 390.922C441.271 390.38 441.546 389.759 441.68 389.1C441.714 388.792 441.682 388.479 441.588 388.184C441.493 387.888 441.338 387.616 441.131 387.384C440.925 387.152 440.672 386.966 440.39 386.838C440.107 386.71 439.8 386.642 439.49 386.64C437.62 386.69 435.76 389.5 435.29 391.1C435.29 391.19 435.1 392.1 434.99 392.77C434.99 392.38 434.99 391.97 434.94 391.6C434.94 390.18 434.94 388.89 435.02 387.74C435.02 387.09 435.11 386.5 435.16 385.95C436.406 385.095 437.515 384.057 438.45 382.87C438.82 382.305 439.062 381.665 439.157 380.996C439.252 380.328 439.198 379.646 439 379C438.887 378.711 438.715 378.448 438.495 378.23C438.274 378.011 438.01 377.841 437.72 377.731C437.43 377.621 437.12 377.572 436.81 377.59C436.499 377.607 436.197 377.689 435.92 377.83C434.28 378.73 433.92 382.08 434.25 383.72C434.25 383.86 434.97 386.03 435 386.01C434.94 386.54 434.88 387.11 434.83 387.73C434.75 388.88 434.67 390.18 434.67 391.6C434.657 393.13 434.734 394.659 434.9 396.18C435.089 397.872 435.423 399.545 435.9 401.18C435.904 401.2 435.904 401.22 435.9 401.24C435.6 400.78 434.7 399.54 434.62 399.46C433.49 398.22 430.62 396.46 428.9 397.28C428.62 397.416 428.373 397.61 428.173 397.848C427.973 398.087 427.826 398.364 427.741 398.664C427.656 398.963 427.635 399.277 427.68 399.585C427.725 399.892 427.834 400.187 428 400.45C428.41 400.993 428.936 401.438 429.54 401.753C430.144 402.068 430.81 402.244 431.49 402.27V402.27Z" fill="black"/>
<path d="M463.3 392.64C463.3 392.64 463.83 390.45 463.85 390.3C464.04 388.65 463.42 385.3 461.72 384.56C461.432 384.437 461.12 384.377 460.807 384.383C460.493 384.389 460.185 384.462 459.901 384.596C459.618 384.73 459.366 384.923 459.162 385.162C458.959 385.4 458.808 385.679 458.72 385.98C458.589 386.638 458.602 387.316 458.757 387.968C458.913 388.621 459.207 389.232 459.62 389.76C460.695 390.9 461.935 391.871 463.3 392.64Z" fill="black"/>
</g>
<g opacity="0.15">
<path d="M36.64 388.53C38.17 389.15 41.85 388.97 41.85 388.97C41.85 388.97 41 386.58 40.92 386.43C40.07 384.76 37.44 382.03 35.36 382.37C35.0173 382.436 34.6924 382.574 34.4064 382.773C34.1203 382.973 33.8794 383.231 33.6993 383.53C33.5192 383.829 33.4039 384.162 33.361 384.508C33.318 384.855 33.3483 385.206 33.45 385.54C33.7339 386.239 34.1661 386.869 34.7168 387.385C35.2676 387.901 35.9237 388.292 36.64 388.53V388.53Z" fill="black"/>
<path d="M38.1999 399.17C39.7699 399.36 43.0299 398.32 43.2899 398.23C43.882 400.099 44.5969 401.926 45.4299 403.7C45.9099 404.7 46.4299 405.77 46.9599 406.79C46.6499 406.36 46.3699 405.98 46.3199 405.93C45.0599 404.54 41.7999 402.61 39.8899 403.48C39.5776 403.635 39.3013 403.853 39.0788 404.122C38.8563 404.39 38.6927 404.702 38.5984 405.038C38.5041 405.373 38.4814 405.725 38.5316 406.07C38.5818 406.415 38.7039 406.745 38.8899 407.04C39.3515 407.634 39.9367 408.12 40.6049 408.466C41.2732 408.811 42.0085 409.007 42.7599 409.04C44.4627 409.004 46.1495 408.704 47.7599 408.15L48.3799 409.32C49.3799 411.19 50.3799 413.05 51.3199 414.91C51.6499 415.57 51.9499 416.22 52.2599 416.91L51.6999 416.16C50.4399 414.78 47.1799 412.84 45.2699 413.71C44.9576 413.865 44.6813 414.083 44.4588 414.352C44.2363 414.62 44.0727 414.932 43.9784 415.268C43.8841 415.603 43.8614 415.955 43.9116 416.3C43.9618 416.645 44.0839 416.975 44.2699 417.27C44.728 417.872 45.3113 418.367 45.9796 418.721C46.6478 419.074 47.3849 419.279 48.1399 419.32C49.7782 419.285 51.401 418.995 52.9499 418.46C53.2399 419.14 53.5399 419.83 53.7899 420.46C53.9499 420.92 54.1299 421.36 54.2699 421.83L54.6899 423.22C54.9299 424.11 55.1899 425.03 55.3999 425.9C55.5499 426.51 55.6799 427.09 55.8199 427.68C55.4999 427.02 54.8199 425.75 54.8199 425.68C53.8199 424.12 50.8199 421.68 48.8199 422.29C48.4864 422.394 48.1785 422.568 47.9164 422.799C47.6542 423.03 47.4437 423.314 47.2984 423.632C47.1531 423.949 47.0764 424.294 47.0732 424.644C47.0701 424.993 47.1405 425.34 47.2799 425.66C47.6425 426.323 48.1452 426.899 48.7531 427.348C49.361 427.797 50.0595 428.109 50.7999 428.26C52.2799 428.67 55.5399 428.18 55.9399 428.11C56.1699 429.11 56.3699 430.03 56.5499 430.92C56.7299 431.81 56.8599 432.49 56.9999 433.21H58.3099C58.1499 432.41 57.9699 431.58 57.7699 430.69C57.5699 429.8 57.2899 428.69 57.0199 427.58C57.9927 427.164 58.9379 426.686 59.8499 426.15C61.1096 427.195 62.5058 428.063 63.9999 428.73C63.6499 429.66 63.2999 430.57 62.9999 431.41L62.3099 433.09H63.6999L64.1599 431.91C64.5199 430.96 64.8799 429.91 65.2499 428.91C65.6499 428.98 68.8999 429.55 70.3899 429.17C71.134 429.036 71.8395 428.739 72.4564 428.302C73.0733 427.865 73.5866 427.298 73.9599 426.64C74.106 426.323 74.1838 425.979 74.1884 425.63C74.193 425.282 74.1243 424.936 73.9866 424.615C73.849 424.295 73.6455 424.006 73.3894 423.77C73.1333 423.533 72.8302 423.352 72.4999 423.24C70.4999 422.63 67.4999 424.97 66.4399 426.51C66.3699 426.6 65.7999 427.66 65.4399 428.34C65.5899 427.91 65.7399 427.49 65.8799 427.05C66.1799 426.17 66.4499 425.29 66.7399 424.35L67.1199 422.95C67.2599 422.48 67.3399 421.95 67.4499 421.48C67.6899 420.34 67.8799 419.17 68.0499 417.98C69.6208 418.568 71.2743 418.906 72.9499 418.98C73.7084 418.953 74.4517 418.761 75.1274 418.415C75.803 418.069 76.3945 417.579 76.8599 416.98C77.0519 416.689 77.1806 416.361 77.2376 416.017C77.2947 415.673 77.2789 415.321 77.1912 414.983C77.1036 414.646 76.946 414.33 76.7287 414.058C76.5114 413.785 76.2393 413.561 75.9299 413.4C74.0299 412.49 70.7399 414.35 69.4399 415.71C69.3599 415.8 68.5399 416.87 68.0999 417.48C68.1999 416.76 68.2899 416.05 68.3599 415.33C68.5599 413.24 68.7099 411.12 68.8499 409L68.9999 407.07C69.2799 407.16 72.4999 408.26 74.0699 408.07C74.8289 408.046 75.5732 407.854 76.2493 407.509C76.9254 407.163 77.5164 406.672 77.9799 406.07C78.1719 405.779 78.3006 405.451 78.3576 405.107C78.4147 404.763 78.3989 404.411 78.3112 404.073C78.2236 403.736 78.066 403.42 77.8487 403.148C77.6314 402.875 77.3593 402.651 77.0499 402.49C75.1599 401.58 71.8599 403.44 70.5699 404.8C70.4699 404.9 69.2899 406.46 69.0099 406.87C69.1299 405.44 69.2499 404.03 69.4299 402.64C69.6648 400.759 70.0188 398.896 70.4899 397.06C70.6199 397.06 73.9799 398.27 75.5899 398.11C76.3444 398.089 77.0852 397.904 77.7606 397.567C78.436 397.231 79.0296 396.75 79.4999 396.16C79.6921 395.868 79.8209 395.539 79.878 395.195C79.9352 394.85 79.9194 394.497 79.8318 394.159C79.7442 393.82 79.5866 393.504 79.3692 393.231C79.1519 392.957 78.8796 392.732 78.5699 392.57C76.6799 391.66 73.3799 393.57 72.0799 394.88C71.9799 394.99 70.7199 396.66 70.5099 396.98C70.5099 396.88 70.5099 396.76 70.5899 396.66C71.0972 394.834 71.7665 393.057 72.5899 391.35C73.0499 390.35 73.5299 389.52 74.0199 388.68C75.5481 389.443 77.1835 389.969 78.8699 390.24C79.6227 390.3 80.3794 390.194 81.0875 389.932C81.7955 389.669 82.4379 389.256 82.9699 388.72C83.1937 388.452 83.3583 388.139 83.453 387.803C83.5476 387.467 83.5702 387.115 83.5192 386.769C83.4682 386.424 83.3448 386.093 83.1571 385.798C82.9694 385.504 82.7216 385.252 82.4299 385.06C80.6499 383.94 77.1699 385.43 75.7299 386.64C75.6599 386.71 74.9399 387.46 74.4199 388.02L75.0999 386.89C75.9499 385.54 76.7999 384.36 77.5699 383.32C78.0099 382.73 78.4199 382.21 78.8099 381.73C80.5097 381.698 82.1951 381.412 83.8099 380.88C85.0699 380.25 86.4899 379.1 86.7499 377.64C86.825 377.3 86.8277 376.948 86.7578 376.607C86.6879 376.266 86.5469 375.943 86.3441 375.66C86.1413 375.377 85.8812 375.14 85.5807 374.965C85.2802 374.789 84.946 374.678 84.5999 374.64C82.4999 374.47 80.0999 377.4 79.3799 379.13C79.3199 379.28 78.6199 381.73 78.6599 381.73C78.2799 382.19 77.8699 382.73 77.4399 383.24C76.6499 384.24 75.7699 385.43 74.8899 386.76C73.9272 388.185 73.0522 389.668 72.2699 391.2C71.38 392.908 70.6438 394.692 70.0699 396.53V396.59C70.0699 395.98 69.9899 394.26 69.9699 394.13C69.6799 392.27 68.0299 388.86 65.9699 388.54C65.6243 388.495 65.273 388.523 64.939 388.623C64.605 388.723 64.2958 388.892 64.0316 389.12C63.7674 389.347 63.5541 389.628 63.4056 389.943C63.2572 390.258 63.1768 390.602 63.1699 390.95C63.2212 391.704 63.4355 392.438 63.798 393.101C64.1606 393.764 64.6628 394.34 65.2699 394.79C66.4799 395.79 69.7699 396.74 70.0399 396.79C69.4976 398.673 69.0866 400.591 68.8099 402.53C68.6299 403.66 68.4999 404.81 68.3799 405.95C68.3799 405.42 68.3799 404.95 68.3199 404.88C68.0299 403.03 66.3799 399.62 64.3199 399.29C63.9743 399.245 63.623 399.273 63.289 399.373C62.955 399.473 62.6458 399.642 62.3816 399.87C62.1174 400.097 61.9041 400.378 61.7556 400.693C61.6072 401.008 61.5268 401.352 61.5199 401.7C61.5712 402.454 61.7855 403.188 62.148 403.851C62.5106 404.514 63.0128 405.09 63.6199 405.54C65.0464 406.443 66.6052 407.118 68.2399 407.54C68.2399 407.98 68.1499 408.42 68.1099 408.86C67.9099 410.98 67.7299 413.09 67.4799 415.15C67.3999 415.88 67.2799 416.59 67.1699 417.31C67.1699 416.84 67.1699 416.44 67.1199 416.38C66.8299 414.53 65.1799 411.11 63.1199 410.79C62.7735 410.743 62.4211 410.771 62.0859 410.87C61.7507 410.969 61.4403 411.138 61.175 411.365C60.9096 411.593 60.6954 411.874 60.5463 412.19C60.3972 412.506 60.3167 412.851 60.3099 413.2C60.3612 413.954 60.5755 414.688 60.938 415.351C61.3006 416.014 61.8028 416.59 62.4099 417.04C63.7864 417.92 65.2909 418.581 66.8699 419C66.7399 419.73 66.5999 420.46 66.4399 421.16C66.3199 421.64 66.2399 422.1 66.0899 422.57L65.6799 424C65.3899 424.88 65.0899 425.79 64.7799 426.63C64.5699 427.22 64.3599 427.78 64.1499 428.35C64.2499 427.62 64.3999 426.2 64.3999 426.08C64.3407 424.432 63.8586 422.828 62.9999 421.42C63.0144 421.237 63.0144 421.053 62.9999 420.87C62.9433 420.527 62.8156 420.2 62.625 419.909C62.4344 419.619 62.185 419.372 61.8931 419.183C61.6011 418.995 61.2729 418.87 60.9296 418.816C60.5864 418.762 60.2356 418.78 59.8999 418.87C57.8999 419.46 56.6899 423.06 56.6499 424.93C56.6499 425.04 56.7499 426.25 56.8299 427C56.7099 426.57 56.6099 426.14 56.4799 425.69C56.2499 424.8 55.9899 423.91 55.7099 422.96C55.5599 422.51 55.3999 422.05 55.2499 421.58C55.0999 421.11 54.8999 420.65 54.7199 420.18C54.2899 419.09 53.7999 418.01 53.2799 416.93C54.8959 416.524 56.4404 415.873 57.8599 415C58.464 414.564 58.9675 414.004 59.3367 413.357C59.7058 412.71 59.932 411.992 59.9999 411.25C60.0004 410.901 59.9275 410.555 59.7858 410.236C59.6441 409.917 59.4369 409.631 59.1775 409.397C58.9182 409.163 58.6125 408.987 58.2804 408.879C57.9484 408.771 57.5972 408.734 57.2499 408.77C55.1699 409.05 53.4399 412.43 53.1099 414.28C53.1099 414.39 52.9999 415.74 52.9699 416.49C52.6499 415.84 52.3399 415.19 51.9699 414.55C50.9699 412.7 49.9699 410.85 48.8899 409C48.5699 408.44 48.2599 407.87 47.9499 407.31C48.2299 407.23 51.5299 406.37 52.7499 405.38C53.3801 404.952 53.9084 404.391 54.2972 403.736C54.6861 403.081 54.926 402.348 54.9999 401.59C55.0006 401.241 54.9277 400.896 54.7859 400.577C54.6441 400.259 54.4367 399.973 54.1771 399.74C53.9176 399.507 53.6118 399.331 53.2797 399.225C52.9476 399.118 52.5967 399.082 52.2499 399.12C50.1699 399.4 48.4499 402.77 48.1199 404.62C48.1199 404.76 47.9699 406.71 47.9599 407.2C47.2699 405.95 46.5899 404.7 45.9599 403.44C45.1207 401.741 44.3892 399.991 43.7699 398.2C43.8999 398.2 47.3499 397.29 48.6099 396.27C49.2272 395.835 49.742 395.27 50.1185 394.616C50.495 393.961 50.7242 393.232 50.7899 392.48C50.7903 392.132 50.7176 391.787 50.5765 391.469C50.4354 391.15 50.2291 390.865 49.9709 390.631C49.7126 390.398 49.4082 390.221 49.0774 390.112C48.7465 390.003 48.3965 389.965 48.0499 390C45.9599 390.28 44.2399 393.66 43.9099 395.5C43.9099 395.65 43.7499 397.74 43.7599 398.12C43.7599 398.02 43.6699 397.91 43.6399 397.81C43.0701 395.997 42.6651 394.136 42.4299 392.25C42.2799 391.25 42.1999 390.25 42.1499 389.25C43.8434 389.045 45.4957 388.583 47.0499 387.88C48.2199 387.12 49.5199 385.83 49.6299 384.35C49.6693 384.003 49.6351 383.652 49.5295 383.32C49.4239 382.987 49.2493 382.68 49.0171 382.42C48.785 382.159 48.5004 381.951 48.1821 381.808C47.8638 381.665 47.5189 381.591 47.1699 381.59C45.0599 381.64 42.9799 384.81 42.4499 386.59C42.4499 386.68 42.2399 387.71 42.1199 388.46C42.1199 388.02 42.1199 387.56 42.0599 387.14C42.0599 385.55 42.0599 384.14 42.1499 382.81C42.1499 382.07 42.2399 381.41 42.2999 380.81C43.7072 379.854 44.9557 378.683 45.9999 377.34C46.4198 376.712 46.6972 376 46.813 375.254C46.9287 374.508 46.8799 373.745 46.6699 373.02C46.5433 372.695 46.3499 372.4 46.102 372.155C45.8542 371.909 45.5576 371.719 45.2314 371.595C44.9052 371.472 44.5567 371.418 44.2085 371.438C43.8602 371.458 43.52 371.55 43.2099 371.71C41.3699 372.71 40.9799 376.49 41.3399 378.33C41.3399 378.49 42.1399 380.92 42.1699 380.9C42.0999 381.49 42.0399 382.13 41.9799 382.83C41.8899 384.12 41.7899 385.58 41.7999 387.17C41.7872 388.89 41.874 390.61 42.0599 392.32C42.2578 394.236 42.6259 396.13 43.1599 397.98V398.04C42.8099 397.53 41.7999 396.14 41.7099 396.04C40.4499 394.65 37.1899 392.72 35.2799 393.59C34.9676 393.745 34.6913 393.963 34.4688 394.232C34.2463 394.5 34.0827 394.812 33.9884 395.148C33.8941 395.483 33.8714 395.835 33.9216 396.18C33.9718 396.525 34.0939 396.855 34.2799 397.15C34.7449 397.754 35.3372 398.248 36.0147 398.597C36.6922 398.946 37.4383 399.142 38.1999 399.17V399.17Z" fill="black"/>
<path d="M74 388.35C74 388.35 74.6 385.88 74.62 385.72C74.83 383.86 74.14 380.13 72.22 379.27C71.898 379.135 71.5511 379.069 71.202 379.077C70.8528 379.086 70.5094 379.167 70.1941 379.318C69.8788 379.468 69.5988 379.683 69.3723 379.948C69.1458 380.214 68.9781 380.525 68.88 380.86C68.41 382.26 69.1 383.95 69.88 385.11C70.77 386.47 74 388.35 74 388.35Z" fill="black"/>
</g>
<path d="M36.8101 433.31H469.02" stroke="#263238" stroke-linecap="round" stroke-linejoin="round"/>
<path d="M412 420.4C412 420.4 414.51 426.67 414.72 430.02C414.93 433.37 416.39 438.59 420.78 440.48C425.17 442.37 436.47 441.48 437.3 439.64C438.13 437.8 434.17 429.39 432.3 427.09L430.42 424.79C430.42 424.79 431.26 421.86 426.87 420.4C422.48 418.94 417.46 415.8 412 420.4Z" fill="#A8A8A8" stroke="#263238" stroke-linecap="round" stroke-linejoin="round"/>
<path d="M437.32 439.64C437.59 439.04 437.32 437.77 436.87 436.25C433.632 438.301 429.824 439.264 426 439C421.38 438.7 417.52 436.08 415.67 434.59C416.071 435.868 416.73 437.049 417.608 438.061C418.485 439.073 419.562 439.893 420.77 440.47C425.19 442.36 436.49 441.52 437.32 439.64Z" fill="white" stroke="#263238" stroke-linecap="round" stroke-linejoin="round"/>
<path d="M352.41 421C352.41 421 348.86 428.53 347.41 431C345.96 433.47 341.56 437.06 341.77 438.94C341.98 440.82 343.02 442.08 344.48 442.29C347.926 442.961 351.429 443.296 354.94 443.29C360.59 443.29 367.07 442.29 368.12 440.16C369.17 438.03 368.33 426.35 368.33 426.35C368.33 426.35 357.22 419.56 352.41 421Z" fill="#A8A8A8" stroke="#263238" stroke-linecap="round" stroke-linejoin="round"/>
<path d="M368.1 440.27C368.464 439.085 368.633 437.849 368.6 436.61C364.274 438.813 359.552 440.129 354.71 440.48C350.368 440.687 346.018 440.28 341.79 439.27C341.831 440.008 342.115 440.711 342.598 441.271C343.081 441.83 343.736 442.213 344.46 442.36C347.906 443.032 351.409 443.367 354.92 443.36C360.57 443.4 367.05 442.36 368.1 440.27Z" fill="white" stroke="#263238" stroke-linecap="round" stroke-linejoin="round"/>
<path d="M353.88 257.48C353.88 257.48 349.88 321.89 349.07 341.13C348.26 360.37 352.83 411.82 352.83 411.82C352.83 411.82 350.11 413.71 350.32 415.17C350.53 416.63 350.95 422.91 350.95 422.91C353.072 422.849 355.189 423.133 357.22 423.75C360.99 424.75 368.31 426.46 368.31 426.46C368.31 426.46 369.14 423.95 369.98 420.19C370.82 416.43 367.89 412.66 367.89 407.43C367.89 402.2 379 324 379 324L383.81 293.68L386.11 297.44C386.11 297.44 403.68 376.5 404.94 382.77C406.2 389.04 411.42 409.96 411.42 409.96C411.42 409.96 409.54 414.96 409.96 416.65C410.38 418.34 413.3 425.02 413.3 425.02C413.3 425.02 415.39 422.51 421.46 422.93C427.53 423.35 430.46 424.81 430.46 424.81C430.259 422.269 429.841 419.75 429.21 417.28C428.37 414.77 426.91 415.4 426.7 411.64C426.49 407.88 421.7 342.2 421.7 334.88C421.7 327.56 420.86 307.48 420.86 307.48L416.47 257.29C404.463 259.651 392.171 260.207 380 258.94C359.92 256.85 353.86 255.18 353.86 255.18L353.88 257.48Z" fill="#263238" stroke="#263238" stroke-linecap="round" stroke-linejoin="round"/>
<path d="M352.41 251.62C352.41 251.62 351.99 258.52 353.04 259.78C354.09 261.04 371.23 264 383.78 264C396.33 264 415.36 259.61 416.41 257.31C417.46 255.01 415.15 249.15 415.15 249.15C415.15 249.15 384.83 253.54 372.07 254.15C359.31 254.76 352.41 251.62 352.41 251.62Z" fill="#A8A8A8" stroke="#263238" stroke-linecap="round" stroke-linejoin="round"/>
<path d="M366.63 151.65C366.63 151.65 339.24 159 338 163.36C336.76 167.72 330.89 189.72 330.89 189.72C330.89 189.72 322.73 211.72 324.41 214.19C326.09 216.66 329.22 220.25 331.52 219.19C333.82 218.13 341.77 210.41 343.23 208.32C344.69 206.23 350.97 201.21 350.97 201.21C350.97 201.21 352.85 229.02 352.64 235.09C352.43 241.16 350.76 251.4 351.64 253.09C352.52 254.78 366.9 261.03 382.8 259.36C398.7 257.69 415 253.3 416 251.2C416.765 249.257 417.259 247.218 417.47 245.14L416 207.49L442.14 208.49C442.14 208.49 430.42 182.61 426.87 174C423.32 165.39 421.22 152.46 415.36 151.83C409.5 151.2 390.8 148 390.8 148L366.63 151.65Z" fill="#A8A8A8" stroke="#263238" stroke-linecap="round" stroke-linejoin="round"/>
<path d="M414.11 202.06C414.11 202.06 407.63 192.06 407.63 188.46C407.63 184.86 409.93 173.61 409.93 173.61" stroke="#263238" stroke-linecap="round" stroke-linejoin="round"/>
<path d="M350.95 201.22L346.56 186.37" stroke="#263238" stroke-linecap="round" stroke-linejoin="round"/>
<path d="M341.42 117.8C341.42 117.8 345.1 133.11 345.51 136.99C345.92 140.87 344.28 151.69 352.65 157.99C357.76 161.85 364.9 157.99 364.9 157.99C364.9 157.99 365.14 164.06 366.33 164.93C370.33 167.83 377.42 167.31 382.53 164.45C387.64 161.59 392.25 155.95 392.66 153.09C393.07 150.23 393.07 149.01 391.84 148.6C390.61 148.19 384.7 146.6 384.7 146.6L378.57 128.84L376.57 118.43C376.57 118.43 374.33 108.22 370.86 104.95C367.39 101.68 356.16 100.67 349.02 104.95C341.88 109.23 338 112.29 341.42 117.8Z" fill="white" stroke="#263238" stroke-linecap="round" stroke-linejoin="round"/>
<path d="M344.89 124.54C345.425 124.18 346.039 123.955 346.68 123.884C347.321 123.812 347.969 123.897 348.57 124.13C349.941 124.797 351.077 125.864 351.83 127.19L352.45 139.03L357.75 136.58" stroke="#263238" stroke-linecap="round" stroke-linejoin="round"/>
<path d="M356.12 123.72C356.12 123.72 361.43 120.66 364.69 122.09" stroke="#263238" stroke-linecap="round" stroke-linejoin="round"/>
<path d="M358.57 127.81C358.57 127.81 361.63 125.56 363.88 127.4" stroke="#263238" stroke-linecap="round" stroke-linejoin="round"/>
<path d="M345.71 129.24C345.71 129.24 348.77 126.99 350.81 128.83" stroke="#263238" stroke-linecap="round" stroke-linejoin="round"/>
<path d="M380 108.21C379.8 104.74 376.13 92.29 369.18 91.27C362.23 90.25 351.83 90.45 344.08 94.13C336.33 97.81 328.36 106.58 327.75 108.82C327.14 111.06 336.32 104.94 336.32 104.94C334.301 107.908 333.103 111.359 332.85 114.94C332.65 120.45 337.14 120.24 339.59 120.65C342.04 121.06 341.02 118.82 341.42 117.79C341.82 116.76 347.34 111.67 347.34 111.67C347.34 111.67 346.53 118.2 348.77 116.57C351.01 114.94 362.65 107.57 362.65 107.57C362.65 107.57 362.04 112.47 362.04 115.12C362.04 117.77 365.1 116.55 366.94 116.55C368.22 116.55 371.18 118.93 372.86 120.37C373.49 123.98 374.51 131.14 373.47 134.72C372.04 139.62 368.78 142.27 367.76 142.47C366.74 142.67 357.76 138.6 354.9 138.8C352.04 139 346.32 143.9 346.32 143.9L345.9 145.24C346.44 149.57 348 154.47 352.65 157.99C357.76 161.85 364.9 157.99 364.9 157.99C364.9 157.99 369.39 155.74 371.43 152.68C373.47 149.62 376.53 142.68 376.74 137.37C376.89 133.44 376.74 124.92 376.6 120.76L378.6 120.22C378.6 120.22 380.21 111.68 380 108.21Z" fill="#263238" stroke="#263238" stroke-linecap="round" stroke-linejoin="round"/>
<path d="M376.53 130.05C376.53 130.05 374.29 121.68 376.53 118.42C378.77 115.16 380.82 117.42 381.23 121.07C381.64 124.72 382.66 130.46 378.98 131.89" fill="white"/>
<path d="M376.53 130.05C376.53 130.05 374.29 121.68 376.53 118.42C378.77 115.16 380.82 117.42 381.23 121.07C381.64 124.72 382.66 130.46 378.98 131.89" stroke="#263238" stroke-linecap="round" stroke-linejoin="round"/>
<path d="M358.43 148.32C358.43 148.32 360.05 151.26 359.17 153.03C358.29 154.8 351.82 164.19 350.94 164.63C350.06 165.07 336.84 212.82 335.52 215.31C334.74 216.576 333.69 217.654 332.446 218.468C331.201 219.282 329.793 219.812 328.32 220.02C325.67 220.31 320.53 218.69 319.5 216.34C318.47 213.99 318.18 206.5 320.24 202.97C322.3 199.44 342.24 164.97 342.24 164.97C342.24 164.97 339.01 155.12 339.01 153.97C339.01 152.82 345.77 147.06 347.68 145.89C349.59 144.72 351.35 145.3 352.82 146.77C354.29 148.24 355.17 148.97 355.17 148.97L358.43 148.32Z" fill="white" stroke="#263238" stroke-linecap="round" stroke-linejoin="round"/>
<path d="M340.36 158.46C340.36 158.46 337.72 153.61 337.43 152.58C337.14 151.55 346.32 143.93 346.32 143.93C346.32 143.93 353.32 145.09 353.73 145.39C354.14 145.69 355.2 148.91 355.2 148.91C355.2 148.91 347.42 157.58 346.2 158.31C344.98 159.04 343.26 159.49 342.68 158.61C342.1 157.73 341.5 155.38 342.82 155.23" fill="white"/>
<path d="M340.36 158.46C340.36 158.46 337.72 153.61 337.43 152.58C337.14 151.55 346.32 143.93 346.32 143.93C346.32 143.93 353.32 145.09 353.73 145.39C354.14 145.69 355.2 148.91 355.2 148.91C355.2 148.91 347.42 157.58 346.2 158.31C344.98 159.04 343.26 159.49 342.68 158.61C342.1 157.73 341.5 155.38 342.82 155.23" stroke="#263238" stroke-linecap="round" stroke-linejoin="round"/>
<path d="M339.19 150.53C339.19 150.53 344.19 150.23 345.19 150.82C346.19 151.41 346.19 158.31 346.19 158.31" fill="white"/>
<path d="M339.19 150.53C339.19 150.53 344.19 150.23 345.19 150.82C346.19 151.41 346.19 158.31 346.19 158.31" stroke="#263238" stroke-linecap="round" stroke-linejoin="round"/>
<path d="M342.42 147.3C342.42 147.3 346.83 147.15 348 148.77C349.17 150.39 349.47 155.67 349.47 155.67" stroke="#263238" stroke-linecap="round" stroke-linejoin="round"/>
<path d="M344.77 145.39C344.77 145.39 350.77 145.97 351.38 146.86C351.99 147.75 352.26 152.73 352.26 152.73" stroke="#263238" stroke-linecap="round" stroke-linejoin="round"/>
<path d="M356.08 151.26C356.08 151.26 351.68 154.49 350.65 153.91C349.62 153.33 349.03 152.29 349.18 151.85C349.33 151.41 356.08 146.71 357.11 147C357.662 147.314 358.126 147.761 358.459 148.301C358.793 148.841 358.986 149.456 359.02 150.09" fill="white"/>
<path d="M356.08 151.26C356.08 151.26 351.68 154.49 350.65 153.91C349.62 153.33 349.03 152.29 349.18 151.85C349.33 151.41 356.08 146.71 357.11 147C357.662 147.314 358.126 147.761 358.459 148.301C358.793 148.841 358.986 149.456 359.02 150.09" stroke="#263238" stroke-linecap="round" stroke-linejoin="round"/>
<path d="M335.52 215.31C335.93 214.54 337.52 209.39 339.52 202.64C331.41 203.64 326.18 200.64 323.22 197.92L320.24 203C318.18 206.53 318.48 214 319.5 216.37C320.52 218.74 325.67 220.37 328.32 220.05C329.795 219.839 331.205 219.304 332.45 218.485C333.695 217.666 334.743 216.581 335.52 215.31Z" fill="#A8A8A8" stroke="#263238" stroke-linecap="round" stroke-linejoin="round"/>
<path d="M431.42 200.24C431.42 200.24 396.7 195.24 392.1 194.8C387.5 194.36 381.85 192.29 379.55 191.67C377.25 191.05 371.61 193.13 369.1 194.39C366.59 195.65 365.1 197.73 366.38 198.39C367.66 199.05 370.77 196.3 370.77 196.3L376.42 195.25L378.51 196.09C378.51 196.09 372.65 197.76 371.19 199.02C369.73 200.28 367 202.78 368.05 203.41C369.1 204.04 372.65 202.15 372.65 202.15L376 200.48L379.76 200.27C379.76 200.27 374.76 202.15 373.7 203.83C372.64 205.51 369.51 208.01 370.98 208.83C372.45 209.65 376.21 205.48 377.04 205.06C379.107 204.521 381.204 204.103 383.32 203.81C383.32 203.81 377.67 208.2 378.32 209.45C378.97 210.7 384.59 205.9 384.59 205.9C386.219 206.006 387.853 205.792 389.4 205.27C391.49 204.43 394.21 203.18 394.21 203.18C394.21 203.18 415.75 214.06 419.73 216.36C423.71 218.66 437.92 222.84 441.27 221.36C444.62 219.88 444.83 214.46 443.36 210.7C443.26 210.43 443.14 210.16 443.02 209.89C441.168 205.883 437.834 202.75 433.72 201.15L431.42 200.24Z" fill="white" stroke="#263238" stroke-linecap="round" stroke-linejoin="round"/>
<path d="M443.34 210.7C443.24 210.43 443.12 210.16 443 209.89C441.147 205.883 437.814 202.75 433.7 201.15L431.42 200.24L423.34 199.08C424.84 202.76 425.45 208.77 419.71 216.35C423.71 218.65 437.9 222.83 441.25 221.35C444.6 219.87 444.81 214.46 443.34 210.7Z" fill="#A8A8A8" stroke="#263238" stroke-linecap="round" stroke-linejoin="round"/>
<path d="M231.91 254.46C231.91 254.46 249.63 255.22 261.79 251.46C273.95 247.7 278.79 247.46 278.79 247.46C278.79 247.46 283.86 277.85 278.54 300.64C273.22 323.43 267.14 340.39 266.64 345.71C266.14 351.03 266.64 375.59 263.85 385.71C261.06 395.83 251.45 405.46 251.19 411.79C250.93 418.12 251.45 421.41 253.19 428.79C254.93 436.17 252.43 440.94 247.62 439.68C242.81 438.42 241.54 433.85 240.02 423.47C238.5 413.09 241.54 385.99 242.81 372.83C244.08 359.67 240.27 323.19 236.98 310.53C233.69 297.87 227.11 280.65 227.11 270.78C227.11 260.91 229.11 255.33 229.11 255.33L231.91 254.46Z" fill="#263238" stroke="#263238" stroke-linecap="round" stroke-linejoin="round"/>
<path d="M253.18 428.68C251.41 421.33 250.9 418.04 251.18 411.68C251.31 408.39 253.98 404.2 256.9 399.52C246.51 401.06 243 393.8 243 393.8L240.87 392.8C239.87 404.57 239.09 417.04 240.01 423.35C241.53 433.73 242.8 438.29 247.61 439.56C252.42 440.83 255 436 253.18 428.68Z" fill="white" stroke="#263238" stroke-linecap="round" stroke-linejoin="round"/>
<path d="M247.61 439.57C252.42 440.83 254.95 436.02 253.18 428.68C252.67 426.56 252.26 424.79 251.95 423.17C250.49 424.49 248.61 425.65 246.7 425.36C242.64 424.72 239.7 419.51 239.7 419.51C239.746 420.798 239.856 422.083 240.03 423.36C241.53 433.74 242.8 438.3 247.61 439.57Z" fill="white" stroke="#263238" stroke-linecap="round" stroke-linejoin="round"/>
<path d="M246.34 285.86C246.34 286.62 246.59 300.55 248.11 312.2C249.63 323.85 252.17 334.48 251.41 348.66C250.65 362.84 245.33 391.66 244.06 399.81C242.79 407.96 243.81 431.97 243.81 431.97C243.81 431.97 241.81 439.82 239.76 440.58C237.71 441.34 234.19 441.08 232.67 439.82C231.15 438.56 231.67 437.03 231.91 433.23C232.15 429.43 229.91 401.58 226.59 392.72C223.535 384.201 222.16 375.172 222.54 366.13C222.79 357.52 226.59 348.41 226.34 344.61C226.09 340.81 211.4 310.17 209.88 296.5C208.36 282.83 212.16 250.16 212.16 250.16C212.16 250.16 222.54 254.97 229.16 255.22C235.78 255.47 246.63 255.73 246.63 255.73" fill="#263238"/>
<path d="M246.34 285.86C246.34 286.62 246.59 300.55 248.11 312.2C249.63 323.85 252.17 334.48 251.41 348.66C250.65 362.84 245.33 391.66 244.06 399.81C242.79 407.96 243.81 431.97 243.81 431.97C243.81 431.97 241.81 439.82 239.76 440.58C237.71 441.34 234.19 441.08 232.67 439.82C231.15 438.56 231.67 437.03 231.91 433.23C232.15 429.43 229.91 401.58 226.59 392.72C223.535 384.201 222.16 375.172 222.54 366.13C222.79 357.52 226.59 348.41 226.34 344.61C226.09 340.81 211.4 310.17 209.88 296.5C208.36 282.83 212.16 250.16 212.16 250.16C212.16 250.16 222.54 254.97 229.16 255.22C235.78 255.47 246.63 255.73 246.63 255.73" stroke="#263238" stroke-linecap="round" stroke-linejoin="round"/>
<path d="M243.81 432C243.81 432 242.81 407.94 244.06 399.84C244.31 398.22 244.73 395.77 245.24 392.78C238.37 390.78 231.1 392.42 226.94 393.78C230.04 403.59 232.15 429.58 231.94 433.24C231.73 436.9 231.18 438.56 232.7 439.83C234.22 441.1 237.76 441.35 239.79 440.59C241.82 439.83 243.81 432 243.81 432Z" fill="white" stroke="#263238" stroke-linecap="round" stroke-linejoin="round"/>
<path d="M238 423.2C236.51 423.724 235.17 424.602 234.095 425.759C233.021 426.915 232.243 428.316 231.83 429.84C230.53 435 231.4 443.35 233.39 444.25C234.508 444.826 235.751 445.114 237.008 445.09C238.264 445.065 239.496 444.729 240.59 444.11C243.13 442.58 241.89 441.53 244.59 439.45C246.287 437.951 247.413 435.911 247.778 433.677C248.142 431.442 247.723 429.15 246.59 427.19C243.76 422.32 240.83 421.86 238 423.2Z" fill="white" stroke="#263238" stroke-linecap="round" stroke-linejoin="round"/>
<path d="M246.31 428.77C243.63 426.32 238.59 427.06 235.67 429.97C233.58 432.05 231.95 433.79 231.27 437.42C231.49 440.8 232.27 443.73 233.39 444.25C234.508 444.826 235.751 445.114 237.008 445.09C238.264 445.065 239.495 444.729 240.59 444.11C243.13 442.58 241.89 441.53 244.59 439.45C246.03 438.245 247.049 436.613 247.5 434.79C247.82 432.87 247.91 430.22 246.31 428.77Z" fill="white" stroke="#263238" stroke-linecap="round" stroke-linejoin="round"/>
<path d="M246.83 92.06C246.83 92.06 232.83 90.22 224.92 99.79C222.68 102.5 216.46 120.22 214.98 124.09C213.5 127.96 206.33 138.44 205.05 148.38C203.77 158.32 211.49 159.98 211.49 159.98L214.43 149.67C214.43 149.67 212.43 157.95 217.75 162.55C223.07 167.15 233.75 168.26 243.7 168.81C253.65 169.36 266 164 268.91 159.42C271.82 154.84 269.1 149.85 267.81 142.86C266.52 135.87 263.21 127.22 264.49 120.96C265.77 114.7 266.89 109.18 263.76 102.74C260.63 96.3 251.06 91.14 246.83 92.06Z" fill="#263238" stroke="#263238" stroke-linecap="round" stroke-linejoin="round"/>
<path d="M261.18 123.9C261.18 123.9 263.76 121.33 265.05 124.82C266.34 128.31 262.29 136.42 262.29 136.42L261.18 123.9Z" fill="white" stroke="#263238" stroke-linecap="round" stroke-linejoin="round"/>
<path d="M236.7 144.33C236.7 144.33 235.41 158.5 234.7 160.33C233.99 162.16 219.79 167.88 219.79 167.88C219.79 167.88 215.19 199.17 216.29 206.16C217.39 213.15 219.61 255.31 219.61 255.31C219.61 255.31 230.28 261.38 247.03 260.64C263.78 259.9 270.59 254.94 270.59 254.94C270.59 254.94 268.59 228.62 268.59 220.15C268.59 211.68 268.59 193.65 266.94 182.61C265.969 176.062 264.492 169.599 262.52 163.28L255.71 161.07L253.13 145.79L236.7 144.33Z" fill="white" stroke="#263238" stroke-linecap="round" stroke-linejoin="round"/>
<path d="M263.41 218.46C258.757 225.92 253.123 232.72 246.66 238.68" stroke="#263238" stroke-linecap="round" stroke-linejoin="round"/>
<path d="M257.06 219.62L249.55 226.55" stroke="#263238" stroke-linecap="round" stroke-linejoin="round"/>
<path d="M246.48 182.07L256.25 161.27L255.66 161.08L253.08 145.8L236.7 144.33C236.7 144.33 235.41 158.5 234.7 160.33C234.033 161.141 233.183 161.782 232.22 162.2L246.48 182.07Z" fill="white" stroke="#263238" stroke-linecap="round" stroke-linejoin="round"/>
<path d="M253.4 147.7L253.08 145.8L236.7 144.33C236.7 144.33 236.3 148.73 235.82 152.94C237.51 153.79 240.23 154.37 244.33 153.3C250.84 151.6 252.85 148.79 253.4 147.7Z" fill="#263238" stroke="#263238" stroke-linecap="round" stroke-linejoin="round"/>
<path d="M248.85 100.71C248.85 100.71 247 106.79 240 112.86C233 118.93 228 124.09 228 124.09L227.82 125.74C227.82 125.74 223.77 125.19 223.59 129.74C223.55 131.426 224.044 133.081 225.002 134.469C225.959 135.857 227.33 136.908 228.92 137.47L230.58 137.84C230.58 137.84 233.16 144.1 236.1 146.12C239.04 148.14 244.57 151.46 248.8 151.12C253.03 150.78 261.87 141.18 262.24 138.05C262.61 134.92 261.68 115.23 260.76 111.74C259.84 108.25 248.85 100.71 248.85 100.71Z" fill="white" stroke="#263238" stroke-linecap="round" stroke-linejoin="round"/>
<path d="M240.94 118.75C240.94 119.87 240.36 120.75 239.65 120.75C238.94 120.75 238.36 119.85 238.36 118.75C238.36 117.65 238.94 116.75 239.65 116.75C240.36 116.75 240.94 117.63 240.94 118.75Z" fill="#263238"/>
<path d="M255.11 120.59C255.822 120.59 256.4 119.686 256.4 118.57C256.4 117.454 255.822 116.55 255.11 116.55C254.397 116.55 253.82 117.454 253.82 118.57C253.82 119.686 254.397 120.59 255.11 120.59Z" fill="#263238"/>
<path d="M250.14 123.35C250.14 123.35 251.06 126.11 250.51 127.03C249.973 127.723 249.29 128.289 248.51 128.69" stroke="#263238" stroke-linecap="round" stroke-linejoin="round"/>
<path d="M239.83 131.26C239.83 131.26 244.06 134.76 248.48 133.84C252.9 132.92 254.56 130.71 254.56 130.71" stroke="#263238" stroke-linecap="round" stroke-linejoin="round"/>
<path d="M252.16 112.49C252.689 112.187 253.273 111.994 253.879 111.923C254.484 111.851 255.098 111.903 255.682 112.075C256.267 112.247 256.811 112.535 257.282 112.923C257.752 113.31 258.139 113.789 258.42 114.33" stroke="#263238" stroke-linecap="round" stroke-linejoin="round"/>
<path d="M242 112.68C240.658 112.39 239.265 112.44 237.946 112.824C236.628 113.208 235.426 113.915 234.45 114.88" stroke="#263238" stroke-linecap="round" stroke-linejoin="round"/>
<path d="M232.2 162.21C232.2 162.21 220.14 204.15 220.69 209.12C221.24 214.09 223.27 235.81 223.45 252.55C223.538 262.902 222.799 273.245 221.24 283.48C221.24 283.48 210.38 275.75 208.91 273.72C207.44 271.69 206.52 268.94 206.91 263.97C207.3 259 209.3 248.32 209.3 248.32C209.3 248.32 200.3 251.08 198.62 248.69C196.94 246.3 195.86 239.3 197.15 233.41C198.44 227.52 201.38 209.67 201.38 209.67C201.38 209.67 203.59 171.76 205.38 171.02C207.17 170.28 232.2 162.21 232.2 162.21Z" fill="#006FCB" stroke="#263238" stroke-linecap="round" stroke-linejoin="round"/>
<path d="M210.38 249.45L198.6 248.69C198.6 248.69 182.28 297.76 185.06 299.28C187.84 300.8 203.06 305.61 205.83 305.36C208.6 305.11 217.47 303.36 217.73 300.29C217.99 297.22 214.42 248.67 214.42 248.67L210.38 249.45Z" fill="#A8A8A8" stroke="#263238" stroke-linecap="round" stroke-linejoin="round"/>
<path d="M206.27 278.29L190.21 276.97L189.33 278.73L205.83 280.49L206.27 278.29Z" fill="white" stroke="#263238" stroke-linecap="round" stroke-linejoin="round"/>
<path d="M217.73 300.29C217.98 297.29 214.42 248.67 214.42 248.67L210.42 249.45L209.25 249.38C208.82 256.16 206.46 293.84 205.95 305.38C208.78 305.07 217.48 303.31 217.73 300.29Z" fill="#A8A8A8" stroke="#263238" stroke-linecap="round" stroke-linejoin="round"/>
<path d="M201.17 237.84C201.17 237.84 195.76 241.73 194.9 242.6C194.04 243.47 192.9 248 192.9 248.87C192.9 249.74 197.44 254.28 197.44 254.28C197.44 254.28 205.01 247.79 205.88 247.57C206.75 247.35 211.72 247.79 212.15 247.14C212.58 246.49 213.24 242.38 212.37 241.08C211.5 239.78 203.55 237.19 201.17 237.84Z" fill="#006FCB" stroke="#263238" stroke-linecap="round" stroke-linejoin="round"/>
<path d="M205.41 243.58L209.85 245.86C211.494 245.771 213.131 245.574 214.75 245.27C215.75 244.95 216.84 244.75 216.84 245.99C216.84 247.23 216.06 248.08 214.42 248.67C213.102 249.004 211.767 249.264 210.42 249.45C209.533 250.184 208.594 250.852 207.61 251.45C207.09 251.59 202.61 243.03 202.61 243.03L205.41 243.58Z" fill="white" stroke="#263238" stroke-linecap="round" stroke-linejoin="round"/>
<path d="M204.31 242.43C203.36 241.33 200.19 243.43 200.81 244.43C201.11 244.93 205.05 251.6 205.81 251.97C206.57 252.34 208.94 251.97 208.2 249.4C207.46 246.83 204.31 242.43 204.31 242.43Z" fill="white" stroke="#263238" stroke-linecap="round" stroke-linejoin="round"/>
<path d="M201.17 245.34C201.17 245.34 199.34 246.58 199.54 247.62C200.238 249.654 201.348 251.523 202.8 253.11C204.04 254.22 204.8 254.11 205.41 253.37C205.578 253.189 205.7 252.97 205.765 252.731C205.829 252.492 205.834 252.241 205.78 252L201.17 245.34Z" fill="white" stroke="#263238" stroke-linecap="round" stroke-linejoin="round"/>
<path d="M199.86 248.47C199.395 248.688 199.022 249.064 198.807 249.531C198.593 249.997 198.552 250.525 198.69 251.02C199.301 252.571 200.432 253.862 201.89 254.67C202.74 255.13 204.17 254.02 204.17 254.02C203.218 253.309 202.364 252.475 201.63 251.54C201 250.56 199.86 248.47 199.86 248.47Z" fill="white" stroke="#263238" stroke-linecap="round" stroke-linejoin="round"/>
<path d="M199 251.61C198.76 252.118 198.63 252.671 198.618 253.233C198.606 253.794 198.712 254.352 198.93 254.87C199.72 256.44 201.42 257.61 202.39 257.22C203.36 256.83 201.94 254.67 201.94 254.67C201.94 254.67 199.54 252.32 199 251.61Z" fill="white" stroke="#263238" stroke-linecap="round" stroke-linejoin="round"/>
<path d="M217.22 166.85L208.86 258.01L214.85 257.39L221.02 165.33L217.22 166.85Z" fill="#A8A8A8" stroke="#263238" stroke-linecap="round" stroke-linejoin="round"/>
<path d="M295.29 271.8L298.53 283.7C298.53 283.7 295.07 291.28 295.29 292.58C295.5 295.676 295.5 298.784 295.29 301.88C295.07 302.74 297.45 303.83 298.29 302.1C299.13 300.37 299.59 296.9 299.8 296.04C300.01 295.18 301.97 293.66 301.97 293.66L301.75 301.45L298.94 306.45C298.94 306.45 295.26 308.18 296.34 309.05C297.42 309.92 298.72 309.27 299.8 308.62C300.88 307.97 305.43 302.77 305.64 301.91C305.85 301.05 308.46 292.39 308.46 290.91C308.46 289.43 306.08 277.72 306.08 277.72L304.78 268.2L295.29 271.8Z" fill="white" stroke="#263238" stroke-linecap="round" stroke-linejoin="round"/>
<path d="M258.51 161.89C258.51 161.89 264.13 193.89 265 203C265.87 212.11 267.38 256.23 267.81 261C268.24 265.77 267.59 283.28 268.46 283.5C269.33 283.72 284.46 275.06 285.12 273.76C285.78 272.46 284.9 266.62 284.9 266.62C284.9 266.62 274.52 222.05 274.52 219.62C274.52 217.19 275.6 209.02 275.6 209.02L283.39 246.02L291.83 268.52L304.59 266.36C304.59 266.36 302 248 299.18 236.32C296.36 224.64 292 196.51 292 195C292 193.49 286.16 167.53 284.86 167.09C283.56 166.65 258.51 161.89 258.51 161.89Z" fill="#006FCB" stroke="#263238" stroke-linecap="round" stroke-linejoin="round"/>
<path d="M275.6 209.06L277.98 183.74V218.76L275.6 209.06Z" fill="#263238" stroke="#263238" stroke-linecap="round" stroke-linejoin="round"/>
<path d="M289.01 266.18L291.83 274.4L308.05 269.86L305.89 261.2L289.01 266.18Z" fill="#006FCB" stroke="#263238" stroke-linecap="round" stroke-linejoin="round"/>
<path d="M109.64 117.82C105.106 121.313 101.043 125.376 97.55 129.91C92.4 136.85 92.55 148.14 101.71 152.91C110.87 157.68 118.16 156.67 121.33 148.35C123.23 143.431 123.975 138.142 123.51 132.89L155.42 123.78L159 130.9C159 130.9 165.54 131.5 167.91 129.32C170.28 127.14 170.29 120.99 168.31 118.22C166.33 115.45 164.15 112.67 164.15 112.67C164.15 112.67 158.6 95.82 140.76 94.43C122.92 93.04 109.64 104 109.64 117.82Z" fill="#263238" stroke="#263238" stroke-linecap="round" stroke-linejoin="round"/>
<path d="M84.54 260.12C84.54 260.12 83.89 281.52 87.54 292.54C91.19 303.56 100.94 328.85 100.29 333.18C99.9099 335.772 98.8777 338.226 97.29 340.31C97.29 340.31 88.64 350.25 85.62 360.41C82.6 370.57 77.19 403 74.38 411.85C71.57 420.7 68.97 437.35 70.92 438.85C72.87 440.35 80.65 443.85 83.24 439.07C85.83 434.29 85 414.44 85.4 411.63C85.8 408.82 116.31 359.76 118.68 353.49C121.05 347.22 123.22 341.61 123.22 341.61C123.22 341.61 121.93 358.03 123.44 365.16C124.95 372.29 129.92 415.31 130.14 417.47C130.36 419.63 126.68 423.95 126.9 426.76C127.12 429.57 126.47 437.35 127.98 438.22C129.49 439.09 137.49 438 140.73 438.86C143.97 439.72 153.48 441.02 156.94 439.51C160.4 438 161.05 437.13 158.02 434.51C154.99 431.89 152.4 431.51 148.73 428.24C145.06 424.97 141.38 417.24 141.38 416.57C141.38 415.9 144.38 381.13 145.7 366.21C147.02 351.29 147.21 339.21 147.21 339.21C147.21 339.21 156.51 306.79 154.35 282.8C153.2 270.03 152.18 264.64 152.18 264.64L84.54 260.12Z" fill="white" stroke="#263238" stroke-linecap="round" stroke-linejoin="round"/>
<path d="M142.71 400.71C143.71 389.35 144.97 374.64 145.71 366.24C147.01 351.33 147.22 339.24 147.22 339.24C147.22 339.24 156.52 306.82 154.36 282.83C153.21 270.06 152.19 264.67 152.19 264.67L84.55 260.13C84.55 260.13 83.9 281.53 87.55 292.55C91.2 303.57 100.95 328.86 100.3 333.19C99.9199 335.782 98.8877 338.236 97.3 340.32C97.3 340.32 88.65 350.26 85.63 360.42C83.86 366.35 81.28 379.86 78.89 391.85C81.11 394.03 85.52 396.5 94 396.22C103.33 380.4 117.13 357.64 118.69 353.5C121.07 347.23 123.23 341.62 123.23 341.62C123.23 341.62 121.94 358.04 123.45 365.17C124.38 369.58 126.64 387.67 128.28 401.37C133.079 402.234 138.01 402.008 142.71 400.71V400.71Z" fill="#263238" stroke="#263238" stroke-linecap="round" stroke-linejoin="round"/>
<path d="M158 434.54C156.143 433.107 154.162 431.842 152.08 430.76L149.79 433.46C147.39 433.687 144.969 433.467 142.65 432.81C139.84 431.87 130.5 424.57 128.1 422.67C127.367 423.914 126.948 425.318 126.88 426.76C127.09 429.57 126.45 437.35 127.96 438.22C129.47 439.09 137.47 438 140.71 438.86C143.95 439.72 153.46 441.02 156.92 439.51C160.38 438 161.05 437.13 158 434.54Z" fill="#A8A8A8" stroke="#263238" stroke-linecap="round" stroke-linejoin="round"/>
<path d="M156.94 439.51C157.883 439.167 158.759 438.663 159.53 438.02C152.53 440.15 140.3 438.5 138.14 436.7C135.98 434.9 129.41 433.77 126.96 433.38C127.02 435.72 127.24 437.79 127.96 438.22C129.47 439.08 137.47 438 140.71 438.86C143.95 439.72 153.48 441 156.94 439.51Z" fill="white" stroke="#263238" stroke-linecap="round" stroke-linejoin="round"/>
<path d="M81.29 433C80 433.65 76.11 433.43 74.81 431.7C73.81 430.44 73.03 422.52 72.65 418.32C70.65 427.08 69.39 437.64 70.92 438.83C72.92 440.35 80.65 443.83 83.24 439.05C84.35 437.05 84.83 432.2 85.04 427.14C84 430 82.27 432.54 81.29 433Z" fill="#A8A8A8" stroke="#263238" stroke-linecap="round" stroke-linejoin="round"/>
<path d="M83.24 439.08C83.5 438.574 83.7046 438.04 83.85 437.49C81.9786 439.026 79.6092 439.823 77.19 439.73C74.08 439.47 71.68 437.05 70.25 435.14C70.25 437.14 70.43 438.48 70.92 438.86C72.87 440.38 80.65 443.83 83.24 439.08Z" fill="white" stroke="#263238" stroke-linecap="round" stroke-linejoin="round"/>
<path d="M123.22 341.61C123.22 341.61 124.95 334.47 125.82 330.61C126.69 326.75 124.52 289.33 123.44 282.85" stroke="white" stroke-linecap="round" stroke-linejoin="round"/>
<path d="M84.1 256.45C84.1 256.45 82.59 262.07 83.67 263.58C84.75 265.09 91.45 268.12 114.15 271.58C136.85 275.04 151.97 268.77 153.27 266.58C154.57 264.39 152.4 260.96 152.4 260.96C152.4 260.96 132.73 265.5 112.2 261.82C91.67 258.14 84.1 256.45 84.1 256.45Z" fill="#A8A8A8" stroke="#263238" stroke-linecap="round" stroke-linejoin="round"/>
<path d="M122 134.77C122 134.77 120.59 148.39 118.64 151.41C116.69 154.43 107.64 149.25 98.76 152.92C89.88 156.59 83.67 164.6 80.65 173.67C77.63 182.74 66 219.28 66.81 220.79C67.62 222.3 87.13 224.46 87.13 224.46C87.13 224.46 81.29 254.94 82.81 257.96C84.33 260.98 97.72 265.53 112.42 266.61C127.12 267.69 141.81 266.82 149.59 264.88C157.37 262.94 153.27 253.42 152.4 250.4C151.53 247.38 148.51 230.73 148.51 230.73C148.51 230.73 156.51 204.36 156.94 196.37C157.37 188.38 153.27 175.19 150.46 171.08C147.65 166.97 141.26 159.94 139.91 159.03C138.56 158.12 137.49 154.03 137.7 153.36C137.91 152.69 135.97 152.49 130.36 139.74C124.75 126.99 122 134.77 122 134.77Z" fill="#A8A8A8" stroke="#263238" stroke-linecap="round" stroke-linejoin="round"/>
<path d="M131 165.24L128.63 222.52C128.63 222.52 139.22 224.68 147.63 222.95L140.73 165L131 165.24Z" fill="#263238" stroke="#263238" stroke-linecap="round" stroke-linejoin="round"/>
<path d="M120.41 143C120.41 143 114.79 150.57 115.87 152.3C116.95 154.03 121.06 162.89 127.33 165.7C133.6 168.51 141.8 168.16 142.89 166.13C143.98 164.1 144.89 155.38 144.89 155.38C144.89 155.38 133 154 129.27 150.11C125.54 146.22 121.49 140 120.41 143Z" fill="#263238" stroke="#263238" stroke-linecap="round" stroke-linejoin="round"/>
<path d="M151.4 118.6C151.4 118.6 140.12 124.6 135.87 126.47C131.62 128.34 125.23 128.81 125.23 128.81L117.78 127.32C117.78 127.32 118.84 133.49 119.7 134.13C120.409 134.548 121.217 134.769 122.04 134.77C122.04 134.77 125.43 149.03 127.56 151.77C129.69 154.51 133.98 161.27 139.72 160.41C145.46 159.55 154.81 149.21 156.3 145.8C157.79 142.39 160.77 131.97 162.47 127.72C164.17 123.47 151.4 118.6 151.4 118.6Z" fill="white" stroke="#263238" stroke-linecap="round" stroke-linejoin="round"/>
<path d="M143.32 145.2C143.32 145.2 146.72 146.9 148 144.98" stroke="#263238" stroke-linecap="round" stroke-linejoin="round"/>
<path d="M158.64 134.13C157.79 132.64 151.83 134.13 151.83 134.13" stroke="#263238" stroke-width="2" stroke-linecap="round" stroke-linejoin="round"/>
<path d="M146.08 133.28C146.08 133.28 142.08 129.45 139.49 129.28" stroke="#263238" stroke-width="2" stroke-linecap="round" stroke-linejoin="round"/>
<path d="M138.23 134.34C138.23 134.34 143.28 134.61 144.08 137.53" stroke="#263238" stroke-linecap="round" stroke-linejoin="round"/>
<path d="M151.52 138.33C151.52 138.33 154.98 136.47 156.31 138.33" stroke="#263238" stroke-linecap="round" stroke-linejoin="round"/>
<path d="M144.84 155.36C144.84 155.36 142.92 158.36 143.13 159.83C143.34 161.3 145.05 177.06 145.05 177.06L155.26 176.85L156.97 168.12C156.97 168.12 162.71 158.76 161.86 157.7C161.01 156.64 149.31 152.16 148.24 151.95C147.17 151.74 144.84 155.36 144.84 155.36Z" fill="white" stroke="#263238" stroke-linecap="round" stroke-linejoin="round"/>
<path d="M157.18 158.34C158.24 157.7 158.88 159.61 158.24 160.89C157.6 162.17 155.05 161.31 154.41 161.31C153.77 161.31 146.75 157.06 144.84 155.36C142.93 153.66 149.52 149.19 149.52 149.19C149.52 149.19 160.8 154.29 161.86 155.57C162.92 156.85 160.59 161.45 160.59 161.45" fill="white"/>
<path d="M157.18 158.34C158.24 157.7 158.88 159.61 158.24 160.89C157.6 162.17 155.05 161.31 154.41 161.31C153.77 161.31 146.75 157.06 144.84 155.36C142.93 153.66 149.52 149.19 149.52 149.19C149.52 149.19 160.8 154.29 161.86 155.57C162.92 156.85 160.59 161.45 160.59 161.45" stroke="#263238" stroke-linecap="round" stroke-linejoin="round"/>
<path d="M159.74 154.2C159.74 154.2 156.41 153.6 156.16 154.46C155.91 155.32 153.61 160.75 154.41 161.31" stroke="#263238" stroke-linecap="round" stroke-linejoin="round"/>
<path d="M154.36 151.22C154.36 151.22 152.06 152.41 152.06 153.22C152.06 154.03 150.87 159.45 150.87 159.45" stroke="#263238" stroke-linecap="round" stroke-linejoin="round"/>
<path d="M151 150C151 150 148.1 152.48 148.1 154.1C148.1 155.72 147.84 158.02 147.84 158.02" stroke="#263238" stroke-linecap="round" stroke-linejoin="round"/>
<path d="M144 164.08C144 164.08 141.23 158.08 141.23 156.85C141.23 155.62 144.63 151.74 145.7 149.85C146.77 147.96 147.63 148.85 147.63 150.31C147.603 151.868 147.263 153.406 146.63 154.83C146.298 155.533 145.9 156.203 145.44 156.83C145.44 156.83 150.04 159.13 150.9 160.5C151.76 161.87 149.9 165.36 149.9 165.36" fill="white"/>
<path d="M144 164.08C144 164.08 141.23 158.08 141.23 156.85C141.23 155.62 144.63 151.74 145.7 149.85C146.77 147.96 147.63 148.85 147.63 150.31C147.603 151.868 147.263 153.406 146.63 154.83C146.298 155.533 145.9 156.203 145.44 156.83C145.44 156.83 150.04 159.13 150.9 160.5C151.76 161.87 149.9 165.36 149.9 165.36" stroke="#263238" stroke-linecap="round" stroke-linejoin="round"/>
<path d="M144 172.16L157.4 173.67C158.603 178.758 160.194 183.746 162.16 188.59C165.4 196.59 170.8 214.52 171.23 219.06C171.66 223.6 168.64 229 158.48 228.79C148.32 228.58 149.84 209.33 148.54 203.72C147.24 198.11 144 172.16 144 172.16Z" fill="#A8A8A8" stroke="#263238" stroke-linecap="round" stroke-linejoin="round"/>
<path d="M104.85 216.25C106.924 214.208 108.874 212.044 110.69 209.77C111.98 207.77 115.87 207.39 117.39 203.93C118.91 200.47 120.63 198.31 121.71 200.93C122.79 203.55 120.2 208.27 118.9 208.93C117.81 209.48 130.11 206.33 133.97 205.34C134.111 205.3 134.26 205.291 134.405 205.315C134.55 205.338 134.688 205.394 134.809 205.477C134.931 205.56 135.032 205.669 135.106 205.795C135.181 205.922 135.227 206.064 135.24 206.21V206.21C135.27 206.434 135.223 206.663 135.107 206.857C134.991 207.051 134.812 207.2 134.6 207.28L124.52 211.28L136.52 210.53C136.748 210.517 136.977 210.552 137.191 210.634C137.404 210.716 137.598 210.843 137.759 211.005C137.92 211.168 138.044 211.363 138.124 211.578C138.203 211.793 138.236 212.022 138.22 212.25V212.25C138.196 212.59 138.065 212.913 137.846 213.173C137.627 213.434 137.331 213.618 137 213.7L125.41 216.25L134.31 216.98C134.493 216.994 134.669 217.053 134.823 217.153C134.977 217.253 135.103 217.39 135.189 217.551C135.276 217.713 135.321 217.894 135.319 218.077C135.317 218.26 135.27 218.44 135.18 218.6C135.101 218.743 134.99 218.867 134.857 218.962C134.724 219.057 134.571 219.121 134.41 219.15L123.87 221L129.93 221.32C130.132 221.333 130.327 221.397 130.496 221.507C130.666 221.617 130.804 221.768 130.899 221.947C130.993 222.125 131.04 222.325 131.035 222.527C131.03 222.729 130.973 222.926 130.87 223.1V223.1C130.775 223.252 130.648 223.381 130.498 223.478C130.347 223.574 130.177 223.637 130 223.66C127.11 224 114.12 225.53 112.2 225.53H105.28L104.85 216.25Z" fill="white" stroke="#263238" stroke-linecap="round" stroke-linejoin="round"/>
<path d="M75.67 188.59C75.67 188.59 64.07 216.85 64.87 222.73C65.52 227.49 106.37 228.35 106.37 228.35V213.66L78.92 205.88" fill="#A8A8A8"/>
<path d="M75.67 188.59C75.67 188.59 64.07 216.85 64.87 222.73C65.52 227.49 106.37 228.35 106.37 228.35V213.66L78.92 205.88" stroke="#263238" stroke-linecap="round" stroke-linejoin="round"/>
<path d="M90.8 208.9L100.31 174.32" stroke="#263238" stroke-linecap="round" stroke-linejoin="round"/>
<path d="M69.5172 119.212L58.3133 133.241C56.2427 135.834 56.6666 139.614 59.2596 141.684C62.5629 144.321 67.4852 142.813 68.7439 138.778L69.2215 137.247C69.505 136.34 69.9544 135.493 70.5481 134.75L74.2477 130.117C74.8237 129.396 75.539 128.799 76.351 128.361L76.9087 128.06C80.621 126.059 81.0831 120.917 77.787 118.286C75.2471 116.259 71.5447 116.673 69.5172 119.212Z" stroke="#727272" stroke-opacity="0.44"/>
<path d="M70.444 120.613L59.9434 133.911C58.456 135.794 58.7606 138.54 60.6231 140.044C62.91 141.891 66.312 140.95 67.351 138.184L68.3577 135.505C68.6131 134.825 68.9718 134.19 69.4203 133.621L72.7473 129.408C73.1842 128.855 73.7108 128.38 74.3047 128.004L76.0098 126.924C78.487 125.355 78.6893 121.782 76.4051 119.937C74.5743 118.459 71.9057 118.762 70.444 120.613Z" stroke="#727272" stroke-opacity="0.44"/>
<path d="M138.627 40.9993L118.374 66.3595C114.631 71.0468 115.397 77.8789 120.085 81.6212C126.056 86.3884 134.954 83.6621 137.229 76.3685L138.093 73.6012C138.605 71.9609 139.418 70.4294 140.491 69.0868L147.179 60.7122C148.22 59.4085 149.513 58.3286 150.981 57.5374L151.989 56.994C158.7 53.3756 159.535 44.0806 153.577 39.3244C148.985 35.6599 142.292 36.4097 138.627 40.9993Z" stroke="#006FCB"/>
<path d="M140.303 43.5311L121.321 67.5699C118.632 70.9745 119.183 75.9384 122.549 78.6572C126.684 81.9948 132.833 80.2935 134.711 75.2936L136.531 70.4507C136.993 69.2222 137.641 68.0737 138.452 67.0462L144.466 59.4304C145.256 58.4298 146.208 57.5712 147.282 56.8915L150.364 54.9393C154.842 52.1027 155.208 45.6437 151.078 42.3099C147.769 39.6383 142.945 40.1851 140.303 43.5311Z" stroke="#006FCB"/>
<path d="M140.258 47.6008L126.519 64.1103C124.573 66.4484 124.82 69.9739 127.071 71.9846C129.834 74.453 134.123 73.4097 135.552 69.922L136.937 66.5438C137.288 65.6869 137.767 64.8914 138.353 64.1856L142.706 58.9553C143.278 58.2681 143.958 57.6855 144.717 57.2327L146.896 55.9321C150.061 54.0421 150.486 49.483 147.726 47.0175C145.513 45.0416 142.17 45.3028 140.258 47.6008Z" stroke="#006FCB"/>
<path d="M354.627 40.9993L334.374 66.3595C330.631 71.0468 331.397 77.8789 336.085 81.6212C342.056 86.3884 350.954 83.6621 353.229 76.3685L354.093 73.6012C354.605 71.9609 355.418 70.4294 356.491 69.0868L363.179 60.7122C364.22 59.4085 365.513 58.3286 366.981 57.5374L367.989 56.994C374.7 53.3756 375.535 44.0806 369.577 39.3244C364.985 35.6599 358.292 36.4097 354.627 40.9993Z" stroke="#006FCB"/>
<path d="M356.303 43.5311L337.321 67.5699C334.632 70.9745 335.183 75.9384 338.549 78.6572C342.684 81.9948 348.833 80.2935 350.711 75.2936L352.531 70.4507C352.993 69.2222 353.641 68.0737 354.452 67.0462L360.466 59.4304C361.256 58.4298 362.208 57.5712 363.282 56.8915L366.364 54.9393C370.842 52.1027 371.208 45.6437 367.078 42.3099C363.769 39.6383 358.945 40.1851 356.303 43.5311Z" stroke="#006FCB"/>
<path d="M356.258 47.6008L342.519 64.1103C340.573 66.4484 340.82 69.9739 343.071 71.9846C345.834 74.453 350.123 73.4097 351.552 69.922L352.937 66.5438C353.288 65.6869 353.767 64.8914 354.353 64.1856L358.706 58.9553C359.278 58.2681 359.958 57.6855 360.717 57.2327L362.896 55.9321C366.061 54.0421 366.486 49.483 363.726 47.0175C361.513 45.0416 358.17 45.3028 356.258 47.6008Z" stroke="#006FCB"/>
<path d="M246.627 36.9993L226.374 62.3595C222.631 67.0468 223.397 73.8789 228.085 77.6212C234.056 82.3884 242.954 79.6621 245.229 72.3685L246.093 69.6012C246.605 67.9609 247.418 66.4294 248.491 65.0868L255.179 56.7122C256.22 55.4085 257.513 54.3286 258.981 53.5374L259.989 52.994C266.7 49.3756 267.535 40.0806 261.577 35.3244C256.985 31.6599 250.292 32.4097 246.627 36.9993Z" stroke="#737373" stroke-opacity="0.51"/>
<path d="M248.303 39.5311L229.321 63.5699C226.632 66.9745 227.183 71.9384 230.549 74.6572C234.684 77.9948 240.833 76.2935 242.711 71.2936L244.531 66.4507C244.993 65.2222 245.641 64.0737 246.452 63.0462L252.466 55.4304C253.256 54.4298 254.208 53.5712 255.282 52.8915L258.364 50.9393C262.842 48.1027 263.208 41.6437 259.078 38.3099C255.769 35.6383 250.945 36.1851 248.303 39.5311Z" stroke="#737373" stroke-opacity="0.51"/>
<path d="M248.258 43.6008L234.519 60.1103C232.573 62.4484 232.82 65.9739 235.071 67.9846C237.834 70.453 242.123 69.4097 243.552 65.922L244.937 62.5438C245.288 61.6869 245.767 60.8914 246.353 60.1856L250.706 54.9553C251.278 54.2681 251.958 53.6855 252.717 53.2327L254.896 51.9321C258.061 50.0421 258.486 45.483 255.726 43.0175C253.513 41.0416 250.17 41.3028 248.258 43.6008Z" stroke="#737373" stroke-opacity="0.51"/>
<path d="M57.2201 245.574L39.1215 268.236C35.7766 272.425 36.4615 278.53 40.6502 281.874C45.9863 286.134 53.9377 283.698 55.9709 277.18L56.7424 274.707C57.2004 273.242 57.9264 271.873 58.8854 270.673L64.8617 263.19C65.7921 262.025 66.9475 261.06 68.2592 260.353L69.1602 259.867C75.157 256.634 75.9035 248.327 70.579 244.077C66.4761 240.802 60.4953 241.473 57.2201 245.574Z" stroke="#727272" stroke-opacity="0.44"/>
<path d="M58.7171 247.836L41.7547 269.318C39.3519 272.36 39.8439 276.796 42.8527 279.226C46.5469 282.208 52.0424 280.688 53.7208 276.22L55.3471 271.892C55.7596 270.794 56.3391 269.768 57.0634 268.85L62.4379 262.044C63.1437 261.15 63.9944 260.383 64.9537 259.775L67.708 258.031C71.7097 255.496 72.0365 249.724 68.3467 246.745C65.3892 244.358 61.0783 244.846 58.7171 247.836Z" stroke="#727272" stroke-opacity="0.44"/>
<path d="M183.517 166.212L172.313 180.241C170.243 182.834 170.667 186.614 173.26 188.684C176.563 191.321 181.485 189.813 182.744 185.778L183.221 184.247C183.505 183.34 183.954 182.493 184.548 181.75L188.248 177.117C188.824 176.396 189.539 175.799 190.351 175.361L190.909 175.06C194.621 173.059 195.083 167.917 191.787 165.286C189.247 163.259 185.545 163.673 183.517 166.212Z" stroke="#727272" stroke-opacity="0.44"/>
<path d="M184.444 167.613L173.943 180.911C172.456 182.794 172.761 185.54 174.623 187.044C176.91 188.891 180.312 187.95 181.351 185.184L182.358 182.505C182.613 181.825 182.972 181.19 183.42 180.621L186.747 176.408C187.184 175.855 187.711 175.38 188.305 175.004L190.01 173.924C192.487 172.355 192.689 168.782 190.405 166.937C188.574 165.459 185.906 165.762 184.444 167.613Z" stroke="#727272" stroke-opacity="0.44"/>
<path d="M316.517 118.212L305.313 132.241C303.243 134.834 303.667 138.614 306.26 140.684C309.563 143.321 314.485 141.813 315.744 137.778L316.221 136.247C316.505 135.34 316.954 134.493 317.548 133.75L321.248 129.117C321.824 128.396 322.539 127.799 323.351 127.361L323.909 127.06C327.621 125.059 328.083 119.917 324.787 117.286C322.247 115.259 318.545 115.673 316.517 118.212Z" stroke="#727272" stroke-opacity="0.44"/>
<path d="M317.444 119.613L306.943 132.911C305.456 134.794 305.761 137.54 307.623 139.044C309.91 140.891 313.312 139.95 314.351 137.184L315.358 134.505C315.613 133.825 315.972 133.19 316.42 132.621L319.747 128.408C320.184 127.855 320.711 127.38 321.305 127.004L323.01 125.924C325.487 124.355 325.689 120.782 323.405 118.937C321.574 117.459 318.906 117.762 317.444 119.613Z" stroke="#727272" stroke-opacity="0.44"/>
<path d="M318.752 333.822L290.709 345.517C285.526 347.679 283.079 353.632 285.241 358.814C287.996 365.416 296.526 367.185 301.678 362.223L303.633 360.34C304.792 359.225 306.148 358.334 307.634 357.715L316.894 353.853C318.335 353.252 319.883 352.947 321.444 352.959L322.516 352.967C329.653 353.019 334.525 345.766 331.776 339.179C329.657 334.104 323.827 331.706 318.752 333.822Z" stroke="#727272" stroke-opacity="0.44"/>
<path d="M318.987 336.655L292.583 347.838C288.843 349.421 287.06 353.744 288.599 357.491C290.489 362.092 296.302 363.465 300.095 360.207L303.77 357.051C304.702 356.251 305.751 355.6 306.879 355.122L315.245 351.579C316.344 351.114 317.512 350.838 318.699 350.763L322.108 350.549C327.06 350.237 330.269 345.1 328.381 340.505C326.868 336.822 322.662 335.098 318.987 336.655Z" stroke="#727272" stroke-opacity="0.44"/>
<path d="M444.517 122.212L433.313 136.241C431.243 138.834 431.667 142.614 434.26 144.684C437.563 147.321 442.485 145.813 443.744 141.778L444.221 140.247C444.505 139.34 444.954 138.493 445.548 137.75L449.248 133.117C449.824 132.396 450.539 131.799 451.351 131.361L451.909 131.06C455.621 129.059 456.083 123.917 452.787 121.286C450.247 119.259 446.545 119.673 444.517 122.212Z" stroke="#727272" stroke-opacity="0.44"/>
<path d="M445.444 123.613L434.943 136.911C433.456 138.794 433.761 141.54 435.623 143.044C437.91 144.891 441.312 143.95 442.351 141.184L443.358 138.505C443.613 137.825 443.972 137.19 444.42 136.621L447.747 132.408C448.184 131.855 448.711 131.38 449.305 131.004L451.01 129.924C453.487 128.355 453.689 124.782 451.405 122.937C449.574 121.459 446.906 121.762 445.444 123.613Z" stroke="#727272" stroke-opacity="0.44"/>
<path d="M452.184 243.447L444.859 252.619C443.505 254.315 443.782 256.786 445.477 258.14C447.637 259.864 450.856 258.878 451.679 256.24L451.991 255.239C452.176 254.645 452.47 254.092 452.858 253.606L455.277 250.577C455.654 250.105 456.122 249.715 456.653 249.428L457.017 249.232C459.445 247.923 459.747 244.561 457.592 242.841C455.931 241.515 453.51 241.786 452.184 243.447Z" stroke="#727272" stroke-opacity="0.44"/>
<path d="M452.79 244.362L445.924 253.057C444.952 254.289 445.151 256.084 446.369 257.067C447.864 258.275 450.089 257.659 450.768 255.851L451.426 254.099C451.593 253.655 451.828 253.239 452.121 252.868L454.296 250.113C454.582 249.751 454.926 249.441 455.315 249.195L456.429 248.489C458.049 247.463 458.181 245.126 456.688 243.921C455.491 242.954 453.746 243.152 452.79 244.362Z" stroke="#727272" stroke-opacity="0.44"/>
</svg>
